<svg width="117" height="41" viewBox="0 0 117 41" fill="none" xmlns="http://www.w3.org/2000/svg">
  <path d="M5.55976 0.0605699C4.52109 0.167217 2.57507 0.617506 1.51252 1.54178C-1.67513 4.29092 0.23507 9.31519 6.68201 9.31519C10.4308 9.31519 14.1796 6.94525 17.1165 3.15334C12.926 1.12704 9.38017 -0.318621 5.55976 0.0605699Z" transform="translate(4.51657 22.2169)" fill="#1CABEB"/>
  <path d="M34.121 25.7494C40.0904 27.7283 41.4395 27.835 41.4395 27.835V6.56474C41.4395 2.93873 38.4667 0 34.8015 0H6.63796C2.97275 0 0 2.93873 0 6.56474V34.4353C0 38.0613 2.97275 41 6.63796 41H34.8015C38.4667 41 41.4395 38.0613 41.4395 34.4353V34.1627C41.4395 34.1627 30.6588 29.7191 25.2147 27.124C21.5614 31.5676 16.8576 34.2694 11.9627 34.2694C3.68908 34.2694 0.88347 27.1121 4.79939 22.396C5.65898 21.365 7.10357 20.3934 9.36 19.8364C12.8819 18.9832 18.4932 20.3697 23.7582 22.0879C24.7013 20.3578 25.5012 18.4618 26.0982 16.4474H9.88531V14.824H18.2424V11.909H8.13031V10.2855H18.2544V6.1263C18.2544 6.1263 18.2544 5.42717 18.9707 5.42717H23.0418V10.2855H33.0465V11.909H23.0418V14.824H31.208C30.4319 17.9879 29.2381 20.9147 27.7457 23.4743C30.229 24.3512 32.4615 25.1925 34.121 25.7494Z" fill="#1CABEB"/>
  <path d="M4.22632 3.74451H16.0935V6.0789H20.3317V3.31792C20.3317 3.30607 20.3317 3.30607 20.3317 3.30607C20.3317 2.68988 19.8422 2.18035 19.2334 2.1685H12.3805V7.23249e-07H7.95122V2.1685H1.45737e-06V6.0789H4.23827V3.74451H4.22632Z" transform="translate(96.1907 2.67803)" fill="#1CABEB"/>
  <path d="M4.34571 1.4465e-06L1.45737e-06 10.1908H3.33092V22.3249H6.97224V6.23295H5.64704L8.39296 1.4465e-06H4.34571Z" transform="translate(70.403 2.86764)" fill="#1CABEB"/>
  <path d="M20.8212 14.4566L19.4841 9.9893C19.4005 9.70491 19.1379 9.50347 18.8274 9.50347H15.3055L16.3322 12.928H12.1895V6.2922H20.3317V4.71618H12.1895V1.58786H20.3317V0H-2.91474e-06V1.57601H8.14224V4.70434H-2.91474e-06V6.28035H8.14224V12.9162H-2.91474e-06V14.4922H20.8212L20.8093 14.4329L20.8212 14.4566Z" transform="translate(96.1788 10.1908)" fill="#1CABEB"/>
  <path d="M3.90398 0.473987C3.76072 0.189594 3.48612 -1.4465e-06 3.15184 -1.4465e-06H0L2.45938 7.67861H6.19623L3.90398 0.473987Z" transform="translate(80.1689 10.7595)" fill="#1CABEB"/>
  <path d="M13.1207 -1.4465e-06H9.33613V3.92225H1.45737e-06V5.49827H9.33613V19.6113C9.30031 19.9312 9.04959 20.1919 8.72724 20.2038H6.8051V21.839H11.7119C12.488 21.8035 13.1088 21.1636 13.1327 20.3697V5.51011H14.6728V3.9341H13.1327V-1.4465e-06H13.1207Z" transform="translate(78.9392 3.05722)" fill="#1CABEB"/>
  <path d="M20.3079 7.47717H13.0371V4.89393H21.4659V3.28237H13.0371V7.23249e-07H9.27643C8.85857 7.23249e-07 8.53623 0.343642 8.53623 0.770232V3.28237H0.167143V4.89393H8.53623V7.47717H1.46847V9.08873H15.5443C15.5443 9.08873 14.7683 12.1104 10.9001 15.3572C7.43786 12.7621 6.2798 10.6884 6.2798 10.6884H2.4952C4.02337 13.3191 6.19623 15.4165 8.53623 17.0873C6.38725 18.4737 3.60551 19.8127 7.28685e-07 20.8792V22.8107C7.28685e-07 22.8107 5.55153 21.7679 10.924 18.6277C16.2964 21.7442 21.7047 22.8107 21.7047 22.8107V20.9858C18.2544 19.7298 15.5085 18.3552 13.3595 17.028C16.4755 14.741 19.2095 11.6364 20.3079 7.47717Z" transform="translate(48.1252 2.73729)" fill="#1CABEB"/>
  <path d="M5.88582 7.47717L6.51857 9.36127H8.28551L4.81133 0H3.46224L-7.28685e-07 9.36127H1.76694L2.42357 7.47717H5.88582ZM4.17857 2.41734L5.4799 6.29219H2.82949L4.17857 2.41734Z" transform="translate(50.6085 28.4986)" fill="#1CABEB"/>
  <path d="M-1.45737e-06 0V9.36127H5.70673V8.08151H1.69531V0H-1.45737e-06Z" transform="translate(64.4455 28.4986)" fill="#1CABEB"/>
  <path d="M1.45737e-06 0H1.69531V9.36127H1.45737e-06V0Z" transform="translate(76.3724 28.4986)" fill="#1CABEB"/>
  <path d="M3.66521 0H0V9.36127H1.69531V5.75896H3.66521C5.49184 5.75896 6.76929 4.57399 6.76929 2.87948C6.76929 1.18497 5.49184 0 3.66521 0ZM3.5697 4.47919H1.69531V1.27977H3.5697C4.51286 1.27977 5.07398 2.0974 5.07398 2.89133C5.07398 3.66156 4.54868 4.47919 3.5697 4.47919Z" transform="translate(84.9444 28.4986)" fill="#1CABEB"/>
  <path d="M5.88581 7.47717L6.51857 9.36127H8.28551L4.81132 0H3.46224L-1.45737e-06 9.36127H1.76694L2.42357 7.47717H5.88581ZM4.17857 2.41734L5.4799 6.29219H2.82949L4.17857 2.41734Z" transform="translate(95.7848 28.4986)" fill="#1CABEB"/>
  <path d="M5.56347 0.0118497L3.71296 3.99335L1.83857 0.0118497H1.45737e-06L2.85336 5.52197V9.36128H4.53674V5.52197L4.54867 5.49826L7.3901 2.893e-06H5.56347V0.0118497Z" transform="translate(107.95 28.4867)" fill="#1CABEB"/>
</svg>