<svg width="64" height="96" viewBox="0 0 64 96" fill="none" xmlns="http://www.w3.org/2000/svg">
    <path d="M64 1.49306V91.236C64 92.0608 63.3411 92.7292 62.5278 92.7292H1.47216C0.658894 92.7292 6.77032e-07 92.0608 6.77032e-07 91.236V1.49306C6.77032e-07 0.66825 0.658894 0 1.47216 0H62.5278C63.3411 0 64 0.66825 64 1.49306Z" fill="#FDFDFD"/>
    <path d="M24.8028 12.5784C24.8028 16.7526 22.7858 20.4555 19.691 22.7443V35.3034H5.10994V22.7443C2.01699 20.4553 -1.76028e-06 16.7507 -1.76028e-06 12.5784C-1.76028e-06 5.64224 5.56307 -7.32422e-07 12.4023 -7.32422e-07C19.2398 -7.32422e-07 24.8028 5.64206 24.8028 12.5784Z" transform="translate(33.952 57.4258)" fill="#E6E6E6"/>
    <path d="M64 1.49306V12.9898H6.77032e-07V1.49306C6.77032e-07 0.66825 0.658894 0 1.47216 0H62.5278C63.3411 0 64 0.66825 64 1.49306Z" fill="#00CDA9"/>
    <path d="M64 10.4788H6.77032e-07V1.49231C6.77032e-07 0.66825 0.65871 0 1.47142 0H62.5286C63.3413 0 64 0.66825 64 1.49231V10.4788Z" fill="#00DEB7"/>
    <path d="M1.64594 2.89725H1.42834C0.639298 2.89725 -6.20613e-07 2.24869 -6.20613e-07 1.44862C-6.20613e-07 0.648562 0.639483 7.72476e-08 1.42834 7.72476e-08H1.64594C2.43499 7.72476e-08 3.07429 0.648562 3.07429 1.44862C3.07429 2.24869 2.4348 2.89725 1.64594 2.89725Z" transform="translate(5.79773 3.79086)" fill="white"/>
    <path d="M1.64576 2.89725H1.42834C0.639297 2.89725 2.48245e-07 2.24869 2.48245e-07 1.44862C2.48245e-07 0.648562 0.639482 7.72476e-08 1.42834 7.72476e-08H1.64576C2.4348 7.72476e-08 3.0741 0.648562 3.0741 1.44862C3.0741 2.24869 2.4348 2.89725 1.64576 2.89725Z" transform="translate(10.8904 3.79085)" fill="white"/>
    <path d="M1.64594 2.89725H1.42834C0.639298 2.89725 1.21866e-06 2.24869 1.21866e-06 1.44862C1.21866e-06 0.648562 0.639483 7.72476e-08 1.42834 7.72476e-08H1.64594C2.43499 7.72476e-08 3.07429 0.648562 3.07429 1.44862C3.07429 2.24869 2.43499 2.89725 1.64594 2.89725Z" transform="translate(15.983 3.79085)" fill="white"/>
    <path d="M9.92594 20.1337C15.4079 20.1337 19.8519 15.6267 19.8519 10.0669C19.8519 4.50709 15.4079 0 9.92594 0C4.44399 0 2.25677e-06 4.50709 2.25677e-06 10.0669C2.25677e-06 15.6267 4.44399 20.1337 9.92594 20.1337Z" transform="translate(36.4279 59.9362)" fill="#FFCE94"/>
    <path d="M9.62736 -1.46484e-06V16.542C9.62736 17.0713 9.05406 17.3957 8.61036 17.1157L4.81266 14.7167L1.017 17.1157C0.573297 17.3959 -1.89569e-06 17.0713 -1.89569e-06 16.542V-1.46484e-06H9.62736Z" transform="translate(41.5399 78.7813)" fill="#E51137"/>
    <path d="M9.62755 -1.46484e-06V2.81625C8.14781 3.44981 6.52128 3.80138 4.8147 3.80138C3.1083 3.80138 1.48178 3.44981 2.43732e-06 2.81625V-1.46484e-06H9.62755Z" transform="translate(41.5398 78.7813)" fill="#D20E31"/>
    <path d="M9.92594 20.1337C15.4079 20.1337 19.8519 15.6267 19.8519 10.0669C19.8519 4.50709 15.4079 0 9.92594 0C4.44399 0 2.25677e-06 4.50709 2.25677e-06 10.0669C2.25677e-06 15.6267 4.44399 20.1337 9.92594 20.1337Z" transform="translate(36.4279 59.9362)" fill="#FFCE94"/>
    <path d="M5.1606 10.4677C8.01072 10.4677 10.3212 8.12446 10.3212 5.23387C10.3212 2.34329 8.01072 0 5.1606 0C2.31048 0 2.43732e-06 2.34329 2.43732e-06 5.23387C2.43732e-06 8.12446 2.31048 10.4677 5.1606 10.4677Z" transform="translate(41.1931 64.7692)" fill="#FFCE94"/>
    <path d="M5.1606 10.4677C8.01072 10.4677 10.3212 8.12446 10.3212 5.23387C10.3212 2.34329 8.01072 0 5.1606 0C2.31048 0 2.43732e-06 2.34329 2.43732e-06 5.23387C2.43732e-06 8.12446 2.31048 10.4677 5.1606 10.4677Z" transform="translate(41.1931 64.7692)" fill="#EF872A"/>
    <path d="M39.9598 8.61806H1.37288C0.614708 8.61806 -1.80542e-07 7.99462 -1.80542e-07 7.22568V1.39238C-1.80542e-07 0.623438 0.614708 -8.69751e-07 1.37288 -8.69751e-07H39.9598C40.718 -8.69751e-07 41.3327 0.623438 41.3327 1.39238V7.22568C41.3329 7.99462 40.7182 8.61806 39.9598 8.61806Z" transform="translate(10.9657 25.5354)" fill="#6526B8"/>
    <path d="M9.08766 0.926064C8.87487 0.367877 8.34558 -2.65503e-06 7.75564 -2.65503e-06C7.16571 -2.65503e-06 6.63641 0.367877 6.42362 0.926064L0.0966433 17.5091C-0.188064 18.2554 0.17762 19.0944 0.913237 19.383C1.64904 19.6721 2.47598 19.3009 2.76069 18.5548L4.61018 13.7072C4.62109 13.7074 4.63181 13.7089 4.6429 13.7089H10.9017L12.7506 18.5548C12.9697 19.1291 13.5102 19.4812 14.083 19.4812C14.2544 19.4812 14.4287 19.4497 14.598 19.3832C15.3338 19.0946 15.6995 18.2556 15.4146 17.5093L9.08766 0.926064ZM5.71499 10.8114L7.75564 5.46319L9.79629 10.8114H5.71499Z" transform="translate(9.92712 62.0387)" fill="#B1B1B1"/>
    <path d="M5.67381 2.15269H4.97942V1.44862C4.97942 0.648374 4.33994 2.15149e-06 3.55108 2.15149e-06C2.76221 2.15149e-06 2.12273 0.648561 2.12273 1.44862V2.15269H1.42834C0.639297 2.15269 -2.25677e-08 2.80125 -2.25677e-08 3.60131C-2.25677e-08 4.40138 0.639482 5.04993 1.42834 5.04993H2.12273V5.754C2.12273 6.55425 2.76221 7.20262 3.55108 7.20262C4.33994 7.20262 4.97942 6.55406 4.97942 5.754V5.04993H5.67381C6.46286 5.04993 7.10215 4.40138 7.10215 3.60131C7.10215 2.80125 6.46267 2.15269 5.67381 2.15269Z" transform="translate(22.1837 60.3737)" fill="#B1B1B1"/>
    <path d="M1.42834 2.89725H8.91171C9.70076 2.89725 10.3401 2.24869 10.3401 1.44862C10.3401 0.648375 9.70057 5.49316e-07 8.91171 5.49316e-07H1.42834C0.639297 5.49316e-07 2.0311e-07 0.648562 2.0311e-07 1.44862C2.0311e-07 2.24887 0.639297 2.89725 1.42834 2.89725Z" transform="translate(9.53735 18.6006)" fill="#B1B1B1"/>
    <path d="M1.42834 2.89725H8.91171C9.70076 2.89725 10.3401 2.24869 10.3401 1.44862C10.3401 0.648562 9.70057 -6.86645e-08 8.91171 -6.86645e-08H1.42834C0.639297 -6.86645e-08 2.0311e-07 0.648562 2.0311e-07 1.44862C2.0311e-07 2.24869 0.639297 2.89725 1.42834 2.89725Z" transform="translate(9.53735 38.9454)" fill="#B1B1B1"/>
    <path d="M1.42834 2.89725H43.497C44.286 2.89725 44.9254 2.24869 44.9254 1.44862C44.9254 0.648561 44.2859 -8.46862e-07 43.497 -8.46862e-07H1.42834C0.639297 -8.46862e-07 2.0311e-07 0.648561 2.0311e-07 1.44862C2.0311e-07 2.24869 0.639297 2.89725 1.42834 2.89725Z" transform="translate(9.53735 44.3505)" fill="#B1B1B1"/>
    <path d="M43.497 -2.74658e-07H1.42834C0.639297 -2.74658e-07 2.0311e-07 0.648564 2.0311e-07 1.44863C2.0311e-07 2.24869 0.639482 2.89725 1.42834 2.89725H43.497C44.286 2.89725 44.9254 2.24869 44.9254 1.44863C44.9254 0.648564 44.286 -2.74658e-07 43.497 -2.74658e-07Z" transform="translate(9.53735 48.5552)" fill="#B1B1B1"/>
</svg>
