<svg width="66" height="70" viewBox="0 0 66 70" fill="none" xmlns="http://www.w3.org/2000/svg">
  <path d="M8.07747 1.94121e-06H3.86221L0.0776808 15.0436C-0.149803 15.9481 0.130612 16.9049 0.810505 17.5431L4.47032 20.9787C5.31345 21.7702 6.62623 21.7702 7.46936 20.9787L11.1292 17.5431C11.8089 16.905 12.0895 15.9482 11.862 15.0436L8.07747 1.94121e-06Z" transform="translate(27.0299 47.3999)" fill="#609AD6"/>
  <path opacity="0.1" d="M10.6939 17.9516C1.73256 18.8079 3.3228 8.66666 5.40181 1.94121e-06H3.86221L0.0776806 15.0436C-0.149804 15.9481 0.130611 16.9049 0.810505 17.5431L4.47032 20.9787C5.31345 21.7702 6.62623 21.7702 7.46937 20.9787L10.6939 17.9516Z" transform="translate(27.0302 47.3999)" fill="black"/>
  <path d="M23.1102 43.1483C35.8736 43.1483 46.2204 33.4892 46.2204 21.5741C46.2204 9.65907 35.8736 0 23.1102 0C10.3468 0 0 9.65907 0 21.5741C0 33.4892 10.3468 43.1483 23.1102 43.1483Z" transform="translate(9.88965 6.84148)" fill="#B8DBFF"/>
  <path d="M23.1102 43.1483C35.8736 43.1483 46.2204 33.4892 46.2204 21.5741C46.2204 9.65907 35.8736 0 23.1102 0C10.3468 0 0 9.65907 0 21.5741C0 33.4892 10.3468 43.1483 23.1102 43.1483Z" transform="translate(9.88965 6.84148)" fill="#F5D7B7"/>
  <path d="M42.7066 12.8068C39.1071 5.26113 31.0052 7.40291e-08 21.5861 7.40291e-08C11.7354 7.40291e-08 3.32579 5.75423 -5.01454e-07 13.8581C3.63598 13.6685 10.4456 10.7063 13.7124 8.48176C14.269 8.10266 15.0051 8.12598 15.5372 8.53877C20.3995 12.3102 31.9415 14.4031 42.7066 12.8068Z" transform="translate(11.4138 6.84256)" fill="#495059"/>
  <path d="M4.45015 7.09273C6.9079 7.09273 8.9003 5.50497 8.9003 3.54636C8.9003 1.58776 6.9079 0 4.45015 0C1.9924 0 0 1.58776 0 3.54636C0 5.50497 1.9924 7.09273 4.45015 7.09273Z" transform="translate(16.488 27.5647)" fill="#EC7887"/>
  <path d="M4.45015 7.09273C6.9079 7.09273 8.9003 5.50497 8.9003 3.54636C8.9003 1.58776 6.9079 0 4.45015 0C1.9924 0 0 1.58776 0 3.54636C0 5.50497 1.9924 7.09273 4.45015 7.09273Z" transform="translate(40.6112 27.5647)" fill="#EC7887"/>
  <path d="M3.22451 6.45286C1.4437 6.45286 -1.80852e-07 5.00844 -1.80852e-07 3.22643V0.880694C-1.80852e-07 0.394324 0.394091 5.59331e-07 0.880171 5.59331e-07H5.56871C6.05479 5.59331e-07 6.44889 0.394324 6.44889 0.880694V3.22643C6.44902 5.00844 5.00532 6.45286 3.22451 6.45286Z" transform="translate(29.7753 25.1605)" fill="#495059"/>
  <path opacity="0.1" d="M23.1098 42.6008C28.5613 42.6008 33.5712 40.8376 37.523 37.89C0.652421 39.5989 5.33477 10.0014 17.919 -3.29018e-08C7.6554 2.19897 4.93234e-08 10.7783 4.93234e-08 21.027C4.93234e-08 32.9419 10.3467 42.6008 23.1098 42.6008Z" transform="translate(9.89005 7.3893)" fill="black"/>
  <path d="M24.9698 22.4147H9.16631C4.11209 22.4147 2.13735e-07 18.3003 2.13735e-07 13.2429V2.43198C2.13735e-07 1.08891 1.08813 8.22546e-07 2.43054 8.22546e-07C3.77295 8.22546e-07 4.86108 1.08877 4.86108 2.43198V13.2429C4.86108 15.6183 6.79247 17.5508 9.16644 17.5508H24.9698C26.3121 17.5508 27.4003 18.6396 27.4003 19.9828C27.4002 21.3258 26.3121 22.4147 24.9698 22.4147Z" transform="translate(5.07098 30.7771)" fill="#5B6EA2"/>
  <path d="M9.35352 3.6192e-07H4.96559C2.22312 3.6192e-07 -2.79499e-07 2.22458 -2.79499e-07 4.96855C-2.79499e-07 7.71265 2.22326 9.9371 4.96559 9.9371H9.35352C12.096 9.9371 14.3191 7.71252 14.3191 4.96855C14.3191 2.22445 12.096 3.6192e-07 9.35352 3.6192e-07Z" transform="translate(26.0772 45.7912)" fill="#B8DBFF"/>
  <path opacity="0.1" d="M13.5614 7.60497C2.48024 8.6199 3.90764 1.88025 4.94323 1.01996e-06C2.21113 0.01213 -2.79499e-07 2.23145 -2.79499e-07 4.96801C-2.79499e-07 7.71211 2.22326 9.93656 4.96559 9.93656H9.35352C11.1275 9.93629 12.6832 9.00492 13.5614 7.60497Z" transform="translate(26.0772 45.7919)" fill="black"/>
  <path d="M52.946 24.0778H47.9588C47.9588 13.553 38.3205 4.99052 26.4732 4.99052C14.6258 4.99052 4.98755 13.553 4.98755 24.0778H-4.11028e-08C-4.11028e-08 17.596 2.78759 11.5175 7.84935 6.9616C12.8372 2.47228 19.4512 0 26.473 0C33.4949 0 40.1091 2.47228 45.0967 6.96147C50.1586 11.5174 52.946 17.596 52.946 24.0778Z" transform="translate(6.52682 1.99112)" fill="#5B6EA2"/>
  <path d="M5.22392 18.4682H7.05336C9.9386 18.4682 12.2774 16.1278 12.2774 13.241V5.22717C12.2774 2.34021 9.93846 2.46764e-07 7.05336 2.46764e-07H5.22406C2.33882 2.46764e-07 -5.26116e-07 2.34034 -5.26116e-07 5.22717V13.2412C-5.26116e-07 16.1281 2.33882 18.4682 5.22392 18.4682Z" transform="translate(52.2123 21.543)" fill="#B8DBFF"/>
  <path opacity="0.1" d="M11.5776 15.8535C4.38388 17.8019 4.80222 5.58308 6.10732 -7.07389e-07H5.22406C2.33882 -7.07389e-07 -5.26116e-07 2.34034 -5.26116e-07 5.22716V13.2412C-5.26116e-07 16.1281 2.33895 18.4683 5.22406 18.4683H7.05363C8.98717 18.4683 10.6742 17.4162 11.5776 15.8535Z" transform="translate(52.2123 21.5428)" fill="black"/>
  <path d="M5.22405 18.4682H7.05336C9.93859 18.4682 12.2774 16.1278 12.2774 13.241V5.22717C12.2774 2.34021 9.93846 2.46764e-07 7.05336 2.46764e-07H5.22405C2.33882 2.46764e-07 -3.4893e-10 2.34034 -3.4893e-10 5.22717V13.2412C-0.000134686 16.1281 2.33882 18.4682 5.22405 18.4682Z" transform="translate(1.51016 21.543)" fill="#B8DBFF"/>
  <path opacity="0.1" d="M11.5776 15.8535C4.38388 17.8019 4.80222 5.58308 6.10732 -7.07389e-07H5.22405C2.33882 -7.07389e-07 6.78196e-08 2.34034 6.78196e-08 5.22716V13.2412C6.78196e-08 16.1281 2.33895 18.4683 5.22405 18.4683H7.05336C8.98731 18.4683 10.6745 17.4162 11.5776 15.8535Z" transform="translate(1.51004 21.5428)" fill="black"/>
  <path d="M21.1819 23.0218C20.624 23.0218 20.1717 23.4743 20.1717 24.0325V25.944C20.1717 26.5023 20.624 26.9548 21.1819 26.9548C21.7398 26.9548 22.192 26.5023 22.192 25.944V24.0325C22.192 23.4743 21.7398 23.0218 21.1819 23.0218ZM59.3204 19.5777C58.4668 16.0663 56.8238 12.8307 54.4281 9.95017C54.0711 9.52094 53.4341 9.46272 53.0054 9.81985C52.5766 10.1768 52.5184 10.8142 52.8752 11.2432C54.9561 13.7452 56.4162 16.5352 57.2281 19.5516H56.9362C55.9959 19.5516 55.104 19.7622 54.3035 20.137C54.1422 19.571 53.9532 19.0126 53.7376 18.4632C53.7253 18.4267 53.7112 18.3911 53.6952 18.3567C52.3619 15.0199 50.0458 12.0215 46.9687 9.708C42.9227 6.66579 37.7842 4.99052 32.4998 4.99052C27.2154 4.99052 22.0769 6.66593 18.0309 9.708C14.6793 12.2281 12.2301 15.5605 10.9711 19.2576C10.9667 19.2694 10.9629 19.2812 10.9588 19.2931C10.8644 19.5725 10.7766 19.8537 10.6959 20.137C9.89563 19.7623 9.00387 19.5517 8.06323 19.5517H7.77137C8.87687 15.4601 11.2032 11.7373 14.5514 8.72367C19.3535 4.40159 25.7277 2.02135 32.4998 2.02135C38.811 2.02135 44.8595 4.12235 49.5307 7.93731C49.9629 8.29026 50.5994 8.22571 50.952 7.79338C51.3048 7.36091 51.2404 6.72428 50.8082 6.37119C45.7774 2.26272 39.2753 0 32.4998 0C25.2278 0 18.3738 2.56446 13.2005 7.22076C9.41022 10.6322 6.8221 14.8907 5.67956 19.5777C2.50098 19.8595 -6.16542e-09 22.5372 -6.16542e-09 25.7897V33.8037C-6.16542e-09 36.2865 1.4573 38.4344 3.56082 39.4378V43.0395C3.56082 48.6541 8.12586 53.2221 13.7374 53.2221H18.0018C18.5597 53.2221 19.012 52.7696 19.012 52.2114C19.012 51.6532 18.5597 51.2007 18.0018 51.2007H13.7374C9.24011 51.2007 5.58124 47.5396 5.58124 43.0396V40.0073C5.79593 40.0298 6.01372 40.0416 6.23433 40.0416H8.06363C8.18391 40.0416 8.30324 40.0373 8.4219 40.0306V43.0395C8.4219 45.9723 10.8065 48.3582 13.7373 48.3582H23.5889C23.5907 48.3582 23.5926 48.3584 23.5946 48.3584C23.5959 48.3584 23.5969 48.3582 23.5981 48.3582H24.7391C24.6276 48.814 24.5671 49.2895 24.5671 49.7793C24.5671 50.269 24.6276 50.7446 24.7391 51.2004H22.7503C22.1924 51.2004 21.7402 51.6529 21.7402 52.2111C21.7402 52.7693 22.1924 53.2219 22.7503 53.2219H25.6615C26.0909 53.8297 26.6301 54.3542 27.2507 54.7659L25.628 61.2162C25.3111 62.476 25.7023 63.8108 26.6492 64.6996L30.3089 68.1352C30.9232 68.7119 31.7112 69.0001 32.4997 69C33.2877 69 34.0762 68.7116 34.6903 68.1352L38.35 64.6998C39.297 63.811 39.6882 62.4761 39.3715 61.2163L37.8117 55.0156C39.655 53.9962 40.9065 52.0314 40.9065 49.7792C40.9065 49.3913 40.8681 49.0123 40.7972 48.6447C46.0123 46.8512 50.4779 43.3573 53.3031 38.8678C54.3268 39.6053 55.5813 40.0414 56.9361 40.0414H58.7658C62.2034 40.0414 65 37.243 65 33.8033V25.7895C64.9999 22.5373 62.4989 19.8598 59.3204 19.5777ZM19.2448 11.3241C22.943 8.54335 27.6504 7.012 32.4999 7.012C37.3494 7.012 42.0568 8.54335 45.7549 11.3241C48.1672 13.1378 50.0589 15.4102 51.2991 17.9367C46.779 18.3939 41.9735 18.2408 37.6184 17.4882C33.0228 16.6939 29.2765 15.3136 27.0697 13.6018C26.1887 12.9187 24.9781 12.8809 24.0574 13.5081C21.6185 15.169 17.1099 17.2742 13.5627 18.2221C14.7987 15.5814 16.7418 13.206 19.2448 11.3241ZM8.0635 38.02H6.2342C3.9106 38.02 2.02029 36.1286 2.02029 33.8036V25.7897C2.02029 23.4648 3.9106 21.5733 6.2342 21.5733H6.48902C6.49037 21.5733 6.49158 21.5735 6.49293 21.5735C6.49441 21.5735 6.49589 21.5733 6.49751 21.5733H8.06363C10.3872 21.5733 12.2775 23.4648 12.2775 25.7897V33.8037C12.2774 36.1286 10.3871 38.02 8.0635 38.02ZM13.7373 46.3367C11.9204 46.3367 10.4422 44.8576 10.4422 43.0395V39.5686C10.8888 39.3834 11.3088 39.1473 11.6961 38.8684C13.5875 41.8804 16.1972 44.4353 19.2974 46.3366H13.7373V46.3367ZM36.9679 63.2256L33.308 66.661C32.8548 67.0866 32.1448 67.0865 31.6915 66.661L28.0317 63.2254C27.6197 62.8386 27.4495 62.2581 27.5874 61.7098L29.1275 55.5877C29.5816 55.6985 30.0553 55.7586 30.5428 55.7586H34.9307C35.2591 55.7586 35.5811 55.7308 35.8952 55.6796L37.4122 61.7098C37.5502 62.2581 37.38 62.8386 36.9679 63.2256ZM34.9307 53.7371H30.5428C28.3617 53.7371 26.5874 51.9617 26.5874 49.7793C26.5874 47.5969 28.3617 45.8215 30.5428 45.8215H34.9307C37.1118 45.8215 38.8862 47.5969 38.8862 49.7793C38.8862 51.9618 37.1118 53.7371 34.9307 53.7371ZM51.8396 37.3893C49.2668 41.7016 45.0444 45.0623 40.0817 46.7533C39.0418 44.988 37.1227 43.8 34.9307 43.8H30.5428C28.528 43.8 26.7445 44.8037 25.6615 46.3367H23.7902C19.2834 44.5361 15.5367 41.3787 13.16 37.3897C13.8756 36.3744 14.2978 35.1378 14.2978 33.8037V25.7897C14.2978 24.0657 13.595 22.5028 12.4613 21.3727C12.5312 21.0791 12.6091 20.7876 12.6955 20.4983C16.6232 19.7206 22.2964 17.1531 25.1946 15.1796C25.3892 15.0469 25.6456 15.0551 25.832 15.1997C28.2954 17.1104 32.3592 18.6308 37.2748 19.4804C42.0003 20.2972 47.2343 20.4367 52.1076 19.8842C52.2753 20.3738 52.4193 20.8704 52.5389 21.3727C51.4051 22.5028 50.7023 24.0657 50.7023 25.7897V33.8037C50.702 35.1376 51.124 36.374 51.8396 37.3893ZM62.9794 33.8037C62.9794 36.1287 61.0893 38.0202 58.7657 38.0202H56.9362C54.6126 38.0202 52.7225 36.1287 52.7225 33.8037V25.7897C52.7225 23.4648 54.6128 21.5733 56.9362 21.5733H58.5022C58.5037 21.5733 58.5052 21.5735 58.5068 21.5735C58.5081 21.5735 58.5094 21.5733 58.5107 21.5733H58.7657C61.0893 21.5733 62.9794 23.4648 62.9794 25.7897V33.8037ZM34.844 23.1694H30.1555C29.1131 23.1694 28.265 24.0178 28.265 25.0609V27.4067C28.265 29.7431 30.1648 31.6438 32.4997 31.6438C34.8346 31.6438 36.7343 29.7431 36.7343 27.4067V25.0609C36.7346 24.0178 35.8865 23.1694 34.844 23.1694ZM34.7142 27.4065C34.7142 28.6282 33.7209 29.6222 32.4998 29.6222C31.2787 29.6222 30.2854 28.6283 30.2854 27.4065V25.1908H34.714V27.4065H34.7142ZM43.8177 23.0218C43.2597 23.0218 42.8076 23.4743 42.8076 24.0325V25.944C42.8076 26.5023 43.2597 26.9548 43.8177 26.9548C44.3757 26.9548 44.8279 26.5023 44.8279 25.944V24.0325C44.828 23.4743 44.3757 23.0218 43.8177 23.0218Z" transform="translate(0.500031 0.980377)" fill="black"/>
</svg>
