<svg width="23" height="14" viewBox="0 0 23 14" fill="none" xmlns="http://www.w3.org/2000/svg">
<path d="M22.6497 0.206211C22.2461 -0.117319 21.656 -0.0531271 21.3317 0.349416L9.8574 11.8338C9.68809 12.0145 9.45925 12.1191 9.21067 12.129C8.95478 12.1393 8.71244 12.0482 8.52991 11.8751L1.58622 5.23663C1.21239 4.8793 0.619002 4.89188 0.26069 5.26464C-0.0975756 5.63744 -0.0850131 6.22934 0.288768 6.58672L7.23522 13.2279C7.76303 13.7283 8.446 14 9.16966 14C9.20833 14 9.24723 13.9992 9.28609 13.9976C10.0526 13.9669 10.7566 13.636 11.2683 13.066C11.2795 13.0536 11.2902 13.0409 11.3007 13.028L22.7933 1.52081C23.1176 1.11822 23.0533 0.529695 22.6497 0.206211Z" fill="#00DEB7"/>
</svg>
