<svg width="29" height="35" viewBox="0 0 29 35" fill="none" xmlns="http://www.w3.org/2000/svg">
  <path d="M11.0726 -7.9274e-08H1.36793C0.612397 -7.9274e-08 3.00525e-07 0.612157 3.00525e-07 1.36739C3.00525e-07 2.12262 0.612397 2.73478 1.36793 2.73478H11.0726C11.8281 2.73478 12.4405 2.12262 12.4405 1.36739C12.4405 0.612157 11.8281 -7.9274e-08 11.0726 -7.9274e-08Z" transform="translate(11.0118 7.3839)" fill="#6526B8"/>
  <path d="M11.0726 -4.92333e-07H1.36793C0.612397 -4.92333e-07 3.00525e-07 0.612157 3.00525e-07 1.36739C3.00525e-07 2.12262 0.612397 2.73478 1.36793 2.73478H11.0726C11.8281 2.73478 12.4405 2.12262 12.4405 1.36739C12.4405 0.612157 11.8281 -4.92333e-07 11.0726 -4.92333e-07Z" transform="translate(11.0118 12.8534)" fill="#6526B8"/>
  <path d="M5.54009 1.00136e-07H1.36793C0.612397 1.00136e-07 3.00525e-07 0.612156 3.00525e-07 1.36739C3.00525e-07 2.12262 0.612397 2.73478 1.36793 2.73478H5.54009C6.29562 2.73478 6.90802 2.12262 6.90802 1.36739C6.90802 0.612156 6.29562 1.00136e-07 5.54009 1.00136e-07Z" transform="translate(11.0118 18.3229)" fill="#6526B8"/>
  <path d="M27.6321 18.5964C28.3876 18.5964 29 17.9842 29 17.229V5.46956C29 2.45362 26.5454 0 23.5283 0H10.9434C7.928 0 5.47451 2.45088 5.47171 5.4645C2.45465 5.4645 -1.02262e-07 7.91812 -1.02262e-07 10.9341V29.5304C-1.02262e-07 32.5463 2.45458 35 5.47171 35H18.7405C21.7576 35 24.2122 32.5464 24.2122 29.5304V29.4889C26.9076 29.1513 28.9999 26.846 28.9999 24.0619C28.9999 23.3067 28.3875 22.6945 27.632 22.6945C26.8765 22.6945 26.2641 23.3067 26.2641 24.0619C26.2641 25.5695 25.0371 26.7963 23.5289 26.7967L10.944 26.7998H10.9434C10.2127 26.7998 9.52577 26.5154 9.00911 25.9989C8.49225 25.4824 8.20756 24.7955 8.20756 24.065V5.46956C8.20756 3.96162 9.43488 2.73478 10.9434 2.73478H23.5284C25.0369 2.73478 26.2642 3.96162 26.2642 5.46956V17.2291C26.2641 17.9842 26.8765 18.5964 27.6321 18.5964ZM10.9434 29.5344H10.9448L21.4764 29.5318C21.4756 31.0391 20.2486 32.2651 18.7405 32.2651H5.47177C3.96325 32.2651 2.73592 31.0382 2.73592 29.5303V10.9339C2.73592 9.42599 3.96325 8.19914 5.47177 8.19914V24.0649C5.47177 25.5261 6.04109 26.8998 7.07481 27.9329C8.10833 28.9658 9.482 29.5344 10.9434 29.5344Z" fill="#6526B8"/>
</svg>