<svg width="24" height="24" viewBox="0 0 24 24" fill="none" xmlns="http://www.w3.org/2000/svg">
  <circle cx="12" cy="12" r="12" fill="#00DEB7"/>
  <path d="M13.6497 0.206211C13.2461 -0.117319 12.656 -0.0531271 12.3317 0.349416L4.8574 6.83384C4.68809 7.01445 4.45925 7.11908 4.21067 7.12904C3.95478 7.13933 3.71244 7.04816 3.52991 6.87513L1.58622 4.23663C1.21239 3.8793 0.619002 3.89188 0.26069 4.26464C-0.0975755 4.63744 -0.0850131 5.22934 0.288768 5.58672L2.23522 8.22787C2.76303 8.72827 3.446 9 4.16966 9C4.20833 9 4.24723 8.99921 4.28609 8.99762C5.05259 8.9669 5.75661 8.63603 6.26834 8.06602C6.27945 8.05363 6.29023 8.04091 6.30073 8.02796L13.7933 1.52081C14.1176 1.11822 14.0533 0.529695 13.6497 0.206211Z" transform="translate(5.32544 7.74976)" fill="white"/>
</svg>