<svg width="18" height="16" viewBox="0 0 18 16" fill="none" xmlns="http://www.w3.org/2000/svg">
<path id="Vector" d="M16.5821 1.4243C15.6978 0.505835 14.4784 3.19102e-08 13.1484 3.19102e-08C10.8233 3.19102e-08 9.62118 1.227 9.02211 2.2563C9.01466 2.26906 9.00728 2.28186 9 2.29463C8.99272 2.28186 8.98534 2.26906 8.97789 2.2563C8.37882 1.227 7.17666 3.19102e-08 4.85156 3.19102e-08C3.52164 3.19102e-08 2.30221 0.505835 1.41785 1.42433C0.490289 2.38772 0 3.70649 0 5.23805C0 8.49026 2.81886 10.6465 5.30585 12.549C6.54507 13.4969 7.71557 14.3923 8.45227 15.331C8.58572 15.5011 8.78713 15.6 9 15.6C9.21287 15.6 9.41428 15.5011 9.54777 15.3311C9.92668 14.8482 10.4534 14.3348 11.2055 13.7153C11.5082 13.4659 11.5565 13.012 11.3133 12.7015C11.0702 12.3911 10.6276 12.3414 10.3248 12.5908C9.79425 13.0279 9.36028 13.4232 9.00032 13.7988C8.2055 12.9678 7.19951 12.1983 6.14661 11.3929C3.81611 9.61017 1.40625 7.76672 1.40625 5.23805C1.40625 3.00313 2.82301 1.44225 4.85156 1.44225C6.17059 1.44225 7.14456 1.95119 7.74633 2.95489C8.2241 3.75163 8.29842 4.58096 8.29891 4.58608C8.32711 4.96175 8.63248 5.25341 8.99982 5.25341C9.36724 5.25341 9.67257 4.96492 9.70077 4.58925C9.70151 4.58096 9.77583 3.75163 10.2536 2.95489C10.8554 1.95119 11.8294 1.44225 13.1484 1.44225C15.177 1.44225 16.5938 3.00313 16.5938 5.23805C16.5938 7.33069 14.9325 8.95316 13.1374 10.3947C12.8316 10.6402 12.7778 11.0935 13.0172 11.4071C13.2565 11.7206 13.6985 11.7758 14.0043 11.5303C14.8583 10.8445 15.9406 9.91784 16.7368 8.82963C17.5868 7.66778 18 6.49296 18 5.23805C18 3.70649 17.5097 2.38772 16.5821 1.4243Z" transform="translate(18) scale(-1 1)" fill="#F2C94C"/>
</svg>
