<svg width="59" height="80" viewBox="0 0 59 80" fill="none" xmlns="http://www.w3.org/2000/svg">
  <path d="M6.1426 12.3228C9.53507 12.3228 12.2852 9.56426 12.2852 6.16141C12.2852 2.75856 9.53507 0 6.1426 0C2.75014 0 0 2.75856 0 6.16141C0 9.56426 2.75014 12.3228 6.1426 12.3228Z" transform="translate(23.3574 66.5058)" fill="#495059"/>
  <path opacity="0.1" d="M0.00507411 4.72312C0.126733 7.76984 2.50632 10.3011 5.53143 10.6009C6.30796 10.678 7.05661 10.6056 7.75665 10.4148C6.30438 10.0016 4.94479 9.04313 4.22466 7.95563C3.77946 7.28328 4.28276 6.38328 5.08764 6.38328H11.9818C12.178 5.78078 12.2853 5.13812 12.2853 4.47C12.2853 2.70953 11.548 1.12281 10.3679 -1.33514e-06C7.40056 0.0403112 4.24257 0.0829681 1.79678 0.115937C0.631593 1.28578 -0.0668931 2.92297 0.00507411 4.72312Z" transform="translate(23.3575 68.1969)" fill="black"/>
  <path d="M20.028 0.00219523C9.11575 0.160945 0.203189 9.06501 0.00348837 20.0099C-0.0675442 23.9024 0.949342 27.5513 2.76924 30.6717C6.37866 36.8603 8.33408 43.8781 8.33408 51.0478V51.1456H32.3255V51.0489C32.3255 43.8502 34.3345 36.8272 37.9327 30.5986C39.6667 27.5969 40.6595 24.1108 40.6595 20.3919C40.6595 9.02907 31.394 -0.163117 20.028 0.00219523Z" transform="translate(9.17032 9.19827)" fill="#FDE27C"/>
  <path d="M13.8195 22.0047C13.1743 22.0047 12.6512 21.48 12.6512 20.8328V17.1369C12.6512 12.2761 13.7366 7.38218 15.7908 2.97969L13.4028 4.30625C12.4714 4.82391 11.2983 4.60578 10.6135 3.78766L9.57843 2.5514C9.42733 2.37094 9.23557 2.3439 9.13463 2.3439C9.03369 2.3439 8.84209 2.37078 8.69099 2.55125L7.65572 3.78766C6.9711 4.60563 5.79813 4.82359 4.86645 4.30609L2.47844 2.97953C4.53278 7.38203 5.61805 12.2759 5.61805 17.1367V20.8327C5.61805 21.4798 5.09497 22.0045 4.44975 22.0045C3.80454 22.0045 3.28145 21.4798 3.28145 20.8327V17.1367C3.28145 12.6008 2.26472 8.03344 0.341394 3.92844L0.218178 3.66531C-0.200384 2.77234 -0.0064484 1.75969 0.711821 1.08547C1.43009 0.411406 2.45041 0.28453 3.3109 0.762655L5.92243 2.21344L6.90162 1.04391C7.45695 0.38047 8.27087 -9.34601e-07 9.13463 -9.34601e-07C9.99839 -9.34601e-07 10.8123 0.380466 11.3676 1.04406L12.3468 2.21344L14.9584 0.762655C15.819 0.284842 16.8392 0.411406 17.5574 1.08547C18.2757 1.75969 18.4695 2.77234 18.0511 3.66531L17.9279 3.92828C16.0044 8.03328 14.9876 12.6006 14.9876 17.1366V20.8325C14.9878 21.48 14.4647 22.0047 13.8195 22.0047Z" transform="translate(20.3652 39.5112)" fill="white"/>
  <path d="M19.1398 12.3228H4.85155C2.1721 12.3228 6.8455e-07 10.1441 6.8455e-07 7.45641V-1.75476e-06H23.9914V7.45641C23.9915 10.1441 21.8193 12.3228 19.1398 12.3228Z" transform="translate(17.5042 60.3439)" fill="#55A6B5"/>
  <path opacity="0.1" d="M23.9906 0H0V2.34375H23.9906V0Z" transform="translate(17.5039 65.3328)" fill="black"/>
  <path d="M3.57624 5.76156C5.55134 5.76156 7.15248 4.47179 7.15248 2.88078C7.15248 1.28977 5.55134 0 3.57624 0C1.60114 0 0 1.28977 0 2.88078C0 4.47179 1.60114 5.76156 3.57624 5.76156Z" transform="translate(16.2316 28.1833)" fill="#EC7887"/>
  <path d="M3.57624 5.76156C5.55134 5.76156 7.15248 4.47179 7.15248 2.88078C7.15248 1.28977 5.55134 0 3.57624 0C1.60114 0 0 1.28977 0 2.88078C0 4.47179 1.60114 5.76156 3.57624 5.76156Z" transform="translate(35.6161 28.1833)" fill="#EC7887"/>
  <path d="M2.59113 5.24187C1.1602 5.24187 -4.18336e-07 4.07828 -4.18336e-07 2.64297V0.709532C-4.18336e-07 0.317657 0.316686 6.86645e-07 0.707365 6.86645e-07H4.47489C4.86557 6.86645e-07 5.18226 0.317657 5.18226 0.709532V2.64297C5.18226 4.07828 4.02206 5.24187 2.59113 5.24187Z" transform="translate(26.9088 26.2292)" fill="#495059"/>
  <path opacity="0.1" d="M18.7551 49.4208C18.5357 41.4917 17.3681 32.8528 11.8376 25.9075C7.09132 19.947 3.11817 8.69266 12.1703 -5.34058e-07C5.13185 3.11891 0.152096 10.1356 0.00348836 18.285C-0.0675442 22.1775 0.949342 25.8264 2.76924 28.9469C6.37866 35.1355 8.33408 42.1533 8.33408 49.323V49.4208H18.7551Z" transform="translate(9.17032 10.9233)" fill="black"/>
  <path opacity="0.1" d="M-5.89473e-07 -6.48499e-07V7.45641C-5.89473e-07 10.1441 2.1721 12.3228 4.85155 12.3228H15.0639C9.77601 9.54594 10.4211 2.42703 10.4211 -6.48499e-07H-5.89473e-07Z" transform="translate(17.5044 60.3441)" fill="black"/>
  <path d="M10.7915 12.4819C11.0195 12.7106 11.3186 12.8252 11.6176 12.8252C11.9165 12.8252 12.2156 12.7108 12.4436 12.4819C12.8999 12.0242 12.8999 11.2822 12.4436 10.8247L10.2924 8.66703C9.83614 8.20938 9.09637 8.20938 8.64027 8.66703C8.18401 9.12469 8.18401 9.86672 8.64027 10.3242L10.7915 12.4819ZM4.21055 28.4184H1.1683C0.523086 28.4184 2.56706e-07 28.9431 2.56706e-07 29.5903C2.56706e-07 30.2375 0.523086 30.7622 1.1683 30.7622H4.21055C4.85576 30.7622 5.37885 30.2375 5.37885 29.5903C5.37885 28.9431 4.85576 28.4184 4.21055 28.4184ZM19.2372 26.1094V27.6622C19.2372 28.3094 19.7603 28.8341 20.4055 28.8341C21.0507 28.8341 21.5738 28.3094 21.5738 27.6622V26.1094C21.5738 25.4622 21.0507 24.9375 20.4055 24.9375C19.7603 24.9375 19.2372 25.4622 19.2372 26.1094ZM10.7915 46.6988L8.64027 48.8566C8.18401 49.3142 8.18401 50.0562 8.64027 50.5137C8.86832 50.7425 9.1674 50.857 9.46633 50.857C9.76526 50.857 10.0643 50.7427 10.2924 50.5137L12.4436 48.3559C12.8999 47.8983 12.8999 47.1562 12.4436 46.6988C11.9875 46.2411 11.2478 46.2411 10.7915 46.6988ZM47.3823 12.8252C47.6812 12.8252 47.9803 12.7108 48.2083 12.4819L50.3596 10.3241C50.8158 9.86641 50.8158 9.12437 50.3596 8.66687C49.9033 8.20922 49.1635 8.20922 48.7074 8.66687L46.5562 10.8245C46.1 11.2822 46.1 12.0242 46.5562 12.4817C46.7843 12.7106 47.0834 12.8252 47.3823 12.8252ZM29.5 5.39531C30.1452 5.39531 30.6683 4.87063 30.6683 4.22344V1.17188C30.6683 0.524687 30.1452 0 29.5 0C28.8548 0 28.3317 0.524687 28.3317 1.17188V4.22344C28.3317 4.87063 28.8548 5.39531 29.5 5.39531ZM57.8317 28.4184H54.7894C54.1442 28.4184 53.6212 28.9431 53.6212 29.5903C53.6212 30.2375 54.1442 30.7622 54.7894 30.7622H57.8317C58.4769 30.7622 59 30.2375 59 29.5903C59 28.9431 58.4769 28.4184 57.8317 28.4184ZM27.6162 25.0573C26.5819 25.0573 25.7406 25.9012 25.7406 26.9386V28.872C25.7406 30.9513 27.427 32.6428 29.5 32.6428C31.573 32.6428 33.2594 30.9513 33.2594 28.872V26.9386C33.2594 25.9012 32.4181 25.0573 31.3838 25.0573H27.6162ZM30.9228 28.872C30.9228 29.6589 30.2846 30.2991 29.5 30.2991C28.7154 30.2991 28.0772 29.6589 28.0772 28.872V27.4011H30.9228V28.872ZM48.2085 46.6988C47.7522 46.2411 47.0125 46.2411 46.5564 46.6988C46.1001 47.1564 46.1001 47.8984 46.5564 48.3559L48.7076 50.5137C48.9356 50.7425 49.2347 50.857 49.5337 50.857C49.8326 50.857 50.1317 50.7427 50.3597 50.5137C50.816 50.0561 50.816 49.3141 50.3597 48.8566L48.2085 46.6988ZM48.9981 23.6802C48.3707 23.8311 47.9839 24.4636 48.1344 25.0928C48.4842 26.5566 48.6615 28.0697 48.6615 29.5902C48.6615 32.9734 47.773 36.2997 46.0922 39.2094C42.5077 45.4142 40.5306 52.2934 40.3435 59.172H18.6569C18.4727 52.2403 16.5091 45.3844 12.9479 39.2783C11.1784 36.2444 10.2771 32.7695 10.3418 29.2295C10.4329 24.242 12.4399 19.5398 15.9932 15.9897C19.5466 12.4395 24.2422 10.4445 29.2151 10.3722C36.355 10.2673 42.9104 14.1094 46.3311 20.3962C46.6403 20.9644 47.35 21.1734 47.9164 20.8634C48.4828 20.5533 48.6914 19.8414 48.3822 19.2733C44.5447 12.2209 37.1915 7.90672 29.1811 8.02859C23.5987 8.10984 18.3294 10.3473 14.3441 14.3291C10.3588 18.3109 8.10752 23.5875 8.00549 29.1866C7.93306 33.157 8.94465 37.0559 10.9309 40.4616C14.467 46.5242 16.3359 53.3656 16.3359 60.2459V67.8002C16.3359 71.1052 18.9972 73.7972 22.2829 73.8366C22.3988 74.5642 22.6217 75.2673 22.9543 75.9361C23.1588 76.3473 23.5716 76.5852 24.0006 76.5852C24.1757 76.5852 24.3537 76.5455 24.521 76.4617C25.0985 76.1728 25.3331 75.4692 25.045 74.89C24.8768 74.5517 24.7499 74.2002 24.6631 73.8384H34.334C33.8073 76.0261 31.8405 77.6562 29.5 77.6562C29.042 77.6562 28.589 77.5942 28.1533 77.4716C27.5326 77.297 26.8872 77.6603 26.7131 78.2834C26.5388 78.9066 26.9012 79.5534 27.5225 79.7281C28.1635 79.9086 28.8288 80 29.5 80C33.1342 80 36.1563 77.3261 36.7167 73.8369C40.0025 73.7975 42.6639 71.1056 42.6639 67.8005V60.2473C42.6639 53.4245 44.5485 46.5561 48.1138 40.3845C50.0007 37.1183 50.9981 33.3858 50.9981 29.5903C50.9981 27.8861 50.799 26.1891 50.4066 24.5467C50.2561 23.9172 49.625 23.5298 48.9981 23.6802ZM40.3273 67.8003C40.3273 69.8375 38.675 71.4948 36.6441 71.4948H22.3558C20.3248 71.4948 18.6725 69.8375 18.6725 67.8003V61.5158H40.3273V67.8003ZM37.4262 26.1094V27.6622C37.4262 28.3094 37.9493 28.8341 38.5945 28.8341C39.2397 28.8341 39.7628 28.3094 39.7628 27.6622V26.1094C39.7628 25.4622 39.2397 24.9375 38.5945 24.9375C37.9493 24.9375 37.4262 25.4622 37.4262 26.1094Z" fill="black"/>
</svg>