<svg width="18" height="18" viewBox="0 0 18 18" fill="none" xmlns="http://www.w3.org/2000/svg">
<path d="M17.3792 1.61354L16.3767 0.615207C15.5518 -0.206292 14.211 -0.204816 13.3883 0.618125L11.2157 2.78773L6.16283 4.00973C4.71146 4.36073 3.54212 5.46531 3.11113 6.89238L0.029994 17.0939C-0.0449255 17.342 0.0229141 17.6111 0.206567 17.7942C0.340626 17.9279 0.52051 18 0.704586 18C0.772637 18 0.841287 17.9902 0.908387 17.9699L11.0928 14.8967C12.5235 14.465 13.6296 13.2957 13.9792 11.8453L14.4462 9.90799C14.5373 9.53041 14.3044 9.15068 13.9261 9.05984C13.5477 8.96913 13.1674 9.20145 13.0763 9.57903L12.6094 11.5163C12.3762 12.4833 11.6389 13.2628 10.685 13.5506L3.18929 15.8124L6.25078 12.7557C6.49519 12.6999 6.92639 12.5967 7.39148 12.4627C8.75648 12.0694 9.17933 11.7717 9.39518 11.5562C10.2055 10.7474 10.2055 9.43141 9.39518 8.62267C8.58487 7.81393 7.26636 7.8139 6.45609 8.62267C6.24025 8.83811 5.94187 9.26016 5.54783 10.6226C5.41349 11.0871 5.31 11.5178 5.25418 11.7616L2.1873 14.8238L4.46018 7.29826C4.74749 6.34689 5.52708 5.61051 6.49463 5.37647L11.3788 4.19525L14.0851 6.89512C14.2172 7.02692 14.3964 7.10093 14.5832 7.10093H14.5834C14.7702 7.10089 14.9494 7.02675 15.0815 6.89484L17.3826 4.59688C17.7814 4.19799 18.0006 3.66805 18 3.10452C17.9993 2.54104 17.7789 2.01151 17.3792 1.61354ZM7.45294 9.61647C7.71394 9.35659 8.13814 9.35677 8.39886 9.61703C8.65979 9.87747 8.65979 10.3013 8.39974 10.5609C8.24645 10.7045 7.62014 10.9387 6.86045 11.1526C7.0745 10.3948 7.30898 9.7701 7.45294 9.61647ZM16.3855 3.60315L14.5828 5.40333L12.5847 3.40986L14.3852 1.61175C14.6596 1.33732 15.1065 1.33683 15.3815 1.61066L16.384 2.609C16.5172 2.74164 16.5907 2.91816 16.5909 3.106C16.5911 3.29384 16.5181 3.47057 16.3855 3.60315Z" fill="#646464"/>
</svg>
