<svg width="20" height="15" viewBox="0 0 20 15" fill="none" xmlns="http://www.w3.org/2000/svg">
    <path d="M16 1.77777C16 0.795976 15.204 5.72205e-08 14.2222 5.72205e-08H1.77777C0.796016 5.72205e-08 0 0.795976 0 1.77777V9.77777C0 10.7596 0.796016 11.5555 1.77777 11.5555H14.2222C15.204 11.5555 16 10.7595 16 9.77777V1.77777Z" transform="translate(0 14.4445) scale(1.25 -1.25)" fill="#EEEEEE"/>
    <path d="M6.22219 3.11109C6.22219 1.39289 4.8293 -9.53674e-09 3.11109 -9.53674e-09C1.39289 -9.53674e-09 -6.91414e-08 1.39289 -6.91414e-08 3.11109C-6.91414e-08 4.8293 1.39289 6.22219 3.11109 6.22219C4.8293 6.22219 6.22219 4.8293 6.22219 3.11109Z" transform="translate(6.11115 11.1111) scale(1.25 -1.25)" fill="#ED1B2F"/>
</svg>
