<svg width="13" height="16" viewBox="0 0 13 16" fill="none" xmlns="http://www.w3.org/2000/svg">
  <path d="M3.96347 0C1.77801 0 0 1.75234 0 3.90625C0 6.06016 1.77801 7.8125 3.96347 7.8125C4.33258 7.8125 4.6983 7.76241 5.05048 7.66359C5.38734 7.56912 5.58266 7.22337 5.48681 6.89137C5.39089 6.55941 5.04014 6.36684 4.70325 6.46138C4.46404 6.52847 4.21514 6.5625 3.96347 6.5625C2.47736 6.5625 1.26831 5.37091 1.26831 3.90625C1.26831 2.44159 2.47736 1.25 3.96347 1.25C5.44958 1.25 6.65863 2.44159 6.65863 3.90625C6.65863 4.16684 6.62059 4.42406 6.54553 4.67072C6.44492 5.00134 6.63533 5.34975 6.9708 5.44891C7.3063 5.548 7.65974 5.36044 7.76039 5.02978C7.87089 4.66656 7.92695 4.28856 7.92695 3.90625C7.92695 1.75234 6.14893 0 3.96347 0Z" transform="translate(2.5365 2.5)" fill="#646464"/>
  <path d="M11.0937 1.87388C9.86632 0.6655 8.23489 0 6.5 0C4.76508 0 3.13368 0.6655 1.90627 1.87391C0.67899 3.08222 0.00199754 4.68916 -5.22528e-08 6.40009C0.00123655 7.64556 0.352242 8.81406 1.07302 9.97244C1.69719 10.9755 2.50805 11.8507 3.36651 12.7772C4.20826 13.6857 5.0786 14.6251 5.7737 15.7089C5.88991 15.8901 6.09227 16 6.30975 16H6.69025C6.90773 16 7.11009 15.8901 7.2263 15.7089C7.9214 14.6251 8.79174 13.6857 9.63349 12.7772C10.4919 11.8507 11.3028 10.9755 11.927 9.97241C12.6478 8.81403 12.9988 7.6455 13 6.39872C12.998 4.68913 12.321 3.08219 11.0937 1.87388ZM8.69691 11.9343C7.94848 12.7421 7.17839 13.5733 6.5 14.5293C5.82164 13.5733 5.05153 12.7421 4.30309 11.9343C2.67588 10.1781 1.27053 8.66125 1.26831 6.40019C1.27161 3.56037 3.61856 1.25 6.5 1.25C9.38144 1.25 11.7284 3.56037 11.7317 6.39884C11.7295 8.66125 10.3241 10.178 8.69691 11.9343Z" fill="#646464"/>
</svg>