<svg width="67" height="80" viewBox="0 0 67 80" fill="none" xmlns="http://www.w3.org/2000/svg">
  <path d="M53.361 0H0V12.353H53.361V0Z" transform="translate(6.81955 2.12305)" fill="#609AD6"/>
  <path d="M7.06018 0H5.31603C2.44409 0 0.108157 2.33559 0.0804942 5.23483L0.000408111 13.615C-0.0222115 15.974 0.896177 18.2431 2.54848 19.9112L32.1882 49.8343L32.3537 32.5312L7.9182 7.86204C5.84361 5.76777 5.48705 2.50023 7.06018 0Z" transform="translate(1.14635 2.12305)" fill="#5B6EA2"/>
  <path d="M32.2526 34.3294L2.18448 3.97376C1.10561 2.88458 0.367416 1.49251 0.0467676 2.82526e-08L2.7985e-08 4.88334C0.19349 5.11787 0.39615 5.34546 0.610884 5.56225L31.3788 36.6244C31.596 36.8438 31.8809 36.9533 32.1656 36.9533C32.1862 36.9533 32.2069 36.9515 32.2275 36.9504L32.2526 34.3294Z" transform="translate(1.16891 8.53917)" fill="#EEF0F1"/>
  <path d="M25.2935 0H27.0375C29.9094 0 32.2454 2.33559 32.273 5.23483L32.3531 13.615C32.3758 15.974 31.4574 18.2431 29.8051 19.9112L0.165522 49.8343L0 32.5312L24.4355 7.86204C26.5101 5.76777 26.8666 2.50023 25.2935 0Z" transform="translate(33.5 2.12305)" fill="#5B6EA2"/>
  <path d="M32.2526 4.88334L32.2058 2.82526e-08C31.885 1.49236 31.1468 2.88458 30.0681 3.97376L1.15671e-06 34.3294L0.0250664 36.9506C0.0456992 36.9518 0.0663318 36.9535 0.0869646 36.9535C0.371697 36.9535 0.656426 36.8438 0.873758 36.6245L31.6417 5.5624C31.8564 5.34546 32.0592 5.11803 32.2526 4.88334Z" transform="translate(33.5786 8.53917)" fill="#EEF0F1"/>
  <path opacity="0.1" d="M6.46035 3.76701e-07L0 6.52213L0.165522 23.8253L17.9803 5.84014C14.6957 3.06048 10.7708 1.02762 6.46035 3.76701e-07Z" transform="translate(33.5 28.1321)" fill="black"/>
  <path opacity="0.1" d="M11.52 3.76701e-07C7.20971 1.02746 3.28459 3.06048 -6.52984e-07 5.84014L17.8148 23.8253L17.9803 6.52213L11.52 3.76701e-07Z" transform="translate(15.5197 28.1321)" fill="black"/>
  <path d="M22.9391 46.3168C35.608 46.3168 45.8782 35.9485 45.8782 23.1584C45.8782 10.3684 35.608 0 22.9391 0C10.2702 0 0 10.3684 0 23.1584C0 35.9485 10.2702 46.3168 22.9391 46.3168Z" transform="translate(10.561 32.4918)" fill="#F7B96D"/>
  <path d="M17.2658 34.8618C26.8015 34.8618 34.5316 27.0577 34.5316 17.4309C34.5316 7.80409 26.8015 0 17.2658 0C7.73017 0 0 7.80409 0 17.4309C0 27.0577 7.73017 34.8618 17.2658 34.8618Z" transform="translate(16.2342 38.2193)" fill="#FDE27C"/>
  <path d="M3.78237 6.08177C5.87132 6.08177 7.56474 4.72031 7.56474 3.04088C7.56474 1.36145 5.87132 1.99652e-06 3.78237 1.99652e-06C1.69342 1.99652e-06 0 1.36145 0 3.04088C0 4.72031 1.69342 6.08177 3.78237 6.08177Z" transform="translate(19.467 51.4644)" fill="#EC7887"/>
  <path d="M3.78237 6.08177C5.87132 6.08177 7.56474 4.72031 7.56474 3.04088C7.56474 1.36145 5.87132 1.99652e-06 3.78237 1.99652e-06C1.69343 1.99652e-06 0 1.36145 0 3.04088C0 4.72031 1.69343 6.08177 3.78237 6.08177Z" transform="translate(39.9683 51.4644)" fill="#EC7887"/>
  <g opacity="0.1">
  <path opacity="0.1" d="M10.2109 2.31445H1.14627C0.513222 2.31445 1.86567e-07 1.79632 1.86567e-07 1.15722C1.86567e-07 0.518127 0.513222 -1.95885e-06 1.14627 -1.95885e-06H10.2109C10.844 -1.95885e-06 11.3572 0.518127 11.3572 1.15722C11.3572 1.79632 10.844 2.31445 10.2109 2.31445Z" transform="translate(27.8214 59.5851)" fill="black"/>
  <path opacity="0.1" d="M5.84382 2.31445H1.14627C0.513222 2.31445 5.78357e-07 1.79633 5.78357e-07 1.15723C5.78357e-07 0.51813 0.513222 1.24311e-06 1.14627 1.24311e-06H5.84382C6.47686 1.24311e-06 6.99009 0.51813 6.99009 1.15723C6.99009 1.79633 6.47686 2.31445 5.84382 2.31445Z" transform="translate(30.005 64.0195)" fill="black"/>
  </g>
  <path opacity="0.1" d="M40.9931 37.3056C12.0104 42.4941 3.20832 16.2971 20.4003 9.41753e-08C8.9262 1.27573 -4.38432e-07 11.0932 -4.38432e-07 23.0169C-4.38432e-07 35.8072 10.2704 46.1757 22.9394 46.1757C30.2678 46.1757 36.7935 42.7061 40.9931 37.3056Z" transform="translate(10.5607 32.6329)" fill="black"/>
  <path d="M6.71494 11.201C6.35578 11.9516 5.29678 11.9516 4.93762 11.201C4.01373 9.27027 2.47009 7.71172 0.557657 6.77915C-0.185888 6.41655 -0.185888 5.34743 0.557657 4.98483C2.47009 4.05226 4.01388 2.49371 4.93762 0.56299C5.29678 -0.187664 6.35578 -0.187664 6.71494 0.56299C7.63883 2.49371 9.18247 4.05226 11.0949 4.98483C11.8384 5.34743 11.8384 6.41655 11.0949 6.77915C9.18247 7.71188 7.63883 9.27027 6.71494 11.201Z" transform="translate(49.677 37.1221)" fill="#FDE27C"/>
  <path d="M5.43938 9.07324C5.14838 9.68132 4.29051 9.68132 3.99967 9.07324C3.25138 7.50928 2.00088 6.24682 0.451744 5.49138C-0.150581 5.1976 -0.150581 4.33154 0.451744 4.03791C2.00088 3.28247 3.25138 2.02002 3.99967 0.456065C4.29066 -0.152019 5.14853 -0.152019 5.43938 0.456065C6.18766 2.02002 7.43816 3.28247 8.9873 4.03791C9.58962 4.33169 9.58962 5.19776 8.9873 5.49138C7.43816 6.24682 6.18766 7.50928 5.43938 9.07324Z" transform="translate(4.76276 41.9348)" fill="#FDE27C"/>
  <path d="M5.38271 8.97869C5.09477 9.58045 4.24592 9.58045 3.95798 8.97869C3.21749 7.43094 1.98014 6.18175 0.447045 5.43418C-0.149014 5.14348 -0.149014 4.28652 0.447045 3.99583C1.98014 3.24826 3.21749 1.99907 3.95798 0.45132C4.24592 -0.150438 5.09477 -0.150438 5.38271 0.45132C6.1232 1.99892 7.36056 3.24826 8.89365 3.99583C9.48971 4.28652 9.48971 5.14348 8.89365 5.43418C7.36071 6.18175 6.12335 7.43094 5.38271 8.97869Z" transform="translate(19.627 64.3092)" fill="white"/>
  <path d="M66.9995 14.7611L66.9195 6.38095C66.8857 2.86252 64.0228 0 60.5377 0H18.3569C17.7239 0 17.2106 0.518129 17.2106 1.15723C17.2106 1.79632 17.7239 2.31445 18.3569 2.31445H58.1209C59.0605 4.27834 58.6873 6.62366 57.1249 8.20103L53.0119 12.3533H13.988L9.875 8.20103C8.31256 6.62366 7.93933 4.27834 8.87897 2.31445H12.94C13.573 2.31445 14.0862 1.79632 14.0862 1.15723C14.0862 0.518129 13.573 0 12.94 0H6.46233C2.97723 0 0.114312 2.86236 0.080535 6.38095L0.000448881 14.7611C-0.0249218 17.4138 1.02613 20.0109 2.8843 21.8869L17.4316 36.5733C15.4772 38.3411 13.8188 40.4205 12.5233 42.7347C11.997 42.2113 11.558 41.5986 11.2342 40.9217C10.9066 40.2371 10.2352 39.8118 9.48221 39.8118C8.72904 39.8118 8.05778 40.2371 7.73026 40.9217C7.09706 42.2449 6.0266 43.3258 4.71588 43.9649C4.03775 44.2957 3.61654 44.9734 3.61654 45.7337C3.61654 46.494 4.03775 47.1718 4.71588 47.5025C6.0266 48.1417 7.09721 49.2224 7.73026 50.5457C8.05778 51.2304 8.72919 51.6557 9.48221 51.6557C9.52332 51.6557 9.56413 51.6538 9.60478 51.6513C9.48068 52.6547 9.41435 53.6671 9.41435 54.6842C9.41435 68.0918 20.2191 79 33.5 79C46.7809 79 57.5857 68.0918 57.5857 54.684C57.5857 52.6276 57.3286 50.5916 56.8254 48.6157C57.0732 48.4176 57.2795 48.1627 57.4241 47.8607C58.232 46.1723 59.598 44.7932 61.2705 43.9775C62.0141 43.6149 62.4758 42.8718 62.4758 42.0383C62.4758 41.2048 62.0139 40.4617 61.2705 40.0991C59.598 39.2835 58.232 37.9044 57.4241 36.2159C57.0649 35.4653 56.3289 34.9992 55.5033 34.9992C54.6777 34.9992 53.9416 35.4653 53.5824 36.2159C53.1212 37.1801 52.4771 38.0428 51.6986 38.758C51.0304 37.9789 50.3209 37.2476 49.5729 36.5687L64.1157 21.8869C65.9739 20.0109 67.0249 17.4136 66.9995 14.7611ZM50.7195 14.6678L35.1129 30.4236C34.5784 30.3882 34.0409 30.3681 33.5 30.3681C32.9603 30.3681 32.4227 30.3878 31.8873 30.4238L16.2805 14.6678H50.7195ZM4.50528 20.2502C3.07978 18.8111 2.27342 16.8185 2.29283 14.7833L2.37291 6.40332C2.39446 4.16447 4.20373 2.34007 6.41587 2.31476C5.59728 4.92423 6.25188 7.81653 8.25402 9.83766L12.7023 14.3285L12.7031 14.3292L29.012 30.7941C26.0251 31.3633 23.166 32.4972 20.5813 34.1589C20.1151 34.4585 19.6604 34.7737 19.2177 35.1033L4.50528 20.2502ZM10.7284 47.28C10.6763 47.3267 10.6282 47.3782 10.5848 47.4346C10.1672 47.8973 9.79506 48.4022 9.48206 48.9456C8.71727 47.6182 7.61548 46.5057 6.30048 45.7336C7.61548 44.9616 8.71727 43.8492 9.48206 42.5216C10.1602 43.6987 11.1043 44.7055 12.2259 45.4569C12.2594 45.4809 12.2945 45.5029 12.3311 45.5234C12.441 45.5949 12.5504 45.6671 12.6635 45.7336C11.9478 46.1539 11.298 46.678 10.7284 47.28ZM52.1432 41.3508C52.1774 41.329 52.2109 41.3056 52.2433 41.2798C52.2442 41.279 52.245 41.2783 52.2459 41.2775C53.6046 40.3027 54.7289 39.01 55.5033 37.511C56.5002 39.4411 58.0758 41.0317 59.9876 42.0382C58.0759 43.0447 56.5002 44.6355 55.5033 46.5654C54.5063 44.6353 52.9306 43.0447 51.0189 42.0382C51.4085 41.8331 51.7834 41.6024 52.1432 41.3508ZM49.7915 40.0704C49.7729 40.0797 49.7547 40.0899 49.7359 40.099C48.9923 40.4616 48.5306 41.2047 48.5306 42.0382C48.5306 42.8717 48.9925 43.6148 49.7359 43.9774C51.4083 44.793 52.7744 46.1721 53.5823 47.8606C53.7869 48.2881 54.114 48.623 54.51 48.8323C55.0279 50.732 55.2931 52.697 55.2931 54.6839C55.2931 66.8156 45.5167 76.6855 33.5 76.6855C21.4833 76.6855 11.7069 66.8156 11.7069 54.684C11.7069 52.6666 11.9812 50.6688 12.5165 48.7393C13.0207 48.2366 13.6054 47.816 14.2485 47.5025C14.9267 47.1716 15.3479 46.494 15.3479 45.7337C15.3479 45.0388 14.9951 44.4137 14.4168 44.0587C16.1813 40.8342 18.7191 38.1001 21.8127 36.1113C25.3016 33.8683 29.343 32.6827 33.5 32.6827C34.1416 32.6827 34.7786 32.7111 35.4101 32.7662C35.4292 32.7685 35.4482 32.7705 35.4673 32.7719C39.7475 33.1567 43.7608 34.7916 47.0739 37.4642C47.1294 37.5198 47.1892 37.5684 47.2521 37.61C48.1548 38.3537 49.0045 39.1749 49.7915 40.0704ZM47.7868 35.0988C44.8899 32.9368 41.5521 31.465 37.9917 30.7904L54.2969 14.3292L54.2977 14.3285L58.746 9.83766C60.7481 7.81637 61.4027 4.92408 60.5841 2.31476C62.7963 2.34007 64.6055 4.16447 64.6271 6.40332L64.7072 14.7833C64.7266 16.8185 63.9202 18.8111 62.4947 20.2502L47.7868 35.0988ZM24.3071 49.1571V50.5055C24.3071 51.1446 24.8203 51.6628 25.4534 51.6628C26.0864 51.6628 26.5996 51.1446 26.5996 50.5055V49.1571C26.5996 48.518 26.0864 47.9999 25.4534 47.9999C24.8203 47.9999 24.3071 48.518 24.3071 49.1571ZM41.5466 47.9999C40.9136 47.9999 40.4004 48.518 40.4004 49.1571V50.5055C40.4004 51.1446 40.9136 51.6628 41.5466 51.6628C42.1797 51.6628 42.6929 51.1446 42.6929 50.5055V49.1571C42.6929 48.518 42.1797 47.9999 41.5466 47.9999ZM34.7572 49.8052C34.4398 50.173 33.9814 50.3839 33.5 50.3839C33.0186 50.3839 32.5602 50.173 32.2428 49.8052C31.8268 49.3233 31.1028 49.2733 30.6255 49.693C30.1482 50.113 30.0985 50.8441 30.5144 51.3258C31.2674 52.198 32.3556 52.6984 33.5 52.6984C34.6443 52.6984 35.7325 52.1982 36.4856 51.3258C36.9015 50.8439 36.8518 50.113 36.3745 49.693C35.8972 49.2732 35.1731 49.3233 34.7572 49.8052ZM33.5 36.0964C23.3477 36.0964 15.0884 44.4347 15.0884 54.684C15.0884 59.0252 16.5652 63.1616 19.2727 66.4814C18.7777 66.8453 18.4809 67.4223 18.4809 68.0583C18.4809 68.8155 18.9002 69.4902 19.5755 69.8196C20.8701 70.451 21.9275 71.5185 22.5529 72.8255C22.879 73.5072 23.5475 73.9306 24.2975 73.9306C25.0473 73.9306 25.7158 73.507 26.0419 72.8253C26.1952 72.505 26.3748 72.1992 26.5772 71.9105C28.7746 72.8136 31.099 73.2717 33.5002 73.2717C36.3843 73.2717 39.1462 72.6171 41.7094 71.326C42.2758 71.0407 42.506 70.3458 42.2234 69.774C41.9409 69.202 41.2526 68.9699 40.686 69.2551C38.4436 70.3845 36.0259 70.9573 33.5002 70.9573C31.76 70.9573 30.0664 70.6822 28.444 70.14C28.6301 70.0238 28.8216 69.9161 29.0195 69.8195C29.6945 69.4902 30.1141 68.8153 30.1141 68.0582C30.1141 67.3012 29.6945 66.6263 29.0193 66.297C27.7247 65.6657 26.6673 64.5982 26.0419 63.2912C25.7158 62.6095 25.0473 62.186 24.2973 62.186C23.5475 62.186 22.879 62.6095 22.5529 63.2912C22.2129 64.0014 21.7448 64.6401 21.181 65.1773C18.7237 62.2437 17.3809 58.5569 17.3809 54.6839C17.3809 45.7108 24.6119 38.4107 33.5 38.4107C42.3881 38.4107 49.6191 45.7108 49.6191 54.6839C49.6191 59.0979 47.8977 63.229 44.7721 66.3165C44.3195 66.7635 44.3116 67.4961 44.7543 67.953C44.9789 68.1846 45.2761 68.3009 45.5737 68.3009C45.8629 68.3009 46.1523 68.1912 46.3753 67.9709C49.9454 64.4446 51.9116 59.7258 51.9116 54.684C51.9116 44.4347 43.6522 36.0964 33.5 36.0964ZM21.688 67.7272C21.7155 67.7087 21.7425 67.6894 21.7688 67.6683C22.7952 66.9423 23.6634 65.9986 24.2975 64.9039C25.0514 66.2054 26.1327 67.2974 27.422 68.0583C26.6993 68.485 26.045 69.0187 25.474 69.632C25.4228 69.6777 25.3759 69.7286 25.3329 69.7838C24.9426 70.2233 24.594 70.7011 24.2976 71.2128C23.5437 69.9113 22.4622 68.8195 21.1731 68.0583C21.3488 67.9544 21.52 67.8431 21.688 67.7272Z" transform="translate(3.05176e-05 0.96582)" fill="black"/>
</svg>
