<svg width="21" height="24" viewBox="0 0 21 24" fill="none" xmlns="http://www.w3.org/2000/svg">
  <path d="M20.9486 17.8552C20.8478 17.3462 20.3298 17.011 19.7915 17.1064C19.2533 17.2018 18.8987 17.6916 18.9996 18.2005C19.0744 18.5781 18.8989 18.8471 18.7876 18.9739C18.6766 19.1003 18.43 19.3125 18.0252 19.3125H2.97481C2.57004 19.3125 2.32336 19.1004 2.21236 18.9739C2.10112 18.8471 1.92557 18.5781 2.00043 18.2005C2.28167 16.7815 2.84597 15.8482 3.39169 14.9455C4.05449 13.8495 4.73981 12.716 4.73981 10.9688V9.5625C4.73981 6.60623 7.28114 4.1685 10.4063 4.12561H10.5937C13.7082 4.16836 16.2411 6.60609 16.2411 9.5625V10.9688C16.2411 12.4558 16.7555 13.479 17.2377 14.3214C17.4172 14.6349 17.7582 14.8128 18.1105 14.8128C18.2699 14.8128 18.4316 14.7764 18.5816 14.6996C19.0632 14.4532 19.2422 13.8842 18.9816 13.4289C18.5018 12.5907 18.224 11.9194 18.224 10.9688V9.5625C18.224 7.63308 17.4337 5.81077 15.9984 4.43128C14.7685 3.249 13.1892 2.51128 11.4819 2.30766V0.9375C11.4819 0.419719 11.038 0 10.4904 0C9.94283 0 9.49895 0.419719 9.49895 0.9375V2.31042C5.70859 2.77542 2.75684 5.86786 2.75684 9.5625V10.9688C2.75684 12.2178 2.2773 13.0109 1.67022 14.015C1.07215 15.0042 0.394223 16.1254 0.0513667 17.8552C-0.112278 18.6809 0.119234 19.5251 0.686563 20.1714C1.2534 20.8172 2.08743 21.1875 2.97481 21.1875H7.53511C7.53511 22.7383 8.86945 24 10.5096 24C12.1497 24 13.484 22.7383 13.484 21.1875H18.0252C18.9126 21.1875 19.7467 20.8172 20.3134 20.1714C20.8808 19.5251 21.1123 18.6809 20.9486 17.8552ZM10.5096 22.125C9.96291 22.125 9.51813 21.7044 9.51813 21.1875H11.5011C11.5011 21.7044 11.0563 22.125 10.5096 22.125Z" fill="white"/>
</svg>