<svg width="16" height="16" viewBox="0 0 16 16" fill="none" xmlns="http://www.w3.org/2000/svg">
<path d="M1.875 5.3125H3.4375C4.47137 5.3125 5.3125 4.47137 5.3125 3.4375V1.875C5.3125 0.841125 4.47137 0 3.4375 0H1.875C0.841125 0 0 0.841125 0 1.875V3.4375C0 4.47137 0.841125 5.3125 1.875 5.3125ZM1.25 1.875C1.25 1.53038 1.53038 1.25 1.875 1.25H3.4375C3.78212 1.25 4.0625 1.53038 4.0625 1.875V3.4375C4.0625 3.78212 3.78212 4.0625 3.4375 4.0625H1.875C1.53038 4.0625 1.25 3.78212 1.25 3.4375V1.875Z" fill="#6526B8"/>
<path d="M1.25 0H0V1.25H1.25V0Z" transform="translate(12.5 11.0938)" fill="#6526B8"/>
<path d="M1.25 0H0V2.5H1.25V0Z" transform="translate(14.75 11.0938)" fill="#6526B8"/>
<path d="M1.25 0H0V1.25H1.25V0Z" transform="translate(11.25 12.3438)" fill="#6526B8"/>
<path d="M1.25 2.5V1.25H2.46875V2.5H3.71875V1.25H2.5V0H0V2.5H1.25Z" transform="translate(7.5 13.5)" fill="#6526B8"/>
<path d="M1.25 2.40625V1.25H2.25V0H0V2.40625H1.25Z" transform="translate(12.5 13.5938)" fill="#6526B8"/>
<path d="M1.25 0H0V1.25H1.25V0Z" transform="translate(2.03125 2.03125)" fill="#6526B8"/>
<path d="M1.25 0H0V1.25H1.25V0Z" transform="translate(2.03125 12.7188)" fill="#6526B8"/>
<path d="M1.25 0H0V2.375H1.25V0Z" transform="translate(6.25 11.125)" fill="#6526B8"/>
<path d="M1.25 0H0V1.25H1.25V0Z" transform="translate(10 8.65625)" fill="#6526B8"/>
<path d="M3.4375 0H1.875C0.841125 0 0 0.841125 0 1.875V3.4375C0 4.47137 0.841125 5.3125 1.875 5.3125H3.4375C4.47137 5.3125 5.3125 4.47137 5.3125 3.4375V1.875C5.3125 0.841125 4.47137 0 3.4375 0ZM4.0625 3.4375C4.0625 3.78212 3.78212 4.0625 3.4375 4.0625H1.875C1.53038 4.0625 1.25 3.78212 1.25 3.4375V1.875C1.25 1.53038 1.53038 1.25 1.875 1.25H3.4375C3.78212 1.25 4.0625 1.53038 4.0625 1.875V3.4375Z" transform="translate(0 10.6875)" fill="#6526B8"/>
<path d="M1.25 0V1.25H0V2.5H2.5V0H1.25Z" transform="translate(6.25 3.65625)" fill="#6526B8"/>
<path d="M1.25 0H0V1.25H1.25V0Z" transform="translate(7.5)" fill="#6526B8"/>
<path d="M1.25 0H0V1.25H1.25V0Z" transform="translate(8.75 2.40625)" fill="#6526B8"/>
<path d="M3.5 0H1.21875V1.25H0V2.5H1.25V3.71875H4.75V1.21875H3.5V0ZM3.5 2.46875H1.25V1.25H3.5V2.46875Z" transform="translate(11.25 6.15625)" fill="#6526B8"/>
<path d="M1.25 0H0V2.5H1.25V0Z" transform="translate(8.75 6.15625)" fill="#6526B8"/>
<path d="M3.4375 0H1.875C0.841125 0 0 0.841125 0 1.875V3.4375C0 4.47137 0.841125 5.3125 1.875 5.3125H3.4375C4.47137 5.3125 5.3125 4.47137 5.3125 3.4375V1.875C5.3125 0.841125 4.47137 0 3.4375 0ZM4.0625 3.4375C4.0625 3.78212 3.78212 4.0625 3.4375 4.0625H1.875C1.53038 4.0625 1.25 3.78212 1.25 3.4375V1.875C1.25 1.53038 1.53038 1.25 1.875 1.25H3.4375C3.78212 1.25 4.0625 1.53038 4.0625 1.875V3.4375Z" transform="translate(10.6875)" fill="#6526B8"/>
<path d="M1.25 0H0V1.25H1.25V0Z" transform="translate(12.7188 2.03125)" fill="#6526B8"/>
<path d="M1.25 0H0V1.25H1.25V0Z" transform="translate(1.25 6.15625)" fill="#6526B8"/>
<path d="M1.25 0H0V2.5H1.25V0Z" transform="translate(0 7.40625)" fill="#6526B8"/>
<path d="M0 1.25H1.21875V2.5H2.46875V1.25H1.25V0H0V1.25Z" transform="translate(2.5 7.40625)" fill="#6526B8"/>
<path d="M1.25 0H0V2.40625H1.25V0Z" transform="translate(6.25 1.25)" fill="#6526B8"/>
<path d="M1.25 2.5V3.71875H2.5V4.9375H5V3.6875H2.5V2.46875H1.25V0H0V2.5H1.25Z" transform="translate(6.25 7.40625)" fill="#6526B8"/>
<path d="M2.5 0H0V1.25H2.5V0Z" transform="translate(3.75 6.15625)" fill="#6526B8"/>
</svg>
