<svg width="14" height="15" viewBox="0 0 14 15" fill="none" xmlns="http://www.w3.org/2000/svg">
<path d="M13.5171 1.25736L12.7374 0.479402C12.0959 -0.160754 11.053 -0.159603 10.4131 0.481676L8.72334 2.17235L4.79331 3.1246C3.66447 3.39812 2.75498 4.25886 2.41977 5.37091L0.0233286 13.3205C-0.0349421 13.5138 0.0178221 13.7235 0.160663 13.8662C0.264932 13.9704 0.404842 14.0266 0.548012 14.0266C0.60094 14.0266 0.654334 14.0189 0.706523 14.0031L8.62772 11.6083C9.74054 11.2719 10.6008 10.3607 10.8727 9.23047L11.236 7.72083C11.3068 7.4266 11.1256 7.1307 10.8314 7.05991C10.5371 6.98923 10.2413 7.17026 10.1705 7.46449L9.80727 8.97413C9.62597 9.72765 9.0525 10.3351 8.31059 10.5594L2.48056 12.3219L4.86172 9.93991C5.05181 9.89646 5.38719 9.81603 5.74893 9.71163C6.81059 9.40512 7.13948 9.17311 7.30736 9.0052C7.9376 8.37496 7.9376 7.34946 7.30736 6.71924C6.67712 6.08903 5.65162 6.08901 5.02141 6.71924C4.85352 6.88713 4.62146 7.21601 4.31498 8.27768C4.21049 8.63969 4.13 8.97526 4.08658 9.1653L1.70123 11.5515L3.46903 5.68719C3.69249 4.94584 4.29884 4.37201 5.05138 4.18963L8.8502 3.26916L10.9551 5.37305C11.0578 5.47575 11.1972 5.53342 11.3425 5.53342H11.3426C11.4879 5.53339 11.6273 5.47562 11.73 5.37283L13.5198 3.58213C13.83 3.2713 14.0005 2.85834 14 2.41921C13.9995 1.98011 13.828 1.56748 13.5171 1.25736ZM5.79673 7.49367C5.99973 7.29116 6.32966 7.29129 6.53244 7.49411C6.73539 7.69705 6.73539 8.02731 6.53313 8.2296C6.4139 8.34154 5.92678 8.52405 5.33591 8.69067C5.50239 8.10018 5.68477 7.61339 5.79673 7.49367ZM12.7443 2.80777L11.3422 4.21056L9.78807 2.65714L11.1885 1.25596C11.4019 1.04211 11.7495 1.04173 11.9634 1.25511L12.7431 2.03307C12.8467 2.13643 12.9038 2.27399 12.904 2.42036C12.9042 2.56674 12.8474 2.70446 12.7443 2.80777Z" fill="#646464"/>
</svg>
