<svg width="14" height="15" viewBox="0 0 14 15" fill="none" xmlns="http://www.w3.org/2000/svg">
  <path d="M6.39932 12.9046H1.64211C1.46535 12.9046 1.3043 12.8227 1.20016 12.6798C1.09599 12.5369 1.06731 12.3584 1.12144 12.19C1.66191 10.5097 3.31017 9.33615 5.12968 9.33615C5.9763 9.33615 6.78931 9.5911 7.48085 10.0734C7.72854 10.2462 8.06934 10.1854 8.24217 9.93773C8.4149 9.69004 8.35417 9.34921 8.10648 9.17643C7.76415 8.93767 7.39843 8.74289 7.01586 8.59419C7.52486 8.1314 7.86253 7.48336 7.92121 6.7577C8.69299 6.00588 9.70464 5.59392 10.7891 5.59392C11.6357 5.59392 12.4488 5.84887 13.1403 6.33117C13.388 6.50392 13.7288 6.4432 13.9016 6.1955C14.0743 5.94781 14.0136 5.60699 13.7659 5.43421C13.4236 5.19544 13.0579 5.00067 12.6753 4.85196C13.2368 4.34145 13.5898 3.60552 13.5898 2.78868C13.5898 1.25102 12.3388 0 10.8011 0C9.26338 0 8.01239 1.25102 8.01239 2.78873C8.01239 3.60226 8.36255 4.33557 8.92009 4.84583C8.84381 4.87519 8.76807 4.90641 8.69288 4.9395C8.35072 5.09007 8.02891 5.2749 7.72977 5.49233C7.31705 4.46751 6.31241 3.74226 5.14162 3.74226C3.60391 3.74226 2.35292 4.99327 2.35292 6.53099C2.35292 7.34213 2.70106 8.07352 3.25572 8.58359C1.77257 9.1394 0.569978 10.333 0.0803966 11.8552C-0.0819755 12.3601 0.0040313 12.8954 0.316395 13.324C0.628704 13.7525 1.11188 13.9983 1.64213 13.9983H6.39935C6.70136 13.9983 6.94615 13.7535 6.94615 13.4515C6.94615 13.1495 6.70131 12.9046 6.39932 12.9046ZM10.8011 1.0936C11.7358 1.0936 12.4962 1.85402 12.4962 2.7887C12.4962 3.72338 11.7358 4.4838 10.8011 4.4838C9.86644 4.4838 9.10602 3.72338 9.10602 2.7887C9.10602 1.85402 9.86644 1.0936 10.8011 1.0936ZM5.14165 4.83583C6.07633 4.83583 6.83675 5.59625 6.83675 6.53093C6.83675 7.46561 6.07633 8.22603 5.14165 8.22603C4.20697 8.22603 3.44655 7.46561 3.44655 6.53093C3.44655 5.59625 4.20697 4.83583 5.14165 4.83583Z" fill="#646464"/>
  <path d="M6.57815 0.102239C6.33259 -0.0735545 5.99101 -0.0170201 5.81524 0.228565L3.11999 3.99334C3.04639 4.07868 2.95414 4.09712 2.90473 4.10041C2.85387 4.10388 2.75509 4.09728 2.6704 4.01667L0.925532 2.34124C0.707666 2.13203 0.361475 2.13912 0.152402 2.35693C-0.0567807 2.57474 -0.0497415 2.92091 0.168069 3.13006L1.91469 4.80714C2.17627 5.05615 2.52545 5.19469 2.88471 5.19469C2.91558 5.19469 2.94653 5.19368 2.97748 5.1916C3.36884 5.16552 3.73423 4.97521 3.97995 4.66947C3.98633 4.66156 3.99242 4.65348 3.99836 4.64523L6.70453 0.865152C6.88027 0.619595 6.82374 0.278033 6.57815 0.102239Z" transform="translate(7.19327 8.82938)" fill="#646464"/>
</svg>