<svg width="36" height="36" viewBox="0 0 36 36" fill="none" xmlns="http://www.w3.org/2000/svg">
    <path d="M35.1929 28.4743L29.6333 22.9014C28.5259 21.796 26.6921 21.8296 25.5461 22.9785L22.7452 25.7852C22.5682 25.6875 22.385 25.5854 22.1925 25.477C20.4237 24.4948 18.0028 23.1484 15.4553 20.5933C12.9003 18.0328 11.5558 15.6027 10.5727 13.8288C10.469 13.6409 10.3696 13.4597 10.2714 13.2876L12.1513 11.4063L13.0755 10.4788C14.2232 9.32819 14.2549 7.49071 13.1501 6.38207L7.59043 0.808589C6.48564 -0.298498 4.65098 -0.264912 3.50326 0.885712L1.93637 2.46518L1.97919 2.50778C1.45378 3.1797 1.01474 3.95467 0.688022 4.79037C0.386847 5.58586 0.199337 6.34496 0.113597 7.10561C-0.620517 13.2054 2.1606 18.7801 9.70817 26.3449C20.1412 36.8008 28.5489 36.011 28.9116 35.9724C29.7016 35.8778 30.4586 35.6886 31.228 35.3891C32.0546 35.0655 32.8273 34.6261 33.4973 34.1006L33.5315 34.1311L35.1189 32.5732C36.2642 31.4228 36.2972 29.5847 35.1929 28.4743Z" fill="white"/>
</svg>
