<svg width="41" height="46" viewBox="0 0 41 46" fill="none" xmlns="http://www.w3.org/2000/svg">
  <path d="M36.2522 17.4552L9.44712 0.931998C7.50782 -0.261911 5.16317 -0.31155 3.17504 0.799213C1.18691 1.9098 -5.13972e-08 3.93268 -5.13972e-08 6.20996V39.1058C-5.13972e-08 42.5491 2.77447 45.3655 6.1845 45.3842C6.19381 45.3842 6.20311 45.3842 6.21224 45.3842C7.27789 45.3842 8.38838 45.0502 9.42558 44.4173C10.26 43.9082 10.5237 42.8191 10.0146 41.9849C9.50553 41.1504 8.41631 40.8868 7.58219 41.3958C7.09706 41.6917 6.62327 41.8448 6.20356 41.8447C4.91693 41.8377 3.53936 40.7355 3.53936 39.1059V6.21005C3.53936 5.23314 4.04851 4.3656 4.90124 3.88916C5.75406 3.41271 6.75969 3.43399 7.59053 3.94553L34.3957 20.4687C35.2014 20.9647 35.6624 21.7918 35.6605 22.738C35.6585 23.6841 35.1941 24.5093 34.384 25.0037L15.0038 36.8699C14.1702 37.3803 13.9082 38.4698 14.4186 39.3033C14.9289 40.1369 16.0184 40.3989 16.8519 39.8885L36.2299 28.0237C38.0852 26.8918 39.1956 24.9187 39.2 22.7451C39.2044 20.5718 38.1021 18.594 36.2522 17.4552Z" transform="translate(0.809998 0.235001)" fill="white"/>
</svg>