<svg width="14" height="18" viewBox="0 0 14 18" fill="none" xmlns="http://www.w3.org/2000/svg">
<path d="M9.80456 8.46925C9.97568 8.32345 10.1714 8.16237 10.3786 7.99179C11.9069 6.73358 14 5.01043 14 3.19922V2.10938C14 0.946266 13.0338 0 11.8462 0H2.15385C0.966215 0 0 0.946266 0 2.10938V3.19922C0 5.01043 2.09311 6.73358 3.62144 7.99182C3.82864 8.1624 4.02432 8.32349 4.19544 8.46928C4.35802 8.60783 4.45128 8.80126 4.45128 9.00004C4.45128 9.19877 4.35806 9.3922 4.19544 9.53075C4.02432 9.67655 3.82864 9.83763 3.62144 10.0082C2.09311 11.2664 0 12.9896 0 14.8008V15.8906C0 17.0537 0.966215 18 2.15385 18H11.8462C13.0338 18 14 17.0537 14 15.8906C14 15.5023 13.6786 15.1875 13.2821 15.1875C12.8855 15.1875 12.5641 15.5023 12.5641 15.8906C12.5641 16.2783 12.242 16.5938 11.8462 16.5938H2.15385C1.75797 16.5938 1.4359 16.2783 1.4359 15.8906V14.8008C1.4359 13.6446 3.3824 12.0421 4.54537 11.0846C4.75734 10.9101 4.95758 10.7453 5.13789 10.5917C5.61407 10.1859 5.88718 9.60578 5.88718 9C5.88718 8.39419 5.61407 7.81404 5.13793 7.4083C4.95762 7.2547 4.75738 7.08986 4.5454 6.91534C3.3824 5.95789 1.4359 4.35544 1.4359 3.19922V2.10938C1.4359 1.72167 1.75797 1.40625 2.15385 1.40625H11.8462C12.242 1.40625 12.5641 1.72167 12.5641 2.10938V3.19922C12.5641 4.35544 10.6176 5.95789 9.45463 6.91534C9.24266 7.08982 9.04242 7.25467 8.86211 7.4083C8.38593 7.81404 8.11282 8.39419 8.11282 9C8.11282 9.60581 8.38593 10.186 8.86207 10.5917C9.05 10.7517 9.25935 10.9234 9.48102 11.1051C10.1795 11.6777 10.9712 12.3267 11.596 13.0171C11.859 13.3077 12.3127 13.3345 12.6095 13.077C12.9062 12.8194 12.9336 12.375 12.6706 12.0844C11.9748 11.3155 11.1031 10.6009 10.4026 10.0267C10.1864 9.84944 9.98211 9.682 9.80456 9.53072C9.64198 9.39217 9.54872 9.19874 9.54872 9C9.54872 8.80126 9.64198 8.6078 9.80456 8.46925Z" fill="#646464"/>
</svg>
