<svg width="154" height="154" viewBox="0 0 154 154" fill="none" xmlns="http://www.w3.org/2000/svg">
    <path d="M154 0H0V154H154V0Z" fill="white"/>
    <path d="M4.66667 0H0V4.66667H4.66667V0Z" transform="translate(9.33334 9.33331)" fill="#6526B8"/>
    <path d="M4.66667 0H0V4.66667H4.66667V0Z" transform="translate(14 9.33331)" fill="#6526B8"/>
    <path d="M4.66667 0H0V4.66667H4.66667V0Z" transform="translate(18.6667 9.33331)" fill="#6526B8"/>
    <path d="M4.66667 0H0V4.66667H4.66667V0Z" transform="translate(23.3333 9.33331)" fill="#6526B8"/>
    <path d="M4.66667 0H0V4.66667H4.66667V0Z" transform="translate(28 9.33331)" fill="#6526B8"/>
    <path d="M4.66667 0H0V4.66667H4.66667V0Z" transform="translate(32.6667 9.33331)" fill="#6526B8"/>
    <path d="M4.66667 0H0V4.66667H4.66667V0Z" transform="translate(37.3333 9.33331)" fill="#6526B8"/>
    <path d="M4.66667 0H0V4.66667H4.66667V0Z" transform="translate(56 9.33331)" fill="#6526B8"/>
    <path d="M4.66667 0H0V4.66667H4.66667V0Z" transform="translate(65.3333 9.33331)" fill="#6526B8"/>
    <path d="M4.66667 0H0V4.66667H4.66667V0Z" transform="translate(79.3333 9.33331)" fill="#6526B8"/>
    <path d="M4.66667 0H0V4.66667H4.66667V0Z" transform="translate(84 9.33331)" fill="#6526B8"/>
    <path d="M4.66667 0H0V4.66667H4.66667V0Z" transform="translate(93.3333 9.33331)" fill="#6526B8"/>
    <path d="M4.66667 0H0V4.66667H4.66667V0Z" transform="translate(102.667 9.33331)" fill="#6526B8"/>
    <path d="M4.66667 0H0V4.66667H4.66667V0Z" transform="translate(112 9.33331)" fill="#6526B8"/>
    <path d="M4.66667 0H0V4.66667H4.66667V0Z" transform="translate(116.667 9.33331)" fill="#6526B8"/>
    <path d="M4.66667 0H0V4.66667H4.66667V0Z" transform="translate(121.333 9.33331)" fill="#6526B8"/>
    <path d="M4.66667 0H0V4.66667H4.66667V0Z" transform="translate(126 9.33331)" fill="#6526B8"/>
    <path d="M4.66667 0H0V4.66667H4.66667V0Z" transform="translate(130.667 9.33331)" fill="#6526B8"/>
    <path d="M4.66667 0H0V4.66667H4.66667V0Z" transform="translate(135.333 9.33331)" fill="#6526B8"/>
    <path d="M4.66667 0H0V4.66667H4.66667V0Z" transform="translate(140 9.33331)" fill="#6526B8"/>
    <path d="M4.66667 0H0V4.66667H4.66667V0Z" transform="translate(9.33334 14)" fill="#6526B8"/>
    <path d="M4.66667 0H0V4.66667H4.66667V0Z" transform="translate(37.3333 14)" fill="#6526B8"/>
    <path d="M4.66667 0H0V4.66667H4.66667V0Z" transform="translate(46.6667 14)" fill="#6526B8"/>
    <path d="M4.66667 0H0V4.66667H4.66667V0Z" transform="translate(56 14)" fill="#6526B8"/>
    <path d="M4.66667 0H0V4.66667H4.66667V0Z" transform="translate(74.6667 14)" fill="#6526B8"/>
    <path d="M4.66667 0H0V4.66667H4.66667V0Z" transform="translate(79.3333 14)" fill="#6526B8"/>
    <path d="M4.66667 0H0V4.66667H4.66667V0Z" transform="translate(84 14)" fill="#6526B8"/>
    <path d="M4.66667 0H0V4.66667H4.66667V0Z" transform="translate(102.667 14)" fill="#6526B8"/>
    <path d="M4.66667 0H0V4.66667H4.66667V0Z" transform="translate(112 14)" fill="#6526B8"/>
    <path d="M4.66667 0H0V4.66667H4.66667V0Z" transform="translate(140 14)" fill="#6526B8"/>
    <path d="M4.66667 0H0V4.66667H4.66667V0Z" transform="translate(9.33334 18.6667)" fill="#6526B8"/>
    <path d="M4.66667 0H0V4.66667H4.66667V0Z" transform="translate(18.6667 18.6667)" fill="#6526B8"/>
    <path d="M4.66667 0H0V4.66667H4.66667V0Z" transform="translate(23.3333 18.6667)" fill="#6526B8"/>
    <path d="M4.66667 0H0V4.66667H4.66667V0Z" transform="translate(28 18.6667)" fill="#6526B8"/>
    <path d="M4.66667 0H0V4.66667H4.66667V0Z" transform="translate(37.3333 18.6667)" fill="#6526B8"/>
    <path d="M4.66667 0H0V4.66667H4.66667V0Z" transform="translate(65.3333 18.6667)" fill="#6526B8"/>
    <path d="M4.66667 0H0V4.66667H4.66667V0Z" transform="translate(74.6667 18.6667)" fill="#6526B8"/>
    <path d="M4.66667 0H0V4.66667H4.66667V0Z" transform="translate(79.3333 18.6667)" fill="#6526B8"/>
    <path d="M4.66667 0H0V4.66667H4.66667V0Z" transform="translate(93.3333 18.6667)" fill="#6526B8"/>
    <path d="M4.66667 0H0V4.66667H4.66667V0Z" transform="translate(112 18.6667)" fill="#6526B8"/>
    <path d="M4.66667 0H0V4.66667H4.66667V0Z" transform="translate(121.333 18.6667)" fill="#6526B8"/>
    <path d="M4.66667 0H0V4.66667H4.66667V0Z" transform="translate(126 18.6667)" fill="#6526B8"/>
    <path d="M4.66667 0H0V4.66667H4.66667V0Z" transform="translate(130.667 18.6667)" fill="#6526B8"/>
    <path d="M4.66667 0H0V4.66667H4.66667V0Z" transform="translate(140 18.6667)" fill="#6526B8"/>
    <path d="M4.66667 0H0V4.66667H4.66667V0Z" transform="translate(9.33334 23.3333)" fill="#6526B8"/>
    <path d="M4.66667 0H0V4.66667H4.66667V0Z" transform="translate(18.6667 23.3333)" fill="#6526B8"/>
    <path d="M4.66667 0H0V4.66667H4.66667V0Z" transform="translate(23.3333 23.3333)" fill="#6526B8"/>
    <path d="M4.66667 0H0V4.66667H4.66667V0Z" transform="translate(28 23.3333)" fill="#6526B8"/>
    <path d="M4.66667 0H0V4.66667H4.66667V0Z" transform="translate(37.3333 23.3333)" fill="#6526B8"/>
    <path d="M4.66667 0H0V4.66667H4.66667V0Z" transform="translate(46.6667 23.3333)" fill="#6526B8"/>
    <path d="M4.66667 0H0V4.66667H4.66667V0Z" transform="translate(51.3333 23.3333)" fill="#6526B8"/>
    <path d="M4.66667 0H0V4.66667H4.66667V0Z" transform="translate(56 23.3333)" fill="#6526B8"/>
    <path d="M4.66667 0H0V4.66667H4.66667V0Z" transform="translate(65.3333 23.3333)" fill="#6526B8"/>
    <path d="M4.66667 0H0V4.66667H4.66667V0Z" transform="translate(70 23.3333)" fill="#6526B8"/>
    <path d="M4.66667 0H0V4.66667H4.66667V0Z" transform="translate(74.6667 23.3333)" fill="#6526B8"/>
    <path d="M4.66667 0H0V4.66667H4.66667V0Z" transform="translate(84 23.3333)" fill="#6526B8"/>
    <path d="M4.66667 0H0V4.66667H4.66667V0Z" transform="translate(88.6667 23.3333)" fill="#6526B8"/>
    <path d="M4.66667 0H0V4.66667H4.66667V0Z" transform="translate(98 23.3333)" fill="#6526B8"/>
    <path d="M4.66667 0H0V4.66667H4.66667V0Z" transform="translate(112 23.3333)" fill="#6526B8"/>
    <path d="M4.66667 0H0V4.66667H4.66667V0Z" transform="translate(121.333 23.3333)" fill="#6526B8"/>
    <path d="M4.66667 0H0V4.66667H4.66667V0Z" transform="translate(126 23.3333)" fill="#6526B8"/>
    <path d="M4.66667 0H0V4.66667H4.66667V0Z" transform="translate(130.667 23.3333)" fill="#6526B8"/>
    <path d="M4.66667 0H0V4.66667H4.66667V0Z" transform="translate(140 23.3333)" fill="#6526B8"/>
    <path d="M4.66667 0H0V4.66667H4.66667V0Z" transform="translate(9.33334 28)" fill="#6526B8"/>
    <path d="M4.66667 0H0V4.66667H4.66667V0Z" transform="translate(18.6667 28)" fill="#6526B8"/>
    <path d="M4.66667 0H0V4.66667H4.66667V0Z" transform="translate(23.3333 28)" fill="#6526B8"/>
    <path d="M4.66667 0H0V4.66667H4.66667V0Z" transform="translate(28 28)" fill="#6526B8"/>
    <path d="M4.66667 0H0V4.66667H4.66667V0Z" transform="translate(37.3333 28)" fill="#6526B8"/>
    <path d="M4.66667 0H0V4.66667H4.66667V0Z" transform="translate(51.3333 28)" fill="#6526B8"/>
    <path d="M4.66667 0H0V4.66667H4.66667V0Z" transform="translate(102.667 28)" fill="#6526B8"/>
    <path d="M4.66667 0H0V4.66667H4.66667V0Z" transform="translate(112 28)" fill="#6526B8"/>
    <path d="M4.66667 0H0V4.66667H4.66667V0Z" transform="translate(121.333 28)" fill="#6526B8"/>
    <path d="M4.66667 0H0V4.66667H4.66667V0Z" transform="translate(126 28)" fill="#6526B8"/>
    <path d="M4.66667 0H0V4.66667H4.66667V0Z" transform="translate(130.667 28)" fill="#6526B8"/>
    <path d="M4.66667 0H0V4.66667H4.66667V0Z" transform="translate(140 28)" fill="#6526B8"/>
    <path d="M4.66667 0H0V4.66667H4.66667V0Z" transform="translate(9.33334 32.6667)" fill="#6526B8"/>
    <path d="M4.66667 0H0V4.66667H4.66667V0Z" transform="translate(37.3333 32.6667)" fill="#6526B8"/>
    <path d="M4.66667 0H0V4.66667H4.66667V0Z" transform="translate(46.6667 32.6667)" fill="#6526B8"/>
    <path d="M4.66667 0H0V4.66667H4.66667V0Z" transform="translate(51.3333 32.6667)" fill="#6526B8"/>
    <path d="M4.66667 0H0V4.66667H4.66667V0Z" transform="translate(60.6667 32.6667)" fill="#6526B8"/>
    <path d="M4.66667 0H0V4.66667H4.66667V0Z" transform="translate(65.3333 32.6667)" fill="#6526B8"/>
    <path d="M4.66667 0H0V4.66667H4.66667V0Z" transform="translate(70 32.6667)" fill="#6526B8"/>
    <path d="M4.66667 0H0V4.66667H4.66667V0Z" transform="translate(74.6667 32.6667)" fill="#6526B8"/>
    <path d="M4.66667 0H0V4.66667H4.66667V0Z" transform="translate(79.3333 32.6667)" fill="#6526B8"/>
    <path d="M4.66667 0H0V4.66667H4.66667V0Z" transform="translate(84 32.6667)" fill="#6526B8"/>
    <path d="M4.66667 0H0V4.66667H4.66667V0Z" transform="translate(88.6667 32.6667)" fill="#6526B8"/>
    <path d="M4.66667 0H0V4.66667H4.66667V0Z" transform="translate(102.667 32.6667)" fill="#6526B8"/>
    <path d="M4.66667 0H0V4.66667H4.66667V0Z" transform="translate(112 32.6667)" fill="#6526B8"/>
    <path d="M4.66667 0H0V4.66667H4.66667V0Z" transform="translate(140 32.6667)" fill="#6526B8"/>
    <path d="M4.66667 0H0V4.66667H4.66667V0Z" transform="translate(9.33334 37.3333)" fill="#6526B8"/>
    <path d="M4.66667 0H0V4.66667H4.66667V0Z" transform="translate(14 37.3333)" fill="#6526B8"/>
    <path d="M4.66667 0H0V4.66667H4.66667V0Z" transform="translate(18.6667 37.3333)" fill="#6526B8"/>
    <path d="M4.66667 0H0V4.66667H4.66667V0Z" transform="translate(23.3333 37.3333)" fill="#6526B8"/>
    <path d="M4.66667 0H0V4.66667H4.66667V0Z" transform="translate(28 37.3333)" fill="#6526B8"/>
    <path d="M4.66667 0H0V4.66667H4.66667V0Z" transform="translate(32.6667 37.3333)" fill="#6526B8"/>
    <path d="M4.66667 0H0V4.66667H4.66667V0Z" transform="translate(37.3333 37.3333)" fill="#6526B8"/>
    <path d="M4.66667 0H0V4.66667H4.66667V0Z" transform="translate(46.6667 37.3333)" fill="#6526B8"/>
    <path d="M4.66667 0H0V4.66667H4.66667V0Z" transform="translate(56 37.3333)" fill="#6526B8"/>
    <path d="M4.66667 0H0V4.66667H4.66667V0Z" transform="translate(65.3333 37.3333)" fill="#6526B8"/>
    <path d="M4.66667 0H0V4.66667H4.66667V0Z" transform="translate(74.6667 37.3333)" fill="#6526B8"/>
    <path d="M4.66667 0H0V4.66667H4.66667V0Z" transform="translate(84 37.3333)" fill="#6526B8"/>
    <path d="M4.66667 0H0V4.66667H4.66667V0Z" transform="translate(93.3333 37.3333)" fill="#6526B8"/>
    <path d="M4.66667 0H0V4.66667H4.66667V0Z" transform="translate(102.667 37.3333)" fill="#6526B8"/>
    <path d="M4.66667 0H0V4.66667H4.66667V0Z" transform="translate(112 37.3333)" fill="#6526B8"/>
    <path d="M4.66667 0H0V4.66667H4.66667V0Z" transform="translate(116.667 37.3333)" fill="#6526B8"/>
    <path d="M4.66667 0H0V4.66667H4.66667V0Z" transform="translate(121.333 37.3333)" fill="#6526B8"/>
    <path d="M4.66667 0H0V4.66667H4.66667V0Z" transform="translate(126 37.3333)" fill="#6526B8"/>
    <path d="M4.66667 0H0V4.66667H4.66667V0Z" transform="translate(130.667 37.3333)" fill="#6526B8"/>
    <path d="M4.66667 0H0V4.66667H4.66667V0Z" transform="translate(135.333 37.3333)" fill="#6526B8"/>
    <path d="M4.66667 0H0V4.66667H4.66667V0Z" transform="translate(140 37.3333)" fill="#6526B8"/>
    <path d="M4.66667 0H0V4.66667H4.66667V0Z" transform="translate(51.3333 42)" fill="#6526B8"/>
    <path d="M4.66667 0H0V4.66667H4.66667V0Z" transform="translate(56 42)" fill="#6526B8"/>
    <path d="M4.66667 0H0V4.66667H4.66667V0Z" transform="translate(60.6667 42)" fill="#6526B8"/>
    <path d="M4.66667 0H0V4.66667H4.66667V0Z" transform="translate(79.3333 42)" fill="#6526B8"/>
    <path d="M4.66667 0H0V4.66667H4.66667V0Z" transform="translate(93.3333 42)" fill="#6526B8"/>
    <path d="M4.66667 0H0V4.66667H4.66667V0Z" transform="translate(98 42)" fill="#6526B8"/>
    <path d="M4.66667 0H0V4.66667H4.66667V0Z" transform="translate(102.667 42)" fill="#6526B8"/>
    <path d="M4.66667 0H0V4.66667H4.66667V0Z" transform="translate(9.33334 46.6667)" fill="#6526B8"/>
    <path d="M4.66667 0H0V4.66667H4.66667V0Z" transform="translate(14 46.6667)" fill="#6526B8"/>
    <path d="M4.66667 0H0V4.66667H4.66667V0Z" transform="translate(18.6667 46.6667)" fill="#6526B8"/>
    <path d="M4.66667 0H0V4.66667H4.66667V0Z" transform="translate(23.3333 46.6667)" fill="#6526B8"/>
    <path d="M4.66667 0H0V4.66667H4.66667V0Z" transform="translate(28 46.6667)" fill="#6526B8"/>
    <path d="M4.66667 0H0V4.66667H4.66667V0Z" transform="translate(37.3333 46.6667)" fill="#6526B8"/>
    <path d="M4.66667 0H0V4.66667H4.66667V0Z" transform="translate(42 46.6667)" fill="#6526B8"/>
    <path d="M4.66667 0H0V4.66667H4.66667V0Z" transform="translate(46.6667 46.6667)" fill="#6526B8"/>
    <path d="M4.66667 0H0V4.66667H4.66667V0Z" transform="translate(51.3333 46.6667)" fill="#6526B8"/>
    <path d="M4.66667 0H0V4.66667H4.66667V0Z" transform="translate(60.6667 46.6667)" fill="#6526B8"/>
    <path d="M4.66667 0H0V4.66667H4.66667V0Z" transform="translate(70 46.6667)" fill="#6526B8"/>
    <path d="M4.66667 0H0V4.66667H4.66667V0Z" transform="translate(74.6667 46.6667)" fill="#6526B8"/>
    <path d="M4.66667 0H0V4.66667H4.66667V0Z" transform="translate(79.3333 46.6667)" fill="#6526B8"/>
    <path d="M4.66667 0H0V4.66667H4.66667V0Z" transform="translate(88.6667 46.6667)" fill="#6526B8"/>
    <path d="M4.66667 0H0V4.66667H4.66667V0Z" transform="translate(93.3333 46.6667)" fill="#6526B8"/>
    <path d="M4.66667 0H0V4.66667H4.66667V0Z" transform="translate(98 46.6667)" fill="#6526B8"/>
    <path d="M4.66667 0H0V4.66667H4.66667V0Z" transform="translate(107.333 46.6667)" fill="#6526B8"/>
    <path d="M4.66667 0H0V4.66667H4.66667V0Z" transform="translate(116.667 46.6667)" fill="#6526B8"/>
    <path d="M4.66667 0H0V4.66667H4.66667V0Z" transform="translate(126 46.6667)" fill="#6526B8"/>
    <path d="M4.66667 0H0V4.66667H4.66667V0Z" transform="translate(135.333 46.6667)" fill="#6526B8"/>
    <path d="M4.66667 0H0V4.66667H4.66667V0Z" transform="translate(28 51.3333)" fill="#6526B8"/>
    <path d="M4.66667 0H0V4.66667H4.66667V0Z" transform="translate(32.6667 51.3333)" fill="#6526B8"/>
    <path d="M4.66667 0H0V4.66667H4.66667V0Z" transform="translate(56 51.3333)" fill="#6526B8"/>
    <path d="M4.66667 0H0V4.66667H4.66667V0Z" transform="translate(65.3333 51.3333)" fill="#6526B8"/>
    <path d="M4.66667 0H0V4.66667H4.66667V0Z" transform="translate(74.6667 51.3333)" fill="#6526B8"/>
    <path d="M4.66667 0H0V4.66667H4.66667V0Z" transform="translate(84 51.3333)" fill="#6526B8"/>
    <path d="M4.66667 0H0V4.66667H4.66667V0Z" transform="translate(98 51.3333)" fill="#6526B8"/>
    <path d="M4.66667 0H0V4.66667H4.66667V0Z" transform="translate(107.333 51.3333)" fill="#6526B8"/>
    <path d="M4.66667 0H0V4.66667H4.66667V0Z" transform="translate(112 51.3333)" fill="#6526B8"/>
    <path d="M4.66667 0H0V4.66667H4.66667V0Z" transform="translate(116.667 51.3333)" fill="#6526B8"/>
    <path d="M4.66667 0H0V4.66667H4.66667V0Z" transform="translate(121.333 51.3333)" fill="#6526B8"/>
    <path d="M4.66667 0H0V4.66667H4.66667V0Z" transform="translate(140 51.3333)" fill="#6526B8"/>
    <path d="M4.66667 0H0V4.66667H4.66667V0Z" transform="translate(9.33334 56)" fill="#6526B8"/>
    <path d="M4.66667 0H0V4.66667H4.66667V0Z" transform="translate(14 56)" fill="#6526B8"/>
    <path d="M4.66667 0H0V4.66667H4.66667V0Z" transform="translate(18.6667 56)" fill="#6526B8"/>
    <path d="M4.66667 0H0V4.66667H4.66667V0Z" transform="translate(28 56)" fill="#6526B8"/>
    <path d="M4.66667 0H0V4.66667H4.66667V0Z" transform="translate(37.3333 56)" fill="#6526B8"/>
    <path d="M4.66667 0H0V4.66667H4.66667V0Z" transform="translate(42 56)" fill="#6526B8"/>
    <path d="M4.66667 0H0V4.66667H4.66667V0Z" transform="translate(56 56)" fill="#6526B8"/>
    <path d="M4.66667 0H0V4.66667H4.66667V0Z" transform="translate(79.3333 56)" fill="#6526B8"/>
    <path d="M4.66667 0H0V4.66667H4.66667V0Z" transform="translate(88.6667 56)" fill="#6526B8"/>
    <path d="M4.66667 0H0V4.66667H4.66667V0Z" transform="translate(102.667 56)" fill="#6526B8"/>
    <path d="M4.66667 0H0V4.66667H4.66667V0Z" transform="translate(107.333 56)" fill="#6526B8"/>
    <path d="M4.66667 0H0V4.66667H4.66667V0Z" transform="translate(116.667 56)" fill="#6526B8"/>
    <path d="M4.66667 0H0V4.66667H4.66667V0Z" transform="translate(121.333 56)" fill="#6526B8"/>
    <path d="M4.66667 0H0V4.66667H4.66667V0Z" transform="translate(9.33334 60.6667)" fill="#6526B8"/>
    <path d="M4.66667 0H0V4.66667H4.66667V0Z" transform="translate(18.6667 60.6667)" fill="#6526B8"/>
    <path d="M4.66667 0H0V4.66667H4.66667V0Z" transform="translate(23.3333 60.6667)" fill="#6526B8"/>
    <path d="M4.66667 0H0V4.66667H4.66667V0Z" transform="translate(28 60.6667)" fill="#6526B8"/>
    <path d="M4.66667 0H0V4.66667H4.66667V0Z" transform="translate(42 60.6667)" fill="#6526B8"/>
    <path d="M4.66667 0H0V4.66667H4.66667V0Z" transform="translate(46.6667 60.6667)" fill="#6526B8"/>
    <path d="M4.66667 0H0V4.66667H4.66667V0Z" transform="translate(65.3333 60.6667)" fill="#6526B8"/>
    <path d="M4.66667 0H0V4.66667H4.66667V0Z" transform="translate(93.3333 60.6667)" fill="#6526B8"/>
    <path d="M4.66667 0H0V4.66667H4.66667V0Z" transform="translate(102.667 60.6667)" fill="#6526B8"/>
    <path d="M4.66667 0H0V4.66667H4.66667V0Z" transform="translate(112 60.6667)" fill="#6526B8"/>
    <path d="M4.66667 0H0V4.66667H4.66667V0Z" transform="translate(116.667 60.6667)" fill="#6526B8"/>
    <path d="M4.66667 0H0V4.66667H4.66667V0Z" transform="translate(121.333 60.6667)" fill="#6526B8"/>
    <path d="M4.66667 0H0V4.66667H4.66667V0Z" transform="translate(126 60.6667)" fill="#6526B8"/>
    <path d="M4.66667 0H0V4.66667H4.66667V0Z" transform="translate(135.333 60.6667)" fill="#6526B8"/>
    <path d="M4.66667 0H0V4.66667H4.66667V0Z" transform="translate(18.6667 65.3333)" fill="#6526B8"/>
    <path d="M4.66667 0H0V4.66667H4.66667V0Z" transform="translate(23.3333 65.3333)" fill="#6526B8"/>
    <path d="M4.66667 0H0V4.66667H4.66667V0Z" transform="translate(28 65.3333)" fill="#6526B8"/>
    <path d="M4.66667 0H0V4.66667H4.66667V0Z" transform="translate(37.3333 65.3333)" fill="#6526B8"/>
    <path d="M4.66667 0H0V4.66667H4.66667V0Z" transform="translate(51.3333 65.3333)" fill="#6526B8"/>
    <path d="M4.66667 0H0V4.66667H4.66667V0Z" transform="translate(56 65.3333)" fill="#6526B8"/>
    <path d="M4.66667 0H0V4.66667H4.66667V0Z" transform="translate(65.3333 65.3333)" fill="#6526B8"/>
    <path d="M4.66667 0H0V4.66667H4.66667V0Z" transform="translate(70 65.3333)" fill="#6526B8"/>
    <path d="M4.66667 0H0V4.66667H4.66667V0Z" transform="translate(74.6667 65.3333)" fill="#6526B8"/>
    <path d="M4.66667 0H0V4.66667H4.66667V0Z" transform="translate(98 65.3333)" fill="#6526B8"/>
    <path d="M4.66667 0H0V4.66667H4.66667V0Z" transform="translate(126 65.3333)" fill="#6526B8"/>
    <path d="M4.66667 0H0V4.66667H4.66667V0Z" transform="translate(130.667 65.3333)" fill="#6526B8"/>
    <path d="M4.66667 0H0V4.66667H4.66667V0Z" transform="translate(9.33334 70)" fill="#6526B8"/>
    <path d="M4.66667 0H0V4.66667H4.66667V0Z" transform="translate(18.6667 70)" fill="#6526B8"/>
    <path d="M4.66667 0H0V4.66667H4.66667V0Z" transform="translate(23.3333 70)" fill="#6526B8"/>
    <path d="M4.66667 0H0V4.66667H4.66667V0Z" transform="translate(32.6667 70)" fill="#6526B8"/>
    <path d="M4.66667 0H0V4.66667H4.66667V0Z" transform="translate(42 70)" fill="#6526B8"/>
    <path d="M4.66667 0H0V4.66667H4.66667V0Z" transform="translate(46.6667 70)" fill="#6526B8"/>
    <path d="M4.66667 0H0V4.66667H4.66667V0Z" transform="translate(51.3333 70)" fill="#6526B8"/>
    <path d="M4.66667 0H0V4.66667H4.66667V0Z" transform="translate(70 70)" fill="#6526B8"/>
    <path d="M4.66667 0H0V4.66667H4.66667V0Z" transform="translate(84 70)" fill="#6526B8"/>
    <path d="M4.66667 0H0V4.66667H4.66667V0Z" transform="translate(98 70)" fill="#6526B8"/>
    <path d="M4.66667 0H0V4.66667H4.66667V0Z" transform="translate(102.667 70)" fill="#6526B8"/>
    <path d="M4.66667 0H0V4.66667H4.66667V0Z" transform="translate(107.333 70)" fill="#6526B8"/>
    <path d="M4.66667 0H0V4.66667H4.66667V0Z" transform="translate(112 70)" fill="#6526B8"/>
    <path d="M4.66667 0H0V4.66667H4.66667V0Z" transform="translate(116.667 70)" fill="#6526B8"/>
    <path d="M4.66667 0H0V4.66667H4.66667V0Z" transform="translate(121.333 70)" fill="#6526B8"/>
    <path d="M4.66667 0H0V4.66667H4.66667V0Z" transform="translate(140 70)" fill="#6526B8"/>
    <path d="M4.66667 0H0V4.66667H4.66667V0Z" transform="translate(18.6667 74.6667)" fill="#6526B8"/>
    <path d="M4.66667 0H0V4.66667H4.66667V0Z" transform="translate(23.3333 74.6667)" fill="#6526B8"/>
    <path d="M4.66667 0H0V4.66667H4.66667V0Z" transform="translate(28 74.6667)" fill="#6526B8"/>
    <path d="M4.66667 0H0V4.66667H4.66667V0Z" transform="translate(37.3333 74.6667)" fill="#6526B8"/>
    <path d="M4.66667 0H0V4.66667H4.66667V0Z" transform="translate(42 74.6667)" fill="#6526B8"/>
    <path d="M4.66667 0H0V4.66667H4.66667V0Z" transform="translate(46.6667 74.6667)" fill="#6526B8"/>
    <path d="M4.66667 0H0V4.66667H4.66667V0Z" transform="translate(51.3333 74.6667)" fill="#6526B8"/>
    <path d="M4.66667 0H0V4.66667H4.66667V0Z" transform="translate(56 74.6667)" fill="#6526B8"/>
    <path d="M4.66667 0H0V4.66667H4.66667V0Z" transform="translate(60.6667 74.6667)" fill="#6526B8"/>
    <path d="M4.66667 0H0V4.66667H4.66667V0Z" transform="translate(65.3333 74.6667)" fill="#6526B8"/>
    <path d="M4.66667 0H0V4.66667H4.66667V0Z" transform="translate(70 74.6667)" fill="#6526B8"/>
    <path d="M4.66667 0H0V4.66667H4.66667V0Z" transform="translate(74.6667 74.6667)" fill="#6526B8"/>
    <path d="M4.66667 0H0V4.66667H4.66667V0Z" transform="translate(79.3333 74.6667)" fill="#6526B8"/>
    <path d="M4.66667 0H0V4.66667H4.66667V0Z" transform="translate(84 74.6667)" fill="#6526B8"/>
    <path d="M4.66667 0H0V4.66667H4.66667V0Z" transform="translate(102.667 74.6667)" fill="#6526B8"/>
    <path d="M4.66667 0H0V4.66667H4.66667V0Z" transform="translate(107.333 74.6667)" fill="#6526B8"/>
    <path d="M4.66667 0H0V4.66667H4.66667V0Z" transform="translate(112 74.6667)" fill="#6526B8"/>
    <path d="M4.66667 0H0V4.66667H4.66667V0Z" transform="translate(116.667 74.6667)" fill="#6526B8"/>
    <path d="M4.66667 0H0V4.66667H4.66667V0Z" transform="translate(126 74.6667)" fill="#6526B8"/>
    <path d="M4.66667 0H0V4.66667H4.66667V0Z" transform="translate(130.667 74.6667)" fill="#6526B8"/>
    <path d="M4.66667 0H0V4.66667H4.66667V0Z" transform="translate(14 79.3333)" fill="#6526B8"/>
    <path d="M4.66667 0H0V4.66667H4.66667V0Z" transform="translate(18.6667 79.3333)" fill="#6526B8"/>
    <path d="M4.66667 0H0V4.66667H4.66667V0Z" transform="translate(23.3333 79.3333)" fill="#6526B8"/>
    <path d="M4.66667 0H0V4.66667H4.66667V0Z" transform="translate(28 79.3333)" fill="#6526B8"/>
    <path d="M4.66667 0H0V4.66667H4.66667V0Z" transform="translate(46.6667 79.3333)" fill="#6526B8"/>
    <path d="M4.66667 0H0V4.66667H4.66667V0Z" transform="translate(51.3333 79.3333)" fill="#6526B8"/>
    <path d="M4.66667 0H0V4.66667H4.66667V0Z" transform="translate(60.6667 79.3333)" fill="#6526B8"/>
    <path d="M4.66667 0H0V4.66667H4.66667V0Z" transform="translate(74.6667 79.3333)" fill="#6526B8"/>
    <path d="M4.66667 0H0V4.66667H4.66667V0Z" transform="translate(84 79.3333)" fill="#6526B8"/>
    <path d="M4.66667 0H0V4.66667H4.66667V0Z" transform="translate(93.3333 79.3333)" fill="#6526B8"/>
    <path d="M4.66667 0H0V4.66667H4.66667V0Z" transform="translate(98 79.3333)" fill="#6526B8"/>
    <path d="M4.66667 0H0V4.66667H4.66667V0Z" transform="translate(102.667 79.3333)" fill="#6526B8"/>
    <path d="M4.66667 0H0V4.66667H4.66667V0Z" transform="translate(107.333 79.3333)" fill="#6526B8"/>
    <path d="M4.66667 0H0V4.66667H4.66667V0Z" transform="translate(116.667 79.3333)" fill="#6526B8"/>
    <path d="M4.66667 0H0V4.66667H4.66667V0Z" transform="translate(121.333 79.3333)" fill="#6526B8"/>
    <path d="M4.66667 0H0V4.66667H4.66667V0Z" transform="translate(135.333 79.3333)" fill="#6526B8"/>
    <path d="M4.66667 0H0V4.66667H4.66667V0Z" transform="translate(14 84)" fill="#6526B8"/>
    <path d="M4.66667 0H0V4.66667H4.66667V0Z" transform="translate(37.3333 84)" fill="#6526B8"/>
    <path d="M4.66667 0H0V4.66667H4.66667V0Z" transform="translate(42 84)" fill="#6526B8"/>
    <path d="M4.66667 0H0V4.66667H4.66667V0Z" transform="translate(46.6667 84)" fill="#6526B8"/>
    <path d="M4.66667 0H0V4.66667H4.66667V0Z" transform="translate(51.3333 84)" fill="#6526B8"/>
    <path d="M4.66667 0H0V4.66667H4.66667V0Z" transform="translate(60.6667 84)" fill="#6526B8"/>
    <path d="M4.66667 0H0V4.66667H4.66667V0Z" transform="translate(70 84)" fill="#6526B8"/>
    <path d="M4.66667 0H0V4.66667H4.66667V0Z" transform="translate(74.6667 84)" fill="#6526B8"/>
    <path d="M4.66667 0H0V4.66667H4.66667V0Z" transform="translate(98 84)" fill="#6526B8"/>
    <path d="M4.66667 0H0V4.66667H4.66667V0Z" transform="translate(116.667 84)" fill="#6526B8"/>
    <path d="M4.66667 0H0V4.66667H4.66667V0Z" transform="translate(126 84)" fill="#6526B8"/>
    <path d="M4.66667 0H0V4.66667H4.66667V0Z" transform="translate(130.667 84)" fill="#6526B8"/>
    <path d="M4.66667 0H0V4.66667H4.66667V0Z" transform="translate(9.33334 88.6666)" fill="#6526B8"/>
    <path d="M4.66667 0H0V4.66667H4.66667V0Z" transform="translate(28 88.6666)" fill="#6526B8"/>
    <path d="M4.66667 0H0V4.66667H4.66667V0Z" transform="translate(46.6667 88.6666)" fill="#6526B8"/>
    <path d="M4.66667 0H0V4.66667H4.66667V0Z" transform="translate(65.3333 88.6666)" fill="#6526B8"/>
    <path d="M4.66667 0H0V4.66667H4.66667V0Z" transform="translate(70 88.6666)" fill="#6526B8"/>
    <path d="M4.66667 0H0V4.66667H4.66667V0Z" transform="translate(74.6667 88.6666)" fill="#6526B8"/>
    <path d="M4.66667 0H0V4.66667H4.66667V0Z" transform="translate(79.3333 88.6666)" fill="#6526B8"/>
    <path d="M4.66667 0H0V4.66667H4.66667V0Z" transform="translate(84 88.6666)" fill="#6526B8"/>
    <path d="M4.66667 0H0V4.66667H4.66667V0Z" transform="translate(88.6667 88.6666)" fill="#6526B8"/>
    <path d="M4.66667 0H0V4.66667H4.66667V0Z" transform="translate(93.3333 88.6666)" fill="#6526B8"/>
    <path d="M4.66667 0H0V4.66667H4.66667V0Z" transform="translate(98 88.6666)" fill="#6526B8"/>
    <path d="M4.66667 0H0V4.66667H4.66667V0Z" transform="translate(102.667 88.6666)" fill="#6526B8"/>
    <path d="M4.66667 0H0V4.66667H4.66667V0Z" transform="translate(107.333 88.6666)" fill="#6526B8"/>
    <path d="M4.66667 0H0V4.66667H4.66667V0Z" transform="translate(112 88.6666)" fill="#6526B8"/>
    <path d="M4.66667 0H0V4.66667H4.66667V0Z" transform="translate(116.667 88.6666)" fill="#6526B8"/>
    <path d="M4.66667 0H0V4.66667H4.66667V0Z" transform="translate(121.333 88.6666)" fill="#6526B8"/>
    <path d="M4.66667 0H0V4.66667H4.66667V0Z" transform="translate(130.667 88.6666)" fill="#6526B8"/>
    <path d="M4.66667 0H0V4.66667H4.66667V0Z" transform="translate(140 88.6666)" fill="#6526B8"/>
    <path d="M4.66667 0H0V4.66667H4.66667V0Z" transform="translate(9.33334 93.3334)" fill="#6526B8"/>
    <path d="M4.66667 0H0V4.66667H4.66667V0Z" transform="translate(23.3333 93.3334)" fill="#6526B8"/>
    <path d="M4.66667 0H0V4.66667H4.66667V0Z" transform="translate(32.6667 93.3334)" fill="#6526B8"/>
    <path d="M4.66667 0H0V4.66667H4.66667V0Z" transform="translate(37.3333 93.3334)" fill="#6526B8"/>
    <path d="M4.66667 0H0V4.66667H4.66667V0Z" transform="translate(46.6667 93.3334)" fill="#6526B8"/>
    <path d="M4.66667 0H0V4.66667H4.66667V0Z" transform="translate(70 93.3334)" fill="#6526B8"/>
    <path d="M4.66667 0H0V4.66667H4.66667V0Z" transform="translate(79.3333 93.3334)" fill="#6526B8"/>
    <path d="M4.66667 0H0V4.66667H4.66667V0Z" transform="translate(84 93.3334)" fill="#6526B8"/>
    <path d="M4.66667 0H0V4.66667H4.66667V0Z" transform="translate(102.667 93.3334)" fill="#6526B8"/>
    <path d="M4.66667 0H0V4.66667H4.66667V0Z" transform="translate(107.333 93.3334)" fill="#6526B8"/>
    <path d="M4.66667 0H0V4.66667H4.66667V0Z" transform="translate(130.667 93.3334)" fill="#6526B8"/>
    <path d="M4.66667 0H0V4.66667H4.66667V0Z" transform="translate(9.33334 98)" fill="#6526B8"/>
    <path d="M4.66667 0H0V4.66667H4.66667V0Z" transform="translate(18.6667 98)" fill="#6526B8"/>
    <path d="M4.66667 0H0V4.66667H4.66667V0Z" transform="translate(32.6667 98)" fill="#6526B8"/>
    <path d="M4.66667 0H0V4.66667H4.66667V0Z" transform="translate(42 98)" fill="#6526B8"/>
    <path d="M4.66667 0H0V4.66667H4.66667V0Z" transform="translate(65.3333 98)" fill="#6526B8"/>
    <path d="M4.66667 0H0V4.66667H4.66667V0Z" transform="translate(98 98)" fill="#6526B8"/>
    <path d="M4.66667 0H0V4.66667H4.66667V0Z" transform="translate(116.667 98)" fill="#6526B8"/>
    <path d="M4.66667 0H0V4.66667H4.66667V0Z" transform="translate(135.333 98)" fill="#6526B8"/>
    <path d="M4.66667 0H0V4.66667H4.66667V0Z" transform="translate(9.33334 102.667)" fill="#6526B8"/>
    <path d="M4.66667 0H0V4.66667H4.66667V0Z" transform="translate(23.3333 102.667)" fill="#6526B8"/>
    <path d="M4.66667 0H0V4.66667H4.66667V0Z" transform="translate(32.6667 102.667)" fill="#6526B8"/>
    <path d="M4.66667 0H0V4.66667H4.66667V0Z" transform="translate(37.3333 102.667)" fill="#6526B8"/>
    <path d="M4.66667 0H0V4.66667H4.66667V0Z" transform="translate(42 102.667)" fill="#6526B8"/>
    <path d="M4.66667 0H0V4.66667H4.66667V0Z" transform="translate(46.6667 102.667)" fill="#6526B8"/>
    <path d="M4.66667 0H0V4.66667H4.66667V0Z" transform="translate(56 102.667)" fill="#6526B8"/>
    <path d="M4.66667 0H0V4.66667H4.66667V0Z" transform="translate(65.3333 102.667)" fill="#6526B8"/>
    <path d="M4.66667 0H0V4.66667H4.66667V0Z" transform="translate(74.6667 102.667)" fill="#6526B8"/>
    <path d="M4.66667 0H0V4.66667H4.66667V0Z" transform="translate(102.667 102.667)" fill="#6526B8"/>
    <path d="M4.66667 0H0V4.66667H4.66667V0Z" transform="translate(107.333 102.667)" fill="#6526B8"/>
    <path d="M4.66667 0H0V4.66667H4.66667V0Z" transform="translate(112 102.667)" fill="#6526B8"/>
    <path d="M4.66667 0H0V4.66667H4.66667V0Z" transform="translate(116.667 102.667)" fill="#6526B8"/>
    <path d="M4.66667 0H0V4.66667H4.66667V0Z" transform="translate(121.333 102.667)" fill="#6526B8"/>
    <path d="M4.66667 0H0V4.66667H4.66667V0Z" transform="translate(130.667 102.667)" fill="#6526B8"/>
    <path d="M4.66667 0H0V4.66667H4.66667V0Z" transform="translate(135.333 102.667)" fill="#6526B8"/>
    <path d="M4.66667 0H0V4.66667H4.66667V0Z" transform="translate(140 102.667)" fill="#6526B8"/>
    <path d="M4.66667 0H0V4.66667H4.66667V0Z" transform="translate(46.6667 107.333)" fill="#6526B8"/>
    <path d="M4.66667 0H0V4.66667H4.66667V0Z" transform="translate(51.3333 107.333)" fill="#6526B8"/>
    <path d="M4.66667 0H0V4.66667H4.66667V0Z" transform="translate(56 107.333)" fill="#6526B8"/>
    <path d="M4.66667 0H0V4.66667H4.66667V0Z" transform="translate(70 107.333)" fill="#6526B8"/>
    <path d="M4.66667 0H0V4.66667H4.66667V0Z" transform="translate(84 107.333)" fill="#6526B8"/>
    <path d="M4.66667 0H0V4.66667H4.66667V0Z" transform="translate(88.6667 107.333)" fill="#6526B8"/>
    <path d="M4.66667 0H0V4.66667H4.66667V0Z" transform="translate(93.3333 107.333)" fill="#6526B8"/>
    <path d="M4.66667 0H0V4.66667H4.66667V0Z" transform="translate(102.667 107.333)" fill="#6526B8"/>
    <path d="M4.66667 0H0V4.66667H4.66667V0Z" transform="translate(121.333 107.333)" fill="#6526B8"/>
    <path d="M4.66667 0H0V4.66667H4.66667V0Z" transform="translate(126 107.333)" fill="#6526B8"/>
    <path d="M4.66667 0H0V4.66667H4.66667V0Z" transform="translate(130.667 107.333)" fill="#6526B8"/>
    <path d="M4.66667 0H0V4.66667H4.66667V0Z" transform="translate(135.333 107.333)" fill="#6526B8"/>
    <path d="M4.66667 0H0V4.66667H4.66667V0Z" transform="translate(140 107.333)" fill="#6526B8"/>
    <path d="M4.66667 0H0V4.66667H4.66667V0Z" transform="translate(9.33334 112)" fill="#6526B8"/>
    <path d="M4.66667 0H0V4.66667H4.66667V0Z" transform="translate(14 112)" fill="#6526B8"/>
    <path d="M4.66667 0H0V4.66667H4.66667V0Z" transform="translate(18.6667 112)" fill="#6526B8"/>
    <path d="M4.66667 0H0V4.66667H4.66667V0Z" transform="translate(23.3333 112)" fill="#6526B8"/>
    <path d="M4.66667 0H0V4.66667H4.66667V0Z" transform="translate(28 112)" fill="#6526B8"/>
    <path d="M4.66667 0H0V4.66667H4.66667V0Z" transform="translate(32.6667 112)" fill="#6526B8"/>
    <path d="M4.66667 0H0V4.66667H4.66667V0Z" transform="translate(37.3333 112)" fill="#6526B8"/>
    <path d="M4.66667 0H0V4.66667H4.66667V0Z" transform="translate(46.6667 112)" fill="#6526B8"/>
    <path d="M4.66667 0H0V4.66667H4.66667V0Z" transform="translate(51.3333 112)" fill="#6526B8"/>
    <path d="M4.66667 0H0V4.66667H4.66667V0Z" transform="translate(60.6667 112)" fill="#6526B8"/>
    <path d="M4.66667 0H0V4.66667H4.66667V0Z" transform="translate(65.3333 112)" fill="#6526B8"/>
    <path d="M4.66667 0H0V4.66667H4.66667V0Z" transform="translate(70 112)" fill="#6526B8"/>
    <path d="M4.66667 0H0V4.66667H4.66667V0Z" transform="translate(79.3333 112)" fill="#6526B8"/>
    <path d="M4.66667 0H0V4.66667H4.66667V0Z" transform="translate(98 112)" fill="#6526B8"/>
    <path d="M4.66667 0H0V4.66667H4.66667V0Z" transform="translate(102.667 112)" fill="#6526B8"/>
    <path d="M4.66667 0H0V4.66667H4.66667V0Z" transform="translate(112 112)" fill="#6526B8"/>
    <path d="M4.66667 0H0V4.66667H4.66667V0Z" transform="translate(121.333 112)" fill="#6526B8"/>
    <path d="M4.66667 0H0V4.66667H4.66667V0Z" transform="translate(126 112)" fill="#6526B8"/>
    <path d="M4.66667 0H0V4.66667H4.66667V0Z" transform="translate(130.667 112)" fill="#6526B8"/>
    <path d="M4.66667 0H0V4.66667H4.66667V0Z" transform="translate(9.33334 116.667)" fill="#6526B8"/>
    <path d="M4.66667 0H0V4.66667H4.66667V0Z" transform="translate(37.3333 116.667)" fill="#6526B8"/>
    <path d="M4.66667 0H0V4.66667H4.66667V0Z" transform="translate(56 116.667)" fill="#6526B8"/>
    <path d="M4.66667 0H0V4.66667H4.66667V0Z" transform="translate(60.6667 116.667)" fill="#6526B8"/>
    <path d="M4.66667 0H0V4.66667H4.66667V0Z" transform="translate(74.6667 116.667)" fill="#6526B8"/>
    <path d="M4.66667 0H0V4.66667H4.66667V0Z" transform="translate(93.3333 116.667)" fill="#6526B8"/>
    <path d="M4.66667 0H0V4.66667H4.66667V0Z" transform="translate(98 116.667)" fill="#6526B8"/>
    <path d="M4.66667 0H0V4.66667H4.66667V0Z" transform="translate(102.667 116.667)" fill="#6526B8"/>
    <path d="M4.66667 0H0V4.66667H4.66667V0Z" transform="translate(121.333 116.667)" fill="#6526B8"/>
    <path d="M4.66667 0H0V4.66667H4.66667V0Z" transform="translate(135.333 116.667)" fill="#6526B8"/>
    <path d="M4.66667 0H0V4.66667H4.66667V0Z" transform="translate(9.33334 121.333)" fill="#6526B8"/>
    <path d="M4.66667 0H0V4.66667H4.66667V0Z" transform="translate(18.6667 121.333)" fill="#6526B8"/>
    <path d="M4.66667 0H0V4.66667H4.66667V0Z" transform="translate(23.3333 121.333)" fill="#6526B8"/>
    <path d="M4.66667 0H0V4.66667H4.66667V0Z" transform="translate(28 121.333)" fill="#6526B8"/>
    <path d="M4.66667 0H0V4.66667H4.66667V0Z" transform="translate(37.3333 121.333)" fill="#6526B8"/>
    <path d="M4.66667 0H0V4.66667H4.66667V0Z" transform="translate(46.6667 121.333)" fill="#6526B8"/>
    <path d="M4.66667 0H0V4.66667H4.66667V0Z" transform="translate(51.3333 121.333)" fill="#6526B8"/>
    <path d="M4.66667 0H0V4.66667H4.66667V0Z" transform="translate(60.6667 121.333)" fill="#6526B8"/>
    <path d="M4.66667 0H0V4.66667H4.66667V0Z" transform="translate(65.3333 121.333)" fill="#6526B8"/>
    <path d="M4.66667 0H0V4.66667H4.66667V0Z" transform="translate(70 121.333)" fill="#6526B8"/>
    <path d="M4.66667 0H0V4.66667H4.66667V0Z" transform="translate(74.6667 121.333)" fill="#6526B8"/>
    <path d="M4.66667 0H0V4.66667H4.66667V0Z" transform="translate(84 121.333)" fill="#6526B8"/>
    <path d="M4.66667 0H0V4.66667H4.66667V0Z" transform="translate(88.6667 121.333)" fill="#6526B8"/>
    <path d="M4.66667 0H0V4.66667H4.66667V0Z" transform="translate(102.667 121.333)" fill="#6526B8"/>
    <path d="M4.66667 0H0V4.66667H4.66667V0Z" transform="translate(107.333 121.333)" fill="#6526B8"/>
    <path d="M4.66667 0H0V4.66667H4.66667V0Z" transform="translate(112 121.333)" fill="#6526B8"/>
    <path d="M4.66667 0H0V4.66667H4.66667V0Z" transform="translate(116.667 121.333)" fill="#6526B8"/>
    <path d="M4.66667 0H0V4.66667H4.66667V0Z" transform="translate(121.333 121.333)" fill="#6526B8"/>
    <path d="M4.66667 0H0V4.66667H4.66667V0Z" transform="translate(130.667 121.333)" fill="#6526B8"/>
    <path d="M4.66667 0H0V4.66667H4.66667V0Z" transform="translate(140 121.333)" fill="#6526B8"/>
    <path d="M4.66667 0H0V4.66667H4.66667V0Z" transform="translate(9.33334 126)" fill="#6526B8"/>
    <path d="M4.66667 0H0V4.66667H4.66667V0Z" transform="translate(18.6667 126)" fill="#6526B8"/>
    <path d="M4.66667 0H0V4.66667H4.66667V0Z" transform="translate(23.3333 126)" fill="#6526B8"/>
    <path d="M4.66667 0H0V4.66667H4.66667V0Z" transform="translate(28 126)" fill="#6526B8"/>
    <path d="M4.66667 0H0V4.66667H4.66667V0Z" transform="translate(37.3333 126)" fill="#6526B8"/>
    <path d="M4.66667 0H0V4.66667H4.66667V0Z" transform="translate(46.6667 126)" fill="#6526B8"/>
    <path d="M4.66667 0H0V4.66667H4.66667V0Z" transform="translate(51.3333 126)" fill="#6526B8"/>
    <path d="M4.66667 0H0V4.66667H4.66667V0Z" transform="translate(56 126)" fill="#6526B8"/>
    <path d="M4.66667 0H0V4.66667H4.66667V0Z" transform="translate(65.3333 126)" fill="#6526B8"/>
    <path d="M4.66667 0H0V4.66667H4.66667V0Z" transform="translate(79.3333 126)" fill="#6526B8"/>
    <path d="M4.66667 0H0V4.66667H4.66667V0Z" transform="translate(84 126)" fill="#6526B8"/>
    <path d="M4.66667 0H0V4.66667H4.66667V0Z" transform="translate(102.667 126)" fill="#6526B8"/>
    <path d="M4.66667 0H0V4.66667H4.66667V0Z" transform="translate(126 126)" fill="#6526B8"/>
    <path d="M4.66667 0H0V4.66667H4.66667V0Z" transform="translate(130.667 126)" fill="#6526B8"/>
    <path d="M4.66667 0H0V4.66667H4.66667V0Z" transform="translate(135.333 126)" fill="#6526B8"/>
    <path d="M4.66667 0H0V4.66667H4.66667V0Z" transform="translate(140 126)" fill="#6526B8"/>
    <path d="M4.66667 0H0V4.66667H4.66667V0Z" transform="translate(9.33334 130.667)" fill="#6526B8"/>
    <path d="M4.66667 0H0V4.66667H4.66667V0Z" transform="translate(18.6667 130.667)" fill="#6526B8"/>
    <path d="M4.66667 0H0V4.66667H4.66667V0Z" transform="translate(23.3333 130.667)" fill="#6526B8"/>
    <path d="M4.66667 0H0V4.66667H4.66667V0Z" transform="translate(28 130.667)" fill="#6526B8"/>
    <path d="M4.66667 0H0V4.66667H4.66667V0Z" transform="translate(37.3333 130.667)" fill="#6526B8"/>
    <path d="M4.66667 0H0V4.66667H4.66667V0Z" transform="translate(46.6667 130.667)" fill="#6526B8"/>
    <path d="M4.66667 0H0V4.66667H4.66667V0Z" transform="translate(74.6667 130.667)" fill="#6526B8"/>
    <path d="M4.66667 0H0V4.66667H4.66667V0Z" transform="translate(79.3333 130.667)" fill="#6526B8"/>
    <path d="M4.66667 0H0V4.66667H4.66667V0Z" transform="translate(88.6667 130.667)" fill="#6526B8"/>
    <path d="M4.66667 0H0V4.66667H4.66667V0Z" transform="translate(98 130.667)" fill="#6526B8"/>
    <path d="M4.66667 0H0V4.66667H4.66667V0Z" transform="translate(102.667 130.667)" fill="#6526B8"/>
    <path d="M4.66667 0H0V4.66667H4.66667V0Z" transform="translate(112 130.667)" fill="#6526B8"/>
    <path d="M4.66667 0H0V4.66667H4.66667V0Z" transform="translate(121.333 130.667)" fill="#6526B8"/>
    <path d="M4.66667 0H0V4.66667H4.66667V0Z" transform="translate(126 130.667)" fill="#6526B8"/>
    <path d="M4.66667 0H0V4.66667H4.66667V0Z" transform="translate(130.667 130.667)" fill="#6526B8"/>
    <path d="M4.66667 0H0V4.66667H4.66667V0Z" transform="translate(135.333 130.667)" fill="#6526B8"/>
    <path d="M4.66667 0H0V4.66667H4.66667V0Z" transform="translate(9.33334 135.333)" fill="#6526B8"/>
    <path d="M4.66667 0H0V4.66667H4.66667V0Z" transform="translate(37.3333 135.333)" fill="#6526B8"/>
    <path d="M4.66667 0H0V4.66667H4.66667V0Z" transform="translate(46.6667 135.333)" fill="#6526B8"/>
    <path d="M4.66667 0H0V4.66667H4.66667V0Z" transform="translate(51.3333 135.333)" fill="#6526B8"/>
    <path d="M4.66667 0H0V4.66667H4.66667V0Z" transform="translate(60.6667 135.333)" fill="#6526B8"/>
    <path d="M4.66667 0H0V4.66667H4.66667V0Z" transform="translate(65.3333 135.333)" fill="#6526B8"/>
    <path d="M4.66667 0H0V4.66667H4.66667V0Z" transform="translate(79.3333 135.333)" fill="#6526B8"/>
    <path d="M4.66667 0H0V4.66667H4.66667V0Z" transform="translate(93.3333 135.333)" fill="#6526B8"/>
    <path d="M4.66667 0H0V4.66667H4.66667V0Z" transform="translate(102.667 135.333)" fill="#6526B8"/>
    <path d="M4.66667 0H0V4.66667H4.66667V0Z" transform="translate(116.667 135.333)" fill="#6526B8"/>
    <path d="M4.66667 0H0V4.66667H4.66667V0Z" transform="translate(121.333 135.333)" fill="#6526B8"/>
    <path d="M4.66667 0H0V4.66667H4.66667V0Z" transform="translate(126 135.333)" fill="#6526B8"/>
    <path d="M4.66667 0H0V4.66667H4.66667V0Z" transform="translate(135.333 135.333)" fill="#6526B8"/>
    <path d="M4.66667 0H0V4.66667H4.66667V0Z" transform="translate(9.33334 140)" fill="#6526B8"/>
    <path d="M4.66667 0H0V4.66667H4.66667V0Z" transform="translate(14 140)" fill="#6526B8"/>
    <path d="M4.66667 0H0V4.66667H4.66667V0Z" transform="translate(18.6667 140)" fill="#6526B8"/>
    <path d="M4.66667 0H0V4.66667H4.66667V0Z" transform="translate(23.3333 140)" fill="#6526B8"/>
    <path d="M4.66667 0H0V4.66667H4.66667V0Z" transform="translate(28 140)" fill="#6526B8"/>
    <path d="M4.66667 0H0V4.66667H4.66667V0Z" transform="translate(32.6667 140)" fill="#6526B8"/>
    <path d="M4.66667 0H0V4.66667H4.66667V0Z" transform="translate(37.3333 140)" fill="#6526B8"/>
    <path d="M4.66667 0H0V4.66667H4.66667V0Z" transform="translate(46.6667 140)" fill="#6526B8"/>
    <path d="M4.66667 0H0V4.66667H4.66667V0Z" transform="translate(51.3333 140)" fill="#6526B8"/>
    <path d="M4.66667 0H0V4.66667H4.66667V0Z" transform="translate(56 140)" fill="#6526B8"/>
    <path d="M4.66667 0H0V4.66667H4.66667V0Z" transform="translate(60.6667 140)" fill="#6526B8"/>
    <path d="M4.66667 0H0V4.66667H4.66667V0Z" transform="translate(65.3333 140)" fill="#6526B8"/>
    <path d="M4.66667 0H0V4.66667H4.66667V0Z" transform="translate(70 140)" fill="#6526B8"/>
    <path d="M4.66667 0H0V4.66667H4.66667V0Z" transform="translate(74.6667 140)" fill="#6526B8"/>
    <path d="M4.66667 0H0V4.66667H4.66667V0Z" transform="translate(84 140)" fill="#6526B8"/>
    <path d="M4.66667 0H0V4.66667H4.66667V0Z" transform="translate(88.6667 140)" fill="#6526B8"/>
    <path d="M4.66667 0H0V4.66667H4.66667V0Z" transform="translate(93.3333 140)" fill="#6526B8"/>
    <path d="M4.66667 0H0V4.66667H4.66667V0Z" transform="translate(107.333 140)" fill="#6526B8"/>
    <path d="M4.66667 0H0V4.66667H4.66667V0Z" transform="translate(116.667 140)" fill="#6526B8"/>
    <path d="M4.66667 0H0V4.66667H4.66667V0Z" transform="translate(121.333 140)" fill="#6526B8"/>
    <path d="M4.66667 0H0V4.66667H4.66667V0Z" transform="translate(126 140)" fill="#6526B8"/>
    <path d="M4.66667 0H0V4.66667H4.66667V0Z" transform="translate(130.667 140)" fill="#6526B8"/>
</svg>
