<svg width="57" height="92" viewBox="0 0 57 92" fill="none" xmlns="http://www.w3.org/2000/svg">
  <path d="M10.9911 25.465C13.5361 22.8672 18.4028 17.1083 18.8789 10.6492C19.2996 4.94201 14.966 -0.0651188 9.3472 0.000642952C4.17477 0.0612504 1.29944e-06 4.35069 1.29944e-06 9.63314C1.29944e-06 16.4933 5.23927 22.7211 7.91885 25.4579C8.76661 26.3236 10.1435 26.3302 10.9911 25.465Z" transform="translate(19.0404 59.7928)" fill="#F7B96D"/>
  <path d="M5.33665 12.3648C6.57252 11.1034 8.93536 8.30709 9.16676 5.17079C9.37111 2.39955 7.26688 -0.0316806 4.53862 0.000311611C2.02692 0.0298155 4.47348e-07 2.11251 4.47348e-07 4.67757C4.47348e-07 8.00849 2.54398 11.0325 3.84512 12.3614C4.25644 12.7819 4.92498 12.7851 5.33665 12.3648Z" transform="translate(23.904 64.5233)" fill="#FDE27C"/>
  <path d="M18.9773 7.0893H2.03808C0.912504 7.0893 1.21423e-06 6.15992 1.21423e-06 5.01353V-2.03943e-06H21.0154V5.01353C21.0154 6.15974 20.103 7.0893 18.9773 7.0893Z" transform="translate(17.9911 60.2088)" fill="#5B6EA2"/>
  <g opacity="0.1">
  <path opacity="0.1" d="M2.61797 0H0V7.08947H2.61797V0Z" transform="translate(30.6922 60.2091)" fill="black"/>
  <path opacity="0.1" d="M2.61798 0H0V7.08947H2.61798V0Z" transform="translate(23.6883 60.2091)" fill="black"/>
  </g>
  <path d="M2.9478 6.00458C4.57582 6.00458 5.89559 4.66041 5.89559 3.00229C5.89559 1.34417 4.57582 0 2.9478 0C1.31977 0 0 1.34417 0 3.00229C0 4.66041 1.31977 6.00458 2.9478 6.00458Z" transform="translate(37.4097 79.8991)" fill="#F7B96D"/>
  <path d="M2.78306 5.66902C4.3201 5.66902 5.56612 4.39996 5.56612 2.83451C5.56612 1.26905 4.3201 0 2.78306 0C1.24602 0 0 1.26905 0 2.83451C0 4.39996 1.24602 5.66902 2.78306 5.66902Z" transform="translate(15.4511 84.6192)" fill="#F7B96D"/>
  <path d="M12.2088 2.16961e-07L8.22637 2.33632C1.16628 6.47824 -1.84382 15.2665 1.15476 22.9821C1.84041 24.7463 4.34495 24.5752 4.79309 22.7337C6.01134 17.7279 10.2793 14.107 15.3332 13.7915L12.2088 2.16961e-07Z" transform="translate(1.30631 45.0059)" fill="#EC7887"/>
  <path d="M3.1244 2.16961e-07L7.10686 2.33632C14.167 6.47824 17.177 15.2665 14.1785 22.9821C13.493 24.7463 10.9883 24.5752 10.5401 22.7337C9.3219 17.7279 5.05394 14.107 -1.95981e-06 13.7915L3.1244 2.16961e-07Z" transform="translate(40.3582 45.0059)" fill="#EC7887"/>
  <path opacity="0.1" d="M7.10721 2.33632L3.12475 2.16961e-07L-3.40837e-07 13.7911C1.936 13.912 3.75577 14.5193 5.33385 15.5022C5.64675 14.9859 5.8935 14.4205 6.05876 13.816C7.05852 10.1621 7.80001 6.58737 8.28514 3.0988C7.90576 2.8306 7.51399 2.57484 7.10721 2.33632Z" transform="translate(40.3577 45.0059)" fill="black"/>
  <path opacity="0.1" d="M1.17811 2.33614C0.771329 2.57466 0.379556 2.83042 -2.34325e-07 3.0988C0.484959 6.58737 1.2268 10.1621 2.22621 13.816C2.39164 14.4205 2.63839 14.9859 2.95111 15.5022C4.52919 14.5191 6.34879 13.912 8.28497 13.7911L5.16022 -1.23668e-06L1.17811 2.33614Z" transform="translate(8.35459 45.0061)" fill="black"/>
  <path d="M32.0907 55.945C39.5303 28.7513 30.8714 10.6515 20.0519 1.00056C18.5563 -0.333519 16.3176 -0.333519 14.822 1.00056C4.00233 10.6515 -4.65661 28.7513 2.78321 55.945C3.15684 57.3111 4.37909 58.2577 5.7715 58.2577H29.1026C30.4948 58.2577 31.7171 57.3111 32.0907 55.945Z" transform="translate(11.0619 1.95088)" fill="#B8DBFF"/>
  <path d="M13.0473 16.9196C17.2838 16.9196 21.5815 16.6528 26.0946 15.2571C23.3836 9.31524 19.6627 4.5708 15.6449 0.991225C14.1615 -0.330408 11.9332 -0.330408 10.4497 0.991225C6.43186 4.57097 2.71099 9.31524 -3.62139e-07 15.2571C4.51314 16.6528 8.81076 16.9196 13.0473 16.9196Z" transform="translate(15.4515 1.94475)" fill="#5B6EA2"/>
  <path d="M7.48118 15.239C11.6129 15.239 14.9624 11.8276 14.9624 7.61948C14.9624 3.41136 11.6129 0 7.48118 0C3.34944 0 0 3.41136 0 7.61948C0 11.8276 3.34944 15.239 7.48118 15.239Z" transform="translate(21.0171 25.0767)" fill="#EEF0F1"/>
  <path d="M9.51403 19.38C4.26778 19.38 1.25684e-06 15.033 1.25684e-06 9.69008C1.25684e-06 4.34685 4.26813 4.33922e-08 9.51403 4.33922e-08C14.7599 4.33922e-08 19.0281 4.34703 19.0281 9.69008C19.0282 15.0331 14.7603 19.38 9.51403 19.38ZM9.51403 4.14103C6.50987 4.14103 4.0657 6.63038 4.0657 9.69008C4.0657 12.7498 6.50987 15.239 9.51403 15.239C12.5182 15.239 14.9624 12.7496 14.9624 9.69008C14.9624 6.63021 12.5182 4.14103 9.51403 4.14103Z" transform="translate(18.9848 23.0066)" fill="#609AD6"/>
  <path d="M3.5167 5.70599C5.45891 5.70599 7.03339 4.42866 7.03339 2.853C7.03339 1.27733 5.45891 0 3.5167 0C1.57448 0 0 1.27733 0 2.853C0 4.42866 1.57448 5.70599 3.5167 5.70599Z" transform="translate(15.4506 49.0426)" fill="white"/>
  <path d="M3.5167 5.70599C5.45892 5.70599 7.03339 4.42866 7.03339 2.853C7.03339 1.27733 5.45892 0 3.5167 0C1.57448 0 0 1.27733 0 2.853C0 4.42866 1.57448 5.70599 3.5167 5.70599Z" transform="translate(34.5125 49.0426)" fill="white"/>
  <path d="M1.26152 2.56969C1.95824 2.56969 2.52304 1.99444 2.52304 1.28484C2.52304 0.575243 1.95824 0 1.26152 0C0.564802 0 0 0.575243 0 1.28484C0 1.99444 0.564802 2.56969 1.26152 2.56969Z" transform="translate(27.2367 14.2793)" fill="#B8DBFF"/>
  <path d="M1.26152 2.56968C1.95824 2.56968 2.52305 1.99444 2.52305 1.28484C2.52305 0.575243 1.95824 0 1.26152 0C0.564803 0 0 0.575243 0 1.28484C0 1.99444 0.564803 2.56968 1.26152 2.56968Z" transform="translate(20.088 13.7568)" fill="#B8DBFF"/>
  <path d="M1.26152 2.56968C1.95824 2.56968 2.52304 1.99444 2.52304 1.28484C2.52304 0.575243 1.95824 0 1.26152 0C0.564801 0 -2.55628e-06 0.575243 -2.55628e-06 1.28484C-2.55628e-06 1.99444 0.564801 2.56968 1.26152 2.56968Z" transform="translate(34.3872 13.7568)" fill="#B8DBFF"/>
  <path opacity="0.1" d="M1.21423e-06 5.01371C1.21423e-06 6.1601 0.912504 7.08947 2.03808 7.08947H6.5692C5.29668 6.27172 4.59062 5.27498 4.24684 4.28767C3.97059 3.49408 4.55624 2.66211 5.38307 2.66211H21.0154V2.12622e-06H1.21423e-06V5.01371Z" transform="translate(17.9911 60.2086)" fill="black"/>
  <path opacity="0.1" d="M13.9796 -1.89841e-08C3.56146 9.82907 -4.46227 27.6862 2.78297 54.1701C3.1566 55.5362 4.37885 56.4828 5.77126 56.4828H14.4189C0.0765206 45.4709 6.59057 13.8206 13.9796 -1.89841e-08Z" transform="translate(11.062 3.72565)" fill="black"/>
  <path d="M19.7086 47.163V48.428C19.7086 49.1642 20.2946 49.7612 21.0176 49.7612C21.7406 49.7612 22.3266 49.1643 22.3266 48.428V47.163C22.3266 46.4269 21.7406 45.8299 21.0176 45.8299C20.2946 45.8299 19.7086 46.4269 19.7086 47.163ZM40.3577 77.9433C38.0104 77.9433 36.1007 79.888 36.1007 82.2789C36.1007 84.6696 38.0102 86.6146 40.3577 86.6146C42.705 86.6146 44.6146 84.6698 44.6146 82.2789C44.6146 79.8882 42.7052 77.9433 40.3577 77.9433ZM40.3577 83.948C39.4539 83.948 38.7187 83.1994 38.7187 82.2787C38.7187 81.3581 39.4537 80.6095 40.3577 80.6095C41.2614 80.6095 41.9967 81.3581 41.9967 82.2787C41.9967 83.1994 41.2616 83.948 40.3577 83.948ZM18.2345 82.6648C15.9781 82.6648 14.1425 84.5344 14.1425 86.8325C14.1425 89.1306 15.9783 91 18.2345 91C20.4909 91 22.3266 89.1304 22.3266 86.8323C22.3266 84.5344 20.4909 82.6648 18.2345 82.6648ZM18.2345 88.3336C17.4217 88.3336 16.7605 87.6602 16.7605 86.8323C16.7605 86.0044 17.4217 85.331 18.2345 85.331C19.0474 85.331 19.7086 86.0044 19.7086 86.8323C19.7086 87.6602 19.0474 88.3336 18.2345 88.3336ZM28.4988 21.0512C22.5309 21.0512 17.6758 25.9961 17.6758 32.0745C17.6758 38.1526 22.5309 43.0975 28.4988 43.0975C34.4666 43.0975 39.3218 38.1526 39.3218 32.0745C39.3218 25.9963 34.4666 21.0512 28.4988 21.0512ZM28.4988 40.4313C23.9745 40.4313 20.2936 36.6826 20.2936 32.0745C20.2936 27.4663 23.9743 23.7174 28.4988 23.7174C33.0233 23.7174 36.704 27.4662 36.704 32.0745C36.704 36.6824 33.0231 40.4313 28.4988 40.4313ZM29.4846 47.6079C29.2355 47.8989 28.8764 48.0658 28.4988 48.0658C28.1215 48.0658 27.7623 47.8989 27.513 47.6079C27.038 47.0528 26.2111 46.9951 25.6663 47.4789C25.1213 47.9627 25.0646 48.8048 25.5396 49.3598C26.286 50.2322 27.3646 50.7323 28.4988 50.7323C29.6329 50.7323 30.7115 50.2322 31.4579 49.3598C31.9329 48.805 31.8762 47.9627 31.3312 47.4789C30.7864 46.9953 29.9594 47.0528 29.4846 47.6079ZM56.6866 57.8383C56.5514 57.1151 55.8652 56.6402 55.1558 56.7783C54.4457 56.916 53.9796 57.6144 54.1151 58.3374C54.6513 61.2032 54.3763 64.1555 53.3193 66.875C53.1778 67.2392 52.8804 67.2753 52.7158 67.2632C52.5511 67.252 52.2611 67.1763 52.1686 66.7963C51.1543 62.6291 48.236 59.2812 44.3801 57.7372C44.3907 57.7016 44.404 57.6673 44.4138 57.6314C45.3402 54.2456 46.0372 50.933 46.5096 47.6978L46.8117 47.875C48.9587 49.1346 50.7837 50.9278 52.0892 53.0608C52.3373 53.4662 52.7642 53.6889 53.2013 53.6889C53.4376 53.6889 53.677 53.6237 53.8924 53.487C54.5058 53.0976 54.6932 52.2752 54.3107 51.6505C52.7783 49.1466 50.6371 47.0422 48.1182 45.5645L46.8724 44.8338C47.7031 36.9901 47.1591 29.6326 45.2382 22.8532C44.5757 20.5153 43.7472 18.2575 42.7643 16.0952C42.7436 16.041 42.7205 15.9882 42.6936 15.9383C40.1118 10.3119 36.4782 5.34194 31.9762 1.32621C29.9938 -0.44207 27.0039 -0.44207 25.0213 1.32621C20.5426 5.32133 16.8873 10.3169 14.3028 15.9401C14.2768 15.9886 14.2545 16.0396 14.2343 16.0922C13.6666 17.3392 13.1504 18.6164 12.6906 19.9204C12.4463 20.6132 12.7996 21.3768 13.48 21.6258C14.1599 21.8748 14.91 21.5147 15.1545 20.8217C15.4703 19.9259 15.8153 19.0446 16.1856 18.177C20.6735 19.3988 24.9053 19.5755 28.4988 19.5755C32.0926 19.5755 36.3251 19.3986 40.8137 18.1765C41.5276 19.8532 42.174 21.656 42.7228 23.5928C44.612 30.2601 45.0956 37.5398 44.1799 45.334C44.1735 45.3738 44.1689 45.4134 44.1661 45.4534C43.7241 49.1615 42.9669 52.9854 41.8916 56.9162C41.6761 57.7038 40.9658 58.2537 40.1643 58.2537H16.8332C16.0315 58.2537 15.3215 57.7038 15.1059 56.9162C14.0266 52.971 13.2682 49.1283 12.8274 45.3994C12.8265 45.3914 12.8256 45.3834 12.8246 45.3754C12.0503 38.8044 12.2679 32.5895 13.4839 26.805C13.6352 26.0852 13.1849 25.3764 12.4778 25.2223C11.7707 25.068 11.0751 25.5269 10.9238 26.2469C9.70036 32.0665 9.4379 38.2845 10.1291 44.8321L8.8793 45.5652C5.19263 47.7279 2.39038 51.1726 0.988898 55.264C-0.412406 59.3556 -0.321836 63.8278 1.24403 67.8568C1.74155 69.1369 2.89663 69.9321 4.22673 69.9321C4.30281 69.9321 4.37977 69.9294 4.45691 69.9242C5.88264 69.8269 7.02619 68.8509 7.36998 67.4383C8.22926 63.9076 10.8033 61.1138 14.1674 60.0019C14.8784 60.552 15.7523 60.8809 16.6821 60.9136V64.6006C16.6821 65.6348 17.1381 66.5608 17.8544 67.1866C17.7757 67.723 17.7316 68.2638 17.7316 68.8043C17.7316 72.0425 18.7898 75.4578 20.8764 78.9553C22.58 81.8102 24.6207 84.1284 26.0326 85.5704C26.6917 86.2436 27.5686 86.6146 28.5016 86.6148H28.5021C29.4308 86.6148 30.3032 86.2463 30.9585 85.5775C33.8309 82.6456 38.7243 76.7126 39.2251 69.92C39.2918 69.0157 39.2516 68.1112 39.1084 67.2191C39.8457 66.5933 40.316 65.652 40.316 64.6004V60.9131C41.2456 60.8804 42.1195 60.5516 42.8306 60.0013C46.1948 61.1132 48.7688 63.9072 49.6281 67.4377C49.9719 68.8506 51.1154 69.8263 52.5412 69.9237C52.6185 69.9289 52.6953 69.9315 52.7713 69.9315C54.1014 69.9315 55.2567 69.1362 55.754 67.8563C56.9934 64.6662 57.3161 61.2018 56.6866 57.8383ZM28.4988 16.9091C25.2054 16.9091 21.3568 16.7553 17.3236 15.7227C19.7021 10.9823 22.9009 6.76204 26.7462 3.33194C27.7454 2.44061 29.2521 2.44078 30.2512 3.33194C33.173 5.93824 36.7968 9.97459 39.6771 15.7218C35.6428 16.7552 31.793 16.9091 28.4988 16.9091ZM4.82913 66.7965C4.73664 67.1765 4.44661 67.2522 4.28187 67.2634C4.11819 67.2753 3.82012 67.2392 3.67842 66.8752C2.34378 63.441 2.26647 59.6292 3.46099 56.142C4.6555 52.6547 7.04382 49.7189 10.1864 47.8756L10.49 47.6975C10.9619 50.9356 11.6589 54.2493 12.5843 57.6321C12.5941 57.668 12.6073 57.7023 12.618 57.7379C8.76168 59.2813 5.8432 62.6293 4.82913 66.7965ZM36.6143 69.72C36.1604 75.8776 31.2115 81.5438 29.105 83.6939C28.9445 83.8577 28.7303 83.948 28.5021 83.948C28.2696 83.948 28.0512 83.8554 27.8866 83.6873C25.6204 81.3728 20.3497 75.2899 20.3497 68.8038C20.3497 68.5388 20.3658 68.2736 20.3908 68.009H36.575C36.6424 68.576 36.6563 69.1481 36.6143 69.72ZM37.6975 64.6002C37.6975 65.0097 37.3704 65.3428 36.9684 65.3428H20.0292C19.9323 65.3428 19.8402 65.3225 19.7555 65.2875C19.7501 65.2856 19.7451 65.2829 19.7397 65.2811C19.4814 65.1668 19.3001 64.905 19.3001 64.6004V60.9199H37.6975V64.6002ZM28.4988 25.1924C24.7728 25.1924 21.7416 28.2796 21.7416 32.0746C21.7416 35.8694 24.7728 38.9567 28.4988 38.9567C32.2247 38.9567 35.2559 35.8694 35.2559 32.0746C35.2559 28.2796 32.2247 25.1924 28.4988 25.1924ZM28.4988 36.2901C26.2164 36.2901 24.3596 34.399 24.3596 32.0745C24.3596 29.7497 26.2164 27.8586 28.4988 27.8586C30.7812 27.8586 32.6379 29.7497 32.6379 32.0745C32.6379 34.399 30.7812 36.2901 28.4988 36.2901ZM34.671 47.163V48.428C34.671 49.1642 35.257 49.7612 35.9799 49.7612C36.7029 49.7612 37.2889 49.1643 37.2889 48.428V47.163C37.2889 46.4269 36.7029 45.8299 35.9799 45.8299C35.257 45.8299 34.671 46.4269 34.671 47.163Z" transform="translate(3.05176e-05 0.622086)" fill="black"/>
</svg>
