<svg width="32" height="32" viewBox="0 0 32 32" fill="none" xmlns="http://www.w3.org/2000/svg">
  <path d="M7.25 0C3.25231 0 0 3.25237 0 7.25C0 11.2476 3.25231 14.5 7.25 14.5C7.99669 14.5 8.73344 14.3867 9.43975 14.1631C10.0979 13.9548 10.4626 13.2524 10.2542 12.5942C10.046 11.936 9.34338 11.5713 8.68531 11.7796C8.22331 11.9259 7.74044 12 7.25 12C4.63088 12 2.5 9.86919 2.5 7.25C2.5 4.63081 4.63088 2.5 7.25 2.5C9.86913 2.5 12 4.63081 12 7.25C12 7.70519 11.936 8.15494 11.8097 8.58662C11.6159 9.24925 11.9959 9.94344 12.6586 10.1373C13.3213 10.3311 14.0154 9.951 14.2092 9.28838C14.4022 8.62863 14.5 7.94275 14.5 7.25C14.5 3.25237 11.2477 0 7.25 0Z" transform="translate(8.75 8.75)" fill="black"/>
  <path d="M28.25 11.6251H27.6206C27.4549 11.6251 27.3048 11.5208 27.2398 11.3634L27.2287 11.3364C27.1614 11.1743 27.1936 10.9938 27.3106 10.8767L27.7558 10.4316C29.2179 8.96944 29.2179 6.59037 27.7558 5.12825L26.8719 4.24438C26.1636 3.53606 25.2219 3.146 24.2202 3.146C23.2185 3.146 22.2768 3.53606 21.5686 4.24438L21.1235 4.68944C21.0063 4.80662 20.8257 4.83875 20.6643 4.77169L20.6408 4.76194C20.4793 4.69525 20.3751 4.54519 20.3751 4.37962V3.75C20.3751 1.68225 18.6928 0 16.6251 0H15.3751C13.3073 0 11.6251 1.68225 11.6251 3.75V4.37962C11.6251 4.54519 11.5208 4.69525 11.3608 4.76131L11.3363 4.77144C11.1744 4.83881 10.9937 4.80662 10.8767 4.6895L10.4316 4.24438C9.72331 3.53606 8.78156 3.146 7.77987 3.146C6.77819 3.146 5.8365 3.53606 5.12819 4.24438L4.24431 5.12813C2.78219 6.59031 2.78219 8.96931 4.24438 10.4315L4.68944 10.8766C4.80656 10.9937 4.83869 11.1742 4.7695 11.3409L4.76194 11.3592C4.69531 11.5206 4.54513 11.6249 4.37956 11.6249H3.75C1.68225 11.6249 0 13.3072 0 15.3749V16.6249C0 18.6927 1.68225 20.3749 3.75 20.3749H4.3795C4.54513 20.3749 4.69519 20.4792 4.76025 20.6366L4.77138 20.6636C4.83869 20.8258 4.8065 21.0062 4.68937 21.1233L4.24431 21.5684C3.536 22.2768 3.14594 23.2184 3.14594 24.2201C3.14594 25.2218 3.536 26.1634 4.24425 26.8717L5.12813 27.7556C5.83644 28.4639 6.77819 28.854 7.77981 28.854C8.78156 28.854 9.72325 28.4639 10.4315 27.7556L10.8766 27.3106C10.9936 27.1934 11.1743 27.1613 11.3357 27.2283L11.3593 27.2381C11.5207 27.3047 11.625 27.4548 11.625 27.6204V28.25C11.625 30.3177 13.3073 32 15.375 32H16.625C18.6927 32 20.375 30.3177 20.375 28.25V27.6204C20.375 27.4548 20.4792 27.3048 20.6393 27.2387L20.6637 27.2286C20.8258 27.1613 21.0063 27.1934 21.1234 27.3105L21.5685 27.7556C22.2768 28.4639 23.2185 28.854 24.2202 28.854C25.2219 28.854 26.1636 28.4639 26.8719 27.7556L27.7558 26.8717C28.464 26.1635 28.8541 25.2218 28.8541 24.2201C28.8541 23.2184 28.464 22.2768 27.7558 21.5685L27.3106 21.1234C27.1934 21.0063 27.1613 20.8258 27.2286 20.6637L27.2381 20.6408C27.3047 20.4794 27.4549 20.3751 27.6204 20.3751H28.25C30.3177 20.3751 32 18.6928 32 16.6251V15.3751C32 13.3073 30.3177 11.6251 28.25 11.6251ZM29.5 16.625C29.5 17.3143 28.9393 17.875 28.25 17.875H27.6204C26.4389 17.875 25.3818 18.586 24.9274 19.6864L24.9193 19.7061C24.4631 20.806 24.7078 22.0561 25.5427 22.8911L25.9879 23.3363C26.224 23.5723 26.354 23.8862 26.354 24.2201C26.354 24.554 26.224 24.8679 25.9879 25.104L25.1041 25.9879C24.8679 26.2239 24.554 26.354 24.2201 26.354C23.8862 26.354 23.5723 26.224 23.3363 25.9879L22.8911 25.5427C22.0556 24.7074 20.8047 24.4629 19.7041 24.9201L19.6865 24.9274C18.5861 25.3818 17.875 26.4388 17.875 27.6204V28.25C17.875 28.9393 17.3143 29.5 16.625 29.5H15.375C14.6858 29.5 14.125 28.9393 14.125 28.25V27.6204C14.125 26.4388 13.4139 25.3818 12.3122 24.9268L12.2953 24.9198C11.9272 24.7669 11.5424 24.6926 11.1617 24.6926C10.4048 24.6926 9.66481 24.9869 9.10888 25.5427L8.66375 25.9879C8.42762 26.224 8.11381 26.354 7.77987 26.354C7.446 26.354 7.13206 26.2239 6.896 25.9879L6.01213 25.104C5.776 24.8679 5.646 24.554 5.646 24.2201C5.646 23.8862 5.776 23.5723 6.01213 23.3363L6.45725 22.8911C7.29231 22.0561 7.53694 20.806 7.08075 19.7061L7.07263 19.6864C6.61812 18.586 5.56106 17.875 4.37956 17.875H3.75C3.06075 17.875 2.5 17.3143 2.5 16.625V15.375C2.5 14.6858 3.06075 14.125 3.75 14.125H4.37956C5.56112 14.125 6.61819 13.414 7.07431 12.3096L7.08012 12.2954C7.53712 11.1951 7.29262 9.94438 6.45719 9.10888L6.01213 8.66381C5.52469 8.17638 5.52469 7.38337 6.01213 6.896L6.89594 6.01213C7.13212 5.77606 7.446 5.646 7.77987 5.646C8.11381 5.646 8.42769 5.776 8.66375 6.01213L9.10894 6.45731C9.9445 7.29269 11.1953 7.53719 12.2959 7.07994L12.3135 7.07263C13.4139 6.61825 14.125 5.56119 14.125 4.37962V3.75C14.125 3.06075 14.6858 2.5 15.375 2.5H16.625C17.3143 2.5 17.875 3.06075 17.875 3.75V4.37962C17.875 5.56119 18.5861 6.61825 19.6878 7.07312L19.7047 7.08012C20.8048 7.537 22.0556 7.29256 22.8911 6.45719L23.3363 6.012C23.5724 5.77594 23.8862 5.64594 24.2201 5.64594C24.554 5.64594 24.8679 5.776 25.104 6.01206L25.9879 6.89594C26.4753 7.38331 26.4753 8.17631 25.9879 8.66369L25.5427 9.10888C24.7074 9.94438 24.4629 11.1951 24.918 12.2907L24.9274 12.3136C25.3819 13.414 26.4389 14.125 27.6204 14.125H28.25C28.9393 14.125 29.5 14.6858 29.5 15.375V16.625Z" fill="black"/>
</svg>