<svg width="50" height="50" viewBox="0 0 50 50" fill="none" xmlns="http://www.w3.org/2000/svg">
    <path d="M5 0C2.23854 0 0 2.23854 0 5C0 7.76146 2.23854 10 5 10C7.76146 10 10 7.76146 10 5C9.99729 2.23969 7.76031 0.00270833 5 0ZM5 8.33333C3.15906 8.33333 1.66667 6.84094 1.66667 5C1.66667 3.15906 3.15906 1.66667 5 1.66667C6.84094 1.66667 8.33333 3.15906 8.33333 5C8.33333 6.84094 6.84094 8.33333 5 8.33333Z" transform="translate(20 14.1665)" fill="white"/>
    <path d="M50 31.6665V29.9999C46.3198 30.004 43.3375 32.9863 43.3333 36.6665C43.3335 37.149 43.3869 37.63 43.4925 38.1007C42.3882 38.6861 41.5436 39.6645 41.1258 40.8424C40.0892 40.7796 39.0594 41.0478 38.185 41.6082C35.8767 39.4083 32.2285 39.4733 30 41.754V35.8332H30.8333C31.2935 35.8332 31.6667 35.4601 31.6667 34.9999V32.4999H32.5C32.9381 32.501 33.3022 32.1627 33.3333 31.7257L33.5142 29.1665H40C40.4602 29.1664 40.8332 28.7933 40.8331 28.333C40.8331 28.1121 40.7453 27.9003 40.5892 27.744L34.0808 21.2357L34.3142 17.9607C34.5991 13.9131 33.6041 9.87841 31.47 6.42737C31.47 6.42237 31.47 6.41737 31.4642 6.41237C31.4517 6.39154 31.4367 6.3732 31.4242 6.3532C30.8843 5.48477 30.2762 4.66049 29.6058 3.8882C29.5542 3.8282 29.4992 3.7707 29.4467 3.71154C29.1778 3.40987 28.9 3.11654 28.6133 2.83154C28.53 2.7482 28.4408 2.65904 28.3517 2.57404C28.0042 2.2407 27.6483 1.9207 27.2742 1.61404L25.5275 0.188203C25.2206 -0.0627344 24.7794 -0.0627344 24.4725 0.188203L22.7292 1.61404C22.355 1.9207 21.9992 2.2432 21.6517 2.57404C21.5625 2.65737 21.4767 2.7457 21.39 2.83154C21.1011 3.11654 20.8233 3.40987 20.5567 3.71154C20.5042 3.7707 20.4492 3.8282 20.3975 3.8882C19.7271 4.66049 19.1191 5.48477 18.5792 6.3532C18.5667 6.3732 18.5517 6.39154 18.5392 6.41237C18.5392 6.41737 18.5392 6.42237 18.5333 6.42737C16.3993 9.87841 15.4043 13.9131 15.6892 17.9607L15.9225 21.2357L9.41417 27.744C9.08875 28.0696 9.08885 28.5972 9.41438 28.9226C9.56979 29.0779 9.78021 29.1656 10 29.1665H16.4858L16.6667 31.7257C16.6978 32.1627 17.0619 32.501 17.5 32.4999H18.3333V34.9999C18.3333 35.4601 18.7065 35.8332 19.1667 35.8332H20V41.7499C17.7715 39.4691 14.1233 39.4041 11.815 41.604C10.9406 41.0437 9.91083 40.7756 8.87417 40.8382C8.45635 39.6605 7.61177 38.6824 6.5075 38.0974C6.61271 37.6277 6.66604 37.1479 6.66667 36.6665C6.6625 32.9863 3.68021 30.004 0 29.9999V31.6665C2.76031 31.6692 4.99729 33.9062 5 36.6665C4.99781 36.9686 4.96771 37.27 4.91 37.5665C4.66448 37.5239 4.41583 37.5016 4.16667 37.4999C2.59156 37.4941 1.10719 38.2363 0.166667 39.4999L1.5 40.4999C2.35302 39.3301 3.87698 38.8656 5.2375 39.3607C6.38208 39.7481 7.22552 40.7272 7.43917 41.9165C7.52042 42.3696 7.95344 42.6709 8.40646 42.5898C8.4174 42.5878 8.42833 42.5856 8.43917 42.5832C10.2251 42.174 12.0046 43.2902 12.4136 45.0761C12.6861 46.2659 12.2834 47.5092 11.365 48.3132L12.4708 49.5632C14.4767 47.8186 14.7376 44.7977 13.0608 42.7349C14.7663 41.1981 17.3946 41.3349 18.9314 43.0403C19.6218 43.8064 20.0026 44.8018 20 45.8332C20 46.2934 20.3731 46.6665 20.8333 46.6665C21.2935 46.6665 21.6667 46.2934 21.6667 45.8332V35.8332H23.3333V38.3332H25V35.8332H28.3333V45.8332C28.3333 46.2934 28.7065 46.6665 29.1667 46.6665C29.6269 46.6665 30 46.2934 30 45.8332C30.0052 43.5321 31.8749 41.6708 34.1761 41.676C35.4431 41.6789 36.64 42.2581 37.4283 43.2499C38.3217 44.371 38.5736 45.8736 38.095 47.2249L39.665 47.7832C40.2346 46.1829 40.0722 44.4131 39.2208 42.9432C39.7107 42.658 40.2665 42.5052 40.8333 42.4999C41.0776 42.5008 41.321 42.5288 41.5592 42.5832C42.0085 42.6825 42.4533 42.3986 42.5526 41.9492C42.555 41.9384 42.5572 41.9275 42.5592 41.9165C42.8768 40.1074 44.6009 38.8983 46.41 39.2159C46.9265 39.3065 47.4142 39.5181 47.8333 39.8332L48.8333 38.4999C47.7721 37.6775 46.4134 37.3404 45.0908 37.5715C45.0325 37.2733 45.0021 36.9704 45 36.6665C45.0027 33.9062 47.2397 31.6692 50 31.6665ZM33.9233 23.4349L37.9883 27.4999H33.6333L33.9233 23.4349ZM12.0117 27.4999L16.0767 23.4349L16.3667 27.4999H12.0117ZM21.0517 5.7082C21.0892 5.65987 21.1275 5.61237 21.1658 5.56487C21.3742 5.30237 21.5917 5.04654 21.8142 4.79654C21.8808 4.72237 21.9467 4.6482 22.015 4.57487C22.2242 4.3482 22.4408 4.12904 22.6608 3.91404C22.735 3.84237 22.8058 3.76904 22.8808 3.6982C23.1725 3.42404 23.4717 3.15737 23.7817 2.90404L25 1.90987L26.215 2.90404C26.525 3.15404 26.8242 3.42404 27.1158 3.6982C27.1908 3.76904 27.2617 3.84237 27.3358 3.91404C27.5558 4.12904 27.7725 4.3482 27.9817 4.57487C28.05 4.6482 28.1158 4.72237 28.1825 4.79654C28.405 5.04654 28.6225 5.30237 28.8308 5.56487C28.8692 5.61237 28.9075 5.65987 28.945 5.7082C29.195 6.02904 29.4367 6.3582 29.665 6.6982C26.9365 8.87997 23.0602 8.87997 20.3317 6.6982C20.56 6.3582 20.8017 6.03154 21.0517 5.7082ZM18.2758 30.8332L18.1567 29.1665H26.6667V27.4999H18.0383L17.3483 17.8415C17.1111 14.4674 17.8469 11.0959 19.4683 8.12737C22.7335 10.6241 27.2665 10.6241 30.5317 8.12737C32.1531 11.0959 32.8889 14.4674 32.6517 17.8415L31.7242 30.8332H18.2758ZM20 34.1665V32.4999H30V34.1665H20Z" fill="white"/>
    <path d="M1.66667 0H0V1.66667H1.66667V0Z" transform="translate(44.1667 19.1665)" fill="white"/>
    <path d="M1.66667 0H0V1.66667H1.66667V0Z" transform="translate(3.33331 22.4998)" fill="white"/>
    <path d="M1.66667 0H0V3.33333H1.66667V0Z" transform="translate(23 43)" fill="white"/>
    <path d="M3.33333 1.66667V0H1.66667V1.66667H0V3.33333H1.66667V5H3.33333V3.33333H5V1.66667H3.33333Z" transform="translate(39.1667 8.33325)" fill="white"/>
</svg>
