<svg width="36" height="26" viewBox="0 0 36 26" fill="none" xmlns="http://www.w3.org/2000/svg">
  <path d="M35.2679 4.66798C34.7552 2.76745 33.254 1.26908 31.3558 0.758989C28.6547 0.021292 19.0825 -3.86006e-08 17.9999 -3.86006e-08C16.9181 -3.86006e-08 7.35235 0.0204485 4.65735 0.72814C4.6525 0.729476 4.64772 0.73074 4.64294 0.732076C2.77396 1.24406 1.23883 2.7891 0.731881 4.66798C0.731249 4.67058 0.730545 4.67311 0.729842 4.67571C0.00829686 7.41204 0 12.7731 0 13C0 13.228 0.00829686 18.6168 0.731952 21.332C1.24467 23.2325 2.74584 24.731 4.64765 25.242C7.37366 25.9787 16.9203 26 17.9999 26C19.0818 26 28.6475 25.9796 31.3424 25.2718C31.345 25.2712 31.3476 25.2705 31.3501 25.2698C33.2539 24.7582 34.7552 23.2598 35.2679 21.3594C35.4701 20.6099 35.0261 19.8386 34.2762 19.6365C33.5263 19.4345 32.7545 19.8781 32.5524 20.6276C32.2999 21.5631 31.5611 22.3011 30.6236 22.5544C28.6316 23.0749 20.8371 23.1891 17.9999 23.1892C15.1701 23.1892 7.38681 23.0706 5.37988 22.5281C4.44058 22.2757 3.70019 21.537 3.44854 20.6044C2.82065 18.2484 2.81249 13.0521 2.81249 13C2.81249 11.5569 2.92675 7.38028 3.4484 5.39669C3.70089 4.46525 4.45823 3.70001 5.37974 3.44472C7.37767 2.925 15.1645 2.81088 18 2.81081C20.8369 2.81081 28.6333 2.92929 30.62 3.47191C31.5593 3.72425 32.2997 4.46301 32.554 5.40533C33.0944 7.37599 33.1945 11.5705 33.1874 13.0272C33.1874 13.0306 33.1871 13.3753 33.1761 13.9203C33.1604 14.6963 33.7772 15.338 34.5537 15.3538C34.5634 15.354 34.573 15.3541 34.5826 15.3541C35.346 15.3541 35.9725 14.7433 35.988 13.977C35.9991 13.4279 35.9998 13.0763 35.9998 13.0316C36.0011 12.7659 36.0166 7.39819 35.2679 4.66798Z" fill="#6526B8"/>
  <path d="M4.1241 0.374852C3.26524 -0.123364 2.23889 -0.124981 1.3784 0.370213C0.51532 0.866884 0 1.75868 0 2.75554V9.7572C0 10.7541 0.51532 11.6459 1.3784 12.1426C1.80724 12.3894 2.27735 12.5128 2.74731 12.5128C3.22038 12.5128 3.69337 12.3878 4.1241 12.138L10.1607 8.63723C11.0189 8.13951 11.5312 7.24946 11.5312 6.2564C11.5312 5.26334 11.0189 4.37323 10.1607 3.87551L4.1241 0.374852ZM2.81249 9.64884V2.8639L8.66241 6.2564L2.81249 9.64884Z" transform="translate(13.1484 6.70847)" fill="#6526B8"/>
</svg>