<svg width="25" height="20" viewBox="0 0 25 20" fill="none" xmlns="http://www.w3.org/2000/svg">
    <path d="M16.9091 6.07143C17.2121 6.07143 17.5 6.08631 17.7727 6.11607C17.5303 4.95536 16.9697 3.91369 16.0909 2.99107C15.2424 2.06845 14.1818 1.33929 12.9091 0.803571C11.6364 0.267857 10.2879 0 8.86364 0C7.25758 0 5.77273 0.327381 4.40909 0.982143C3.04545 1.6369 1.9697 2.52976 1.18182 3.66071C0.393939 4.79167 0 6.02679 0 7.36607C0 9.65774 1.18182 11.622 3.54545 13.2589L2.68182 15.8929L5.77273 14.3304L6.27273 14.4643C7.36364 14.6726 8.22727 14.7768 8.86364 14.7768C9.10606 14.7768 9.37879 14.7619 9.68182 14.7321C9.5 14.1369 9.40909 13.5417 9.40909 12.9464C9.40909 11.6964 9.74242 10.5506 10.4091 9.50893C11.0758 8.4375 11.9848 7.60417 13.1364 7.00893C14.2879 6.38393 15.5455 6.07143 16.9091 6.07143ZM12.1818 3.70536C12.5152 3.70536 12.7727 3.80952 12.9545 4.01786C13.1667 4.19643 13.2727 4.4494 13.2727 4.77679C13.2727 5.10417 13.1667 5.37202 12.9545 5.58036C12.7727 5.75893 12.5 5.84821 12.1364 5.84821C11.803 5.84821 11.5 5.75893 11.2273 5.58036C10.9545 5.37202 10.8182 5.10417 10.8182 4.77679C10.8182 4.4494 10.9545 4.19643 11.2273 4.01786C11.5 3.80952 11.8182 3.70536 12.1818 3.70536ZM5.95455 5.84821C5.62121 5.84821 5.31818 5.75893 5.04545 5.58036C4.77273 5.37202 4.63636 5.10417 4.63636 4.77679C4.63636 4.4494 4.77273 4.19643 5.04545 4.01786C5.31818 3.80952 5.62121 3.70536 5.95455 3.70536C6.28788 3.70536 6.56061 3.80952 6.77273 4.01786C6.98485 4.19643 7.09091 4.4494 7.09091 4.77679C7.09091 5.10417 6.98485 5.37202 6.77273 5.58036C6.56061 5.75893 6.28788 5.84821 5.95455 5.84821ZM25 12.8125C25 11.6815 24.6515 10.6399 23.9545 9.6875C23.2576 8.70536 22.3333 7.93155 21.1818 7.36607C20.0303 6.8006 18.803 6.51786 17.5 6.51786C16.1061 6.51786 14.8333 6.8006 13.6818 7.36607C12.5303 7.93155 11.6212 8.70536 10.9545 9.6875C10.2879 10.6399 9.95455 11.6964 9.95455 12.8571C9.95455 13.9881 10.2879 15.0446 10.9545 16.0268C11.6212 16.9792 12.5303 17.7381 13.6818 18.3036C14.8333 18.869 16.1061 19.1518 17.5 19.1518C18.0455 19.1518 18.8788 19.0179 20 18.75L20.1364 18.7054L22.5909 20L21.9091 17.8125C22.8485 17.128 23.5909 16.3839 24.1364 15.5804C24.7121 14.6875 25 13.7649 25 12.8125ZM15.0455 11.7411C14.8333 11.7411 14.6364 11.6518 14.4545 11.4732C14.2727 11.2946 14.1818 11.1012 14.1818 10.8929C14.1818 10.6548 14.2727 10.4464 14.4545 10.2679C14.6364 10.0893 14.8333 10 15.0455 10C15.3788 10 15.6364 10.0893 15.8182 10.2679C16.0303 10.4464 16.1364 10.6548 16.1364 10.8929C16.1364 11.1012 16.0303 11.2946 15.8182 11.4732C15.6364 11.6518 15.3788 11.7411 15.0455 11.7411ZM19.9091 11.7411C19.697 11.7411 19.5 11.6518 19.3182 11.4732C19.1364 11.2946 19.0455 11.1012 19.0455 10.8929C19.0455 10.6548 19.1364 10.4464 19.3182 10.2679C19.5 10.0893 19.697 10 19.9091 10C20.2121 10 20.4697 10.0893 20.6818 10.2679C20.8939 10.4464 21 10.6548 21 10.8929C21 11.1012 20.8939 11.2946 20.6818 11.4732C20.5 11.6518 20.2424 11.7411 19.9091 11.7411Z" fill="white"/>
</svg>
