<svg width="24" height="19" viewBox="0 0 24 19" fill="none" xmlns="http://www.w3.org/2000/svg">
    <path d="M19.074 6.68259C19.2614 6.13312 19.1521 5.64469 18.7459 5.21732C18.371 4.78995 17.9024 4.63732 17.34 4.75943C16.9963 4.82048 16.7307 4.74416 16.5433 4.53048C16.3871 4.31679 16.3402 4.07258 16.4027 3.79785C16.4652 3.49258 16.6526 3.30942 16.9651 3.24837C17.7461 3.09574 18.4491 3.20258 19.074 3.5689C19.7301 3.90469 20.1987 4.40837 20.4799 5.07995C20.7924 5.75154 20.8236 6.43838 20.5737 7.14049C20.4799 7.44575 20.2768 7.62891 19.9644 7.68996C19.6832 7.72049 19.4333 7.64417 19.2146 7.46102C19.0271 7.24733 18.9803 6.98786 19.074 6.68259ZM10.0759 19C8.3888 19 6.76416 18.7405 5.202 18.2216C3.67108 17.7026 2.43697 16.9853 1.49967 16.0695C0.499891 15.0926 0 13.9784 0 12.7268C0 11.7195 0.312432 10.651 0.937297 9.52155C1.56216 8.39207 2.43697 7.27786 3.56173 6.17891C4.68648 5.07995 5.84248 4.20995 7.02972 3.5689C8.09199 2.9889 9.04491 2.69889 9.88848 2.69889C10.7633 2.66837 11.3725 2.92784 11.7162 3.47732C12.0599 4.02679 12.0599 4.83574 11.7162 5.90417C11.5912 6.23996 11.7631 6.33154 12.2317 6.17891C12.263 6.17891 12.2786 6.17891 12.2786 6.17891C13.5283 5.65996 14.6374 5.40048 15.606 5.40048C16.5745 5.40048 17.2463 5.67522 17.6212 6.2247C18.0273 6.74364 18.0273 7.50681 17.6212 8.51418C17.5587 8.72786 17.5587 8.86523 17.6212 8.92628C17.6837 8.98734 17.8243 9.04839 18.043 9.10944C19.5426 9.59787 20.4643 10.3916 20.808 11.4905C21.1204 12.5284 20.8548 13.6426 20.0113 14.8331C19.1677 15.9931 17.918 16.9547 16.2621 17.7179C14.3875 18.5726 12.3254 19 10.0759 19ZM16.8245 12.2689C16.7307 11.4447 16.3246 10.7121 15.606 10.071C14.8874 9.42997 13.9501 8.95681 12.7941 8.65155C11.6693 8.34628 10.4509 8.2547 9.13864 8.37681C7.82643 8.49891 6.63918 8.81944 5.57691 9.33839C4.54589 9.85734 3.73356 10.4984 3.13994 11.2616C2.57757 12.0247 2.32762 12.8337 2.39011 13.6884C2.48384 14.5126 2.89 15.2453 3.60859 15.8863C4.32719 16.5274 5.24886 17.0005 6.37362 17.3058C7.52962 17.611 8.76372 17.7026 10.0759 17.5805C11.3882 17.4584 12.5754 17.1379 13.6377 16.6189C14.6999 16.1 15.5123 15.4589 16.0746 14.6958C16.637 13.9326 16.887 13.1237 16.8245 12.2689ZM16.309 0.134675C15.934 0.226255 15.6997 0.439939 15.606 0.77573C15.5123 1.08099 15.5747 1.371 15.7934 1.64573C16.0121 1.88994 16.309 1.96626 16.6839 1.87468C17.7774 1.661 18.7928 1.81363 19.7301 2.33258C20.6986 2.821 21.386 3.55363 21.7921 4.53048C22.2295 5.50732 22.2764 6.5147 21.9327 7.55259C21.8078 7.91891 21.8703 8.22418 22.1202 8.46839C22.3701 8.68207 22.6513 8.77365 22.9638 8.74312C23.3074 8.68207 23.5418 8.46839 23.6667 8.10207C24.1666 6.6368 24.1041 5.20206 23.4793 3.79785C22.9169 2.45468 21.9796 1.44731 20.6674 0.77573C19.3239 0.0430961 17.8711 -0.170589 16.309 0.134675ZM12.6066 14.3752C12.2317 15.2605 11.5287 15.9168 10.4977 16.3442C9.49794 16.7716 8.51378 16.8326 7.54524 16.5274C6.5767 16.2221 5.90497 15.6726 5.53005 14.8789C5.18637 14.0547 5.21762 13.2305 5.62378 12.4063C6.02994 11.5821 6.70167 10.9716 7.63897 10.5747C8.57626 10.1779 9.52918 10.1016 10.4977 10.3458C11.4663 10.59 12.1536 11.1089 12.5598 11.9026C12.9972 12.6658 13.0128 13.49 12.6066 14.3752ZM8.57626 13.0016C8.26383 12.8795 7.93578 12.8795 7.5921 13.0016C7.24843 13.1237 6.98286 13.3374 6.7954 13.6426C6.60794 13.9174 6.54545 14.2074 6.60794 14.5126C6.70167 14.7874 6.90475 15.001 7.21718 15.1537C7.52962 15.3063 7.85767 15.3216 8.20135 15.1995C8.57626 15.0774 8.85745 14.8637 9.04491 14.5584C9.23237 14.2531 9.27924 13.9479 9.18551 13.6426C9.09178 13.3374 8.8887 13.1237 8.57626 13.0016ZM10.1228 12.4063C9.99783 12.3452 9.87286 12.3452 9.74788 12.4063C9.62291 12.4673 9.51356 12.5589 9.41983 12.681C9.35734 12.7726 9.34172 12.8795 9.37297 13.0016C9.40421 13.0931 9.48232 13.1695 9.60729 13.2305C9.73226 13.2916 9.85724 13.2916 9.98221 13.2305C10.1384 13.1695 10.2478 13.0931 10.3103 13.0016C10.3727 12.8795 10.3884 12.7573 10.3571 12.6352C10.3259 12.5131 10.2478 12.4368 10.1228 12.4063Z" fill="white"/>
</svg>
