<svg width="20" height="20" viewBox="0 0 20 20" fill="none" xmlns="http://www.w3.org/2000/svg">
    <path d="M11.6329 2.56681V17.7027H13.2301L13.7414 19.5254C13.7414 19.5254 16.1912 17.7027 16.6209 17.7027H20V2.56681H11.6329ZM18.2996 16.06H16.3944L14.4608 17.3222L14.1444 16.0634L13.3317 16.0617V4.20951H18.2996V16.06ZM10.7369 11.1353C10.7369 11.1353 10.7303 9.49262 10.219 9.49262H6.65001C6.76826 7.60701 6.7999 5.90316 6.7999 4.38108H10.2906C10.2906 4.38108 10.4255 2.81143 9.70605 2.83012H3.66891C3.90707 1.91619 4.20518 0.975083 4.56324 -4.13114e-08C4.56324 -4.13114e-08 2.92114 0 2.36156 1.5017C2.13007 2.12174 1.46057 4.50339 0.268132 6.9377C0.669498 6.89353 1.9985 6.85616 2.78125 5.39184C2.92447 4.98244 2.95279 4.92808 3.13099 4.38108H5.09951C5.09951 5.11154 5.1095 6.1206 5.05121 7.33691C5.05121 8.49546 5.0179 9.03566 4.98459 9.49262H1.41727C0.616205 9.49262 0.356399 11.1353 0.356399 11.1353H4.83138C4.5316 14.6042 2.92114 17.4954 9.92666e-10 19.8057C0.476309 20.2916 2.85453 19.7888 3.47906 19.1483C3.47906 19.1483 5.04622 17.6959 5.90557 14.3307C7.03805 15.6693 7.99234 16.8567 8.76842 17.8896C9.12649 18.3771 9.57449 18.8935 9.57449 18.8935C9.57449 18.8935 10.1274 16.9773 9.50287 16.0668C8.98659 15.445 7.57598 13.7531 6.97977 13.1432L5.9955 13.9654C6.28322 13.047 6.46323 12.097 6.53177 11.1353H10.7369Z" fill="white"/>
</svg>
